<svg width="150" height="150" viewBox="0 0 150 150" fill="none" xmlns="http://www.w3.org/2000/svg">
<path fill-rule="evenodd" clip-rule="evenodd" d="M131.394 106.532H18V63.5173H18.6988C26.7184 63.5173 34.7269 63.5173 42.7465 63.5284C43.2234 63.5284 43.4453 63.3953 43.656 62.9516C47.7934 54.1889 54.4486 48.1326 63.5885 44.9381C71.1755 42.2871 78.829 42.3647 86.3938 45.1156C94.6464 48.1215 100.836 53.5677 105.029 61.2878C105.317 61.8202 105.605 62.3638 105.816 62.9295C105.994 63.3842 106.238 63.5173 106.715 63.5173C111.981 63.5007 117.248 63.5028 122.51 63.5049H122.511H122.513H122.514H122.516H122.517H122.519H122.52H122.522H122.524H122.525H122.527H122.528H122.53H122.531H122.533C124.278 63.5056 126.023 63.5062 127.767 63.5062H130.762H131.394V106.532ZM19.0981 71.5036V97.8695H53.8718V100.964H19.1203V105.412H130.285V100.953H95.5005V97.8474H130.285V71.5147H129.542L101.058 71.4815C100.181 71.4815 100.181 71.4815 99.9595 70.6052C99.0721 67.0446 97.5747 63.7614 95.2342 60.9329C88.2129 52.392 79.1729 49.1087 68.469 51.6932C58.6858 54.0558 52.4742 60.5336 49.6125 70.1837L49.5831 70.2828C49.225 71.4931 49.2219 71.5036 47.8821 71.5036H19.7304H19.0981ZM130.296 64.6155H129.52C121.667 64.6155 113.825 64.6155 105.971 64.6265C105.506 64.6265 105.284 64.4823 105.106 64.0609C104.762 63.2511 104.385 62.4414 103.964 61.665C99.1497 52.9688 91.9288 47.3451 82.2676 45.0379C74.2924 43.1412 66.5834 44.1395 59.318 47.9773C52.4631 51.5933 47.4606 56.973 44.3548 64.0941C44.1773 64.4934 43.9666 64.6265 43.534 64.6265C35.6697 64.6155 27.7943 64.6155 19.93 64.6155H19.1203V68.409H19.5973H19.6019C28.5406 68.409 37.4793 68.409 46.4179 68.42C46.8173 68.42 46.9282 68.2537 47.0613 67.9209C47.2209 67.5233 47.3748 67.1221 47.5289 66.7208C47.9849 65.5325 48.4415 64.3429 49.0468 63.24C53.6833 54.7879 60.7822 49.6966 70.2992 48.1215C76.3 47.1343 82.1012 48.0217 87.5474 50.7392C94.8127 54.3664 99.7598 60.0677 102.366 67.7767C102.533 68.2537 102.721 68.42 103.254 68.42C109.859 68.4034 116.471 68.4055 123.08 68.4076C125.283 68.4083 127.485 68.409 129.686 68.409H130.307C130.296 67.1112 130.296 65.9021 130.296 64.6155ZM43.8228 77.3274H42.7025C42.6977 77.2276 42.693 77.1339 42.6882 77.0402L42.6882 77.0401C42.6819 76.9152 42.6756 76.7902 42.6692 76.6508H48.3706V77.283H47.2613V90.5935L47.3126 90.5966C47.6607 90.6178 48.001 90.6384 48.3816 90.649V91.2812H42.7136L42.708 91.1822C42.6988 91.0173 42.6896 90.8524 42.6803 90.649C42.8898 90.638 43.0883 90.6269 43.2867 90.6159L43.2904 90.6157L43.2941 90.6155C43.4925 90.6045 43.691 90.5935 43.9004 90.5824V84.2821H39.9406V85.3913C39.9406 85.8474 39.9436 86.3025 39.9466 86.7572L39.9466 86.7578V86.7579V86.7579V86.758V86.7581V86.7582V86.7583V86.7583V86.7584V86.7585V86.7586V86.7587V86.7587V86.7588V86.7589V86.759C39.9535 87.8187 39.9605 88.8762 39.9295 89.9391C39.9184 90.5048 40.0737 90.7155 40.6394 90.6379C40.7466 90.6226 40.8591 90.6337 40.9805 90.6457L40.9806 90.6457L40.9808 90.6457L40.981 90.6458C41.0353 90.6511 41.0914 90.6567 41.1496 90.6601V91.2812H35.4594C35.4483 91.1038 35.4372 90.9152 35.4261 90.6712L35.613 90.6612C35.9617 90.6426 36.2879 90.6251 36.6462 90.6157V77.3274H35.4704V76.6508H41.1607L41.1607 76.6511C41.1718 76.8396 41.1829 77.0281 41.194 77.2719C40.9888 77.283 40.7919 77.2913 40.595 77.2997C40.3981 77.308 40.2012 77.3163 39.996 77.3274V83.3615C40.308 83.3615 40.6178 83.3622 40.9263 83.3629H40.9265H40.9267H40.9269H40.927H40.9272H40.9274H40.9276H40.9278H40.928H40.9282H40.9284H40.9286H40.9288H40.9289H40.9291C41.8481 83.365 42.7547 83.367 43.6675 83.3504C43.7673 83.3504 43.9559 83.1618 43.9559 83.062C43.967 81.1985 43.9559 79.3351 43.9448 77.4716C43.9004 77.4383 43.8672 77.405 43.8228 77.3274ZM37.9773 90.5935V77.2941C37.8267 77.302 37.7044 77.31 37.5821 77.3179L37.4337 77.3274V90.5935H37.9773ZM44.6991 77.3496V90.5935H45.2315V77.3496H44.6991ZM50.0489 76.6092V77.2193C51.0361 77.4633 51.5686 78.029 51.5796 78.8276C51.5796 80.4615 51.5769 82.0925 51.5741 83.7236L51.5741 83.7303C51.5713 85.3636 51.5686 86.997 51.5686 88.633C51.5686 89.5981 51.3689 90.4189 50.1931 90.5853C50.2042 90.8182 50.2153 91.0067 50.2264 91.1953V91.1953H54.0976V90.6185C52.822 90.2081 52.6445 89.9863 52.5336 88.6663C52.5114 88.4223 52.5003 88.1894 52.5003 87.9453V81.7892C52.5003 81.6783 52.5102 81.5674 52.52 81.4564C52.5249 81.401 52.5299 81.3455 52.5336 81.2901C52.7577 81.5783 52.8792 81.8768 52.9968 82.1658L52.9968 82.1658L53.0105 82.1996L53.0109 82.2006C53.9314 84.574 54.8519 86.9474 55.7836 89.3208C55.8279 89.4391 55.9413 89.5377 56.0547 89.6363C56.1114 89.6856 56.1681 89.7349 56.2161 89.7866C56.256 89.7401 56.2999 89.6955 56.3436 89.6512L56.3437 89.6511C56.4457 89.5475 56.5467 89.445 56.5933 89.3208C57.1561 87.794 57.7101 86.2628 58.2636 84.7328L58.2636 84.7327L58.2636 84.7326L58.2636 84.7326C58.5827 83.8505 58.9017 82.9689 59.2221 82.0887C59.2545 81.9915 59.2982 81.8981 59.3423 81.8041L59.3423 81.804L59.3423 81.804L59.3423 81.804L59.3424 81.8039L59.3424 81.8039C59.3737 81.737 59.4052 81.6698 59.4328 81.6007C59.455 81.6062 59.4744 81.6145 59.4939 81.6228C59.5133 81.6312 59.5327 81.6395 59.5549 81.645V82.2551V89.4539V89.4875C59.555 90.5409 59.555 90.5419 58.5122 90.6407C58.4812 90.6469 58.4502 90.6601 58.4211 90.6724C58.3982 90.6821 58.3765 90.6913 58.3569 90.6962V91.2619H63.792C63.7846 91.1139 63.7772 90.9857 63.7698 90.8574L63.7588 90.6629C63.5639 90.6524 63.3789 90.6443 63.1969 90.6364C62.9957 90.6277 62.7979 90.6191 62.5941 90.6074C62.5898 90.5381 62.5837 90.4739 62.578 90.4127L62.578 90.4126C62.5691 90.3172 62.5608 90.2294 62.5608 90.1416C62.5608 88.8919 62.5596 87.6421 62.5584 86.3924V86.3895C62.5559 83.8911 62.5534 81.3926 62.5608 78.8942C62.5608 78.6857 62.5898 78.4714 62.6184 78.2598C62.6294 78.1786 62.6403 78.0978 62.6496 78.0179C62.6939 77.6186 62.9269 77.3635 63.3262 77.3302C63.8253 77.2858 63.8253 77.0196 63.7033 76.6092C63.5048 76.6092 63.3067 76.6088 63.1089 76.6083L63.1046 76.6083H63.1045H63.1043H63.1042H63.104H63.1039H63.1038H63.1036H63.1035H63.1033H63.1032H63.103H63.1029H63.1027H63.1026C62.3078 76.6066 61.5172 76.6048 60.7195 76.6314C60.5864 76.6425 60.409 76.8643 60.3535 77.0196C59.7107 78.7708 59.0789 80.5219 58.4472 82.273L58.4457 82.2773C58.2653 82.766 58.0849 83.2578 57.8981 83.7671C57.7289 84.2286 57.5543 84.7046 57.3697 85.2056C57.3401 85.1405 57.3145 85.0848 57.2919 85.0359C57.23 84.9016 57.1915 84.8181 57.159 84.7286C56.1718 82.1996 55.1846 79.6706 54.2196 77.1305C54.0754 76.7423 53.8979 76.5759 53.4653 76.5981C53.0054 76.6219 52.5399 76.6174 52.0768 76.6128H52.0766C51.8919 76.611 51.7076 76.6092 51.5242 76.6092H50.0489ZM60.5864 78.0068L60.8194 78.0401V78.506V90.0196C60.8194 90.0526 60.8223 90.0877 60.8253 90.1229C60.8323 90.2059 60.8394 90.29 60.8083 90.3523C60.7639 90.4521 60.6419 90.5963 60.5421 90.5963C60.4422 90.6074 60.298 90.4743 60.2537 90.3745C60.2132 90.2855 60.22 90.1729 60.2266 90.0626C60.229 90.0216 60.2315 89.9809 60.2315 89.9419C60.2315 88.9971 60.2297 88.0533 60.2279 87.1098V87.1086V87.1084V87.1082V87.108V87.1078V87.1076V87.1074V87.1072V87.107V87.1068V87.1066V87.1064V87.1062V87.1059C60.2233 84.7498 60.2188 82.3961 60.2426 80.0367C60.2502 79.5683 60.3536 79.0999 60.457 78.6314L60.457 78.6314C60.5029 78.4232 60.5489 78.215 60.5864 78.0068ZM53.7741 82.3312C53.1198 80.6588 52.4673 78.9913 51.8126 77.3191C52.1897 77.186 52.4448 77.2858 52.6223 77.7628C53.8313 80.9351 55.0626 84.0964 56.2938 87.2576C56.4491 87.6569 56.4602 87.9897 56.1496 88.4001C55.3628 86.3915 54.5857 84.4052 53.8112 82.4259L53.7784 82.3422L53.7741 82.3312ZM78.0326 77.3203V76.6437C78.0962 76.6394 78.1549 76.6336 78.2113 76.6279C78.3024 76.6189 78.3872 76.6104 78.4763 76.6104C79.002 76.6104 79.5278 76.6134 80.0536 76.6164C81.2804 76.6234 82.5071 76.6304 83.7339 76.5993C85.8858 76.5327 87.3832 77.531 88.437 79.328C90.1341 82.223 89.9233 86.6931 87.9378 89.2997C87.0394 90.4755 85.8636 91.1965 84.3662 91.2409C82.8613 91.2824 81.3502 91.2866 79.8422 91.2908H79.8421H79.8419H79.8418H79.8417H79.8416H79.8415H79.8414H79.8413H79.8411H79.841H79.8409H79.8408H79.8407L79.8376 91.2908C79.3353 91.2922 78.8333 91.2935 78.3321 91.2963C78.2434 91.2963 78.1546 91.2852 78.0326 91.263V90.7195C78.0437 90.7121 78.0548 90.7023 78.0659 90.6924C78.0881 90.6727 78.1102 90.653 78.1324 90.653C79.1751 90.5532 79.1751 90.5531 79.1751 89.455V78.0524V77.3203H78.0326ZM82.0479 77.2648V77.9525V89.9542C82.0479 89.9944 82.0449 90.0346 82.0419 90.0746C82.0349 90.1667 82.0281 90.2573 82.059 90.3424C82.1034 90.4533 82.2143 90.6197 82.3031 90.6197C84.4549 90.7084 85.4754 90.42 86.0411 88.3902C86.6512 86.2161 86.6512 83.9866 86.4626 81.746C86.3628 80.6035 86.1853 79.4721 85.5974 78.4628C85.2868 77.9303 84.8764 77.4978 84.2442 77.409C83.7513 77.3386 83.2474 77.3179 82.7208 77.2962H82.7207L82.7202 77.2962C82.5004 77.2871 82.2766 77.2779 82.0479 77.2648ZM79.8295 77.3647V77.9414V89.9431C79.8295 89.9763 79.8265 90.0104 79.8236 90.0447V90.0447C79.8166 90.125 79.8095 90.2059 79.8406 90.2758C79.8772 90.3563 79.9378 90.4319 79.9972 90.5058C80.0278 90.5441 80.0582 90.5819 80.0846 90.6197C80.1142 90.5827 80.1463 90.547 80.1783 90.5112C80.2424 90.4398 80.3065 90.3683 80.3508 90.2869C80.3745 90.2397 80.3701 90.17 80.3656 90.0978C80.3638 90.0684 80.3619 90.0386 80.3619 90.0096V77.8416L80.362 77.8181L80.3626 77.7672V77.767C80.3667 77.4766 80.3708 77.1808 79.8295 77.3647ZM86.5513 78.729C87.4498 82.3228 87.472 85.8501 86.4626 89.3774C88.4259 87.2477 88.4924 81.1803 86.5513 78.729ZM105.636 91.2812H114.798C114.798 91.0165 114.801 90.7587 114.803 90.5057L114.803 90.5045C114.81 89.8464 114.816 89.2217 114.776 88.597C114.773 88.5241 114.789 88.4378 114.806 88.3488C114.856 88.0854 114.91 87.7982 114.487 87.7651C114.071 87.7342 114.094 87.9932 114.117 88.247C114.127 88.3581 114.137 88.4682 114.11 88.5526C114.076 88.6608 114.068 88.7777 114.059 88.8936C114.049 89.0392 114.039 89.1834 113.977 89.3069C113.811 89.6174 113.611 89.9835 113.323 90.1499C112.429 90.6713 111.449 90.6612 110.468 90.6511C110.281 90.6491 110.093 90.6472 109.906 90.649V84.0381C109.983 84.0381 110.056 84.0368 110.126 84.0355H110.126H110.126H110.126C110.258 84.0331 110.378 84.0309 110.494 84.0381C110.611 84.0454 110.728 84.0503 110.845 84.0551L110.845 84.0552L110.845 84.0552L110.845 84.0552L110.845 84.0552L110.845 84.0552L110.846 84.0552L110.846 84.0552L110.846 84.0552L110.846 84.0553L110.846 84.0553H110.846C111.083 84.0652 111.318 84.075 111.548 84.1047C112.247 84.1934 112.48 84.4263 112.535 85.1362C112.566 85.4539 112.559 85.7716 112.552 86.093C112.549 86.2317 112.546 86.3712 112.546 86.5116H113.201V81.1542H112.557C112.557 81.2806 112.559 81.4004 112.56 81.5159V81.5162V81.5164V81.5167V81.517V81.5172V81.5174V81.5176V81.5178V81.5181V81.5182V81.5184V81.5186C112.562 81.7364 112.565 81.9389 112.557 82.1414C112.535 82.8734 112.291 83.184 111.559 83.306C111.331 83.344 111.099 83.3531 110.868 83.3622H110.868C110.695 83.369 110.521 83.3757 110.35 83.3948C109.951 83.4391 109.862 83.2617 109.862 82.8845C109.879 81.7453 109.877 80.6123 109.874 79.4762C109.874 79.0968 109.873 78.7172 109.873 78.3368V77.2165C110.184 77.2514 110.488 77.2775 110.787 77.3032L110.787 77.3032L110.787 77.3032L110.787 77.3032L110.787 77.3032L110.788 77.3032L110.788 77.3032L110.788 77.3033L110.788 77.3033C111.437 77.359 112.061 77.4125 112.668 77.5492C113.655 77.7711 114.033 78.3257 114.099 79.3351C114.114 79.6137 114.109 79.8923 114.104 80.1806V80.1811V80.1816C114.102 80.3291 114.099 80.479 114.099 80.6328H114.754V76.6508H105.636V77.3274H106.801V90.6268C106.379 90.6601 106.002 90.6823 105.592 90.7045C105.614 90.9374 105.625 91.1038 105.636 91.2812ZM108.032 77.3607V90.5935C107.688 90.7155 107.499 90.6601 107.499 90.2497C107.51 86.0791 107.51 81.8973 107.499 77.7267C107.499 77.3274 107.666 77.2608 108.032 77.3607ZM95.9367 91.1524L95.9367 91.1523C95.9282 91.0941 95.9207 91.0424 95.9207 90.9908C95.9207 90.902 95.9318 90.8133 95.954 90.658H97.5956V77.292C96.6306 77.3142 95.6767 77.403 95.2774 78.3236C95.0508 78.8448 94.9579 79.4226 94.8622 80.0185V80.0186L94.8621 80.0187L94.8621 80.0187L94.8621 80.0189L94.8621 80.019L94.862 80.0191L94.862 80.0193L94.862 80.0194L94.862 80.0196L94.862 80.0197L94.8619 80.0198L94.8619 80.02L94.8619 80.0201L94.8619 80.0202C94.8171 80.2988 94.7717 80.5812 94.7117 80.8637H94.1238V76.6265H104.362V80.8526H103.585C103.585 80.7166 103.587 80.5794 103.588 80.4418V80.4406C103.59 80.1633 103.593 79.8843 103.585 79.6103C103.53 78.0352 102.576 77.2033 100.901 77.3253C100.897 77.3866 100.893 77.4478 100.888 77.5095C100.878 77.6376 100.868 77.7673 100.868 77.9021C100.868 78.9146 100.868 79.9264 100.869 80.9379C100.871 83.9709 100.873 87.0007 100.857 90.0368C100.857 90.5249 100.979 90.7135 101.478 90.658C101.706 90.6344 101.945 90.6387 102.196 90.6432H102.196H102.196H102.196H102.196C102.299 90.645 102.403 90.6469 102.509 90.6469V91.2792C100.324 91.2903 98.1724 91.2903 95.954 91.2903C95.9494 91.2396 95.9429 91.1947 95.9368 91.1532L95.9368 91.153L95.9368 91.1528L95.9368 91.1526L95.9367 91.1524ZM98.838 77.3475C98.4275 77.2366 98.3277 77.3919 98.3277 77.7357C98.3388 81.9063 98.3388 86.077 98.3277 90.2587C98.3277 90.658 98.483 90.7246 98.838 90.6247V77.3475ZM60.6797 64.8006C60.0697 64.9559 59.4596 65.1112 58.6832 65.3108C60.0031 66.1205 61.2454 66.7195 62.6652 66.2758C63.4195 66.0318 64.0074 66.1316 64.5842 66.6419C64.8282 66.863 65.1036 67.0474 65.3781 67.2312L65.3783 67.2313C65.503 67.3148 65.6275 67.3982 65.7488 67.4849C65.7377 67.5126 65.7266 67.5431 65.7155 67.5736C65.7044 67.6041 65.6934 67.6346 65.6823 67.6623H63.486C64.5065 68.7604 65.5603 69.3483 66.9246 69.2152C67.812 69.1265 68.7881 69.7144 69.1319 70.5796L68.7099 70.6036C68.0667 70.6403 67.3999 70.6783 66.6362 70.7237C67.701 71.5667 68.6993 71.9993 69.9194 71.6777C70.5517 71.5113 71.1174 71.5557 71.7607 71.722C72.3533 71.8784 72.9825 71.8943 73.6121 71.9103C73.8311 71.9158 74.05 71.9213 74.2675 71.9328C74.5464 71.9461 74.8292 71.9355 75.1136 71.9249C75.3043 71.9178 75.4958 71.9106 75.6873 71.9106C75.9014 71.9106 76.1208 71.9262 76.3399 71.9418L76.3399 71.9418C76.8359 71.9772 77.3307 72.0124 77.7616 71.8662C78.7709 71.5335 79.7249 71.4226 80.7342 71.6888C80.8733 71.7209 81.0227 71.7323 81.1624 71.743L81.1779 71.7442C82.276 71.7886 83.0969 71.3005 83.9066 70.391H81.1557C81.5661 69.8808 81.9766 69.4149 82.4868 69.1154C82.6593 69.0148 82.9064 69.0446 83.1586 69.075C83.2955 69.0915 83.4339 69.1082 83.5627 69.1043L83.6217 69.1044C83.8614 69.1052 84.1223 69.1061 84.317 68.9934C85.2371 68.4724 86.1351 67.9292 87.033 67.386L87.0332 67.3859L87.0333 67.3858L87.0334 67.3857L87.0336 67.3856L87.0337 67.3855L87.0339 67.3855L87.034 67.3854L87.0341 67.3853L87.0343 67.3852L87.0344 67.3851L87.0345 67.385C87.0235 67.3518 87.0152 67.3186 87.0069 67.2854L87.0068 67.2852C86.9985 67.2519 86.9902 67.2186 86.9791 67.1854H84.6608C85.4373 66.1649 86.3912 65.81 87.5115 66.0207C88.9202 66.2758 90.0738 65.699 91.3161 64.8782C90.662 64.7119 90.1409 64.59 89.6198 64.468L89.6197 64.468L89.6196 64.468L89.6195 64.4679L89.6194 64.4679L89.6192 64.4679L89.619 64.4678V64.2571C89.8457 64.1992 90.0806 64.1568 90.3152 64.1145C91.2057 63.9538 92.0927 63.7937 92.514 62.7929C92.503 62.7597 92.4891 62.7292 92.4753 62.6988L92.4752 62.6986C92.4613 62.6681 92.4475 62.6376 92.4364 62.6043C91.8535 62.8522 91.2706 63.0961 90.6682 63.3481L90.6661 63.349L90.6657 63.3491C90.2715 63.514 89.869 63.6824 89.4526 63.8577C89.5525 63.4917 89.6301 63.2144 89.7521 62.7818C89.1925 63.0763 88.659 63.3578 88.1429 63.6301C87.4927 63.9731 86.8703 64.3016 86.2581 64.6231C86.3025 64.246 86.3579 63.7579 86.4134 63.2699C86.3857 63.2588 86.3579 63.2505 86.3302 63.2421C86.3025 63.2338 86.2747 63.2255 86.247 63.2144C86.1374 63.3019 86.0264 63.388 85.9155 63.4739L85.9153 63.4741C85.0279 64.1623 84.1494 64.8437 84.0508 66.1649C83.9731 67.141 83.3631 67.7843 82.4646 68.2391C82.6446 67.8278 82.8179 67.4098 82.9897 66.9955L82.9901 66.9946C83.0406 66.8729 83.0909 66.7516 83.1412 66.6308C83.119 66.6086 83.0996 66.5864 83.0802 66.5642L83.0801 66.5641L83.0801 66.5641C83.0607 66.542 83.0414 66.5198 83.0192 66.4977C82.949 66.5309 82.8751 66.5593 82.8011 66.5876L82.8011 66.5876C82.6532 66.6443 82.5053 66.701 82.387 66.7971C81.4663 67.5625 80.701 68.4499 80.4237 69.6589C80.2129 70.5685 79.6028 71.0121 78.6267 71.1674C78.7022 71.0464 78.7793 70.9281 78.8555 70.8112C79.2615 70.1884 79.6437 69.6021 79.625 68.827C79.2923 69.0378 79.015 69.2929 78.7488 69.5591C78.5307 69.7731 78.3171 69.9885 78.1042 70.2033C77.7321 70.5786 77.362 70.9518 76.974 71.3116C76.6634 71.6 76.2974 71.8662 75.7761 71.5335C75.9868 71.3005 76.1532 71.112 76.3196 70.9234L76.3068 70.867L76.2863 70.7792C76.2752 70.7321 76.2641 70.6849 76.253 70.635C75.4433 71.5778 74.6336 71.3227 73.8128 70.7348L73.8059 70.7747L73.8026 70.7936L73.7961 70.8291C73.7906 70.8596 73.785 70.8901 73.7795 70.9234C73.9237 71.112 74.079 71.3005 74.2454 71.5002C73.8239 71.8219 73.5244 71.6111 73.2693 71.3782C72.8283 70.9876 72.3945 70.5899 71.9618 70.1932L71.9611 70.1926L71.9608 70.1923C71.6319 69.8907 71.3036 69.5897 70.9732 69.2929C70.8533 69.1901 70.7203 69.094 70.5893 68.9994L70.5893 68.9994L70.5882 68.9986C70.5498 68.9709 70.5117 68.9433 70.4741 68.9157C70.4408 68.9435 70.4103 68.9712 70.3798 68.9989C70.3493 69.0267 70.3188 69.0544 70.2855 69.0821L71.2949 71.1009C70.4962 70.8901 69.8751 70.6017 69.62 69.8253C69.3094 68.8714 68.8435 68.0284 68.0338 67.4072C67.9246 67.3199 67.7964 67.2517 67.6334 67.1649C67.5479 67.1195 67.4529 67.0689 67.3461 67.0079C67.5679 67.6401 67.7232 68.0949 67.8785 68.5497L67.8233 68.519C66.9457 68.032 66.135 67.5821 66.0372 66.3978C65.9358 65.1401 64.9717 64.4945 63.9339 63.7995C63.8368 63.7345 63.7391 63.6691 63.6413 63.6026C63.8964 64.4789 64.1072 65.1999 64.3179 65.9098C64.0389 65.6686 63.7942 65.4012 63.5553 65.1402C63.234 64.7892 62.9233 64.4498 62.5543 64.2016C62.0962 63.891 61.5458 63.7109 60.9638 63.5205C60.7143 63.4388 60.459 63.3553 60.2028 63.2588L60.2345 63.4508L60.2346 63.4513L60.2347 63.4518L60.2348 63.4526L60.235 63.4539L60.2351 63.4541C60.2609 63.6112 60.2814 63.7358 60.3137 63.9132C59.9666 63.773 59.6405 63.5957 59.319 63.4207C58.5719 63.0144 57.849 62.6211 56.9417 62.7374C57.2285 62.9868 57.5363 63.2082 57.8434 63.429C58.0828 63.6011 58.3217 63.773 58.5501 63.9576C58.9937 64.3236 59.4485 64.49 60.0253 64.4234C60.1697 64.4082 60.3245 64.4607 60.4791 64.5131C60.5501 64.5372 60.621 64.5613 60.6908 64.5787C60.6908 64.6176 60.6881 64.6536 60.6853 64.6897C60.6825 64.7257 60.6797 64.7618 60.6797 64.8006ZM84.8121 67.9543C84.7031 68.0181 84.5995 68.0787 84.4945 68.1393C84.633 68.1116 84.7716 68.0811 84.9102 68.0506L84.9104 68.0505L84.9107 68.0505C85.0493 68.02 85.1878 67.9895 85.3264 67.9618C84.8716 68.5164 84.3059 68.7715 83.5738 68.6052C83.7291 68.5275 83.8844 68.4471 84.0397 68.3667C84.195 68.2862 84.3503 68.2058 84.5055 68.1282C84.2504 68.1393 84.0064 68.1504 83.6293 68.1726C84.1728 67.6956 84.6719 67.4516 85.4706 67.5736C85.2098 67.7216 85.0027 67.8428 84.8124 67.9541L84.8121 67.9543ZM62.0927 65.5654C62.2576 65.5434 62.4225 65.5213 62.5765 65.4883C62.582 65.455 62.5848 65.4217 62.5876 65.3885C62.5904 65.3552 62.5931 65.3219 62.5987 65.2886L61.2343 65.0224C61.2233 65.0557 61.2149 65.089 61.2066 65.1222C61.1983 65.1555 61.19 65.1888 61.1789 65.2221C61.2402 65.2456 61.3014 65.2672 61.3619 65.2885L61.362 65.2885C61.4437 65.3173 61.5239 65.3455 61.6004 65.3774C61.7601 65.4306 61.8914 65.4838 62.0227 65.5371L62.0927 65.5654ZM62.1098 65.5761C61.8995 65.5586 61.6891 65.5154 61.4767 65.4718C60.9761 65.3689 60.4642 65.2637 59.9144 65.4883C60.6686 66.2315 61.9331 66.4089 62.7429 65.8765C62.5827 65.8037 62.4417 65.7357 62.3041 65.6693L62.3035 65.669L62.3029 65.6687L62.3028 65.6687C62.2383 65.6376 62.1745 65.6068 62.1098 65.5761ZM82.753 70.8125C81.8324 70.6239 80.9672 70.6905 80.0909 71.1453C81.0781 71.722 82.3426 71.5557 82.753 70.8125ZM80.8119 69.6811C81.5772 69.3594 82.3759 68.0949 82.3315 67.2741C81.555 67.8953 80.9117 68.5719 80.8119 69.6811ZM87.2897 65.5105C88.0107 66.1205 89.4526 65.9098 90.0738 65.1112C89.0977 65.0557 88.2103 65.1666 87.2897 65.5105ZM67.6678 70.9789C68.4442 71.6777 69.4425 71.7553 70.1191 71.2118C69.3205 70.9012 68.5551 70.7348 67.6678 70.9789ZM61.4118 64.1129C62.399 64.1683 63.0202 64.6342 63.1089 65.4439C62.9607 65.3273 62.8126 65.2097 62.6614 65.0898L62.6613 65.0898L62.6604 65.089L62.6602 65.0888L62.6595 65.0883L62.6594 65.0882L62.6591 65.088L62.6587 65.0877L62.6587 65.0876C62.2786 64.7861 61.8791 64.4693 61.4118 64.1129ZM72.8256 71.4115C72.7701 71.4669 72.7257 71.5113 72.6703 71.5557C71.9049 71.356 71.4945 70.757 71.1285 70.1248C71.1451 70.1026 71.1645 70.0832 71.1839 70.0638C71.2034 70.0444 71.2228 70.025 71.2394 70.0028C71.5056 70.2357 71.7691 70.4714 72.0325 70.7071C72.2959 70.9428 72.5594 71.1785 72.8256 71.4115ZM86.9902 65.1112C86.968 64.4234 87.5559 63.9465 88.4987 63.9021C87.9354 64.355 87.493 64.7089 86.9964 65.1061L86.9918 65.1098L86.9902 65.1112ZM64.7173 68.2502C65.3051 68.9601 65.9152 69.1376 66.7915 68.8159C66.0372 68.6163 65.4272 68.4499 64.7173 68.2502ZM91.8263 63.0702C91.8402 63.0924 91.8541 63.1146 91.8707 63.1368C91.5823 63.7025 91.1719 63.9132 90.4287 63.7135C90.6561 63.5971 90.8807 63.4778 91.1053 63.3586C91.33 63.2394 91.5546 63.1201 91.782 63.0037C91.7986 63.0258 91.8125 63.048 91.8263 63.0702ZM77.573 71.5002C77.5064 71.4447 77.4399 71.3782 77.3733 71.3116C77.7948 70.9123 78.2163 70.5019 78.6489 70.0804C78.6767 70.1026 78.7016 70.1276 78.7266 70.1525L78.7266 70.1525L78.7266 70.1526C78.7516 70.1775 78.7765 70.2024 78.8042 70.2246C78.538 70.7903 78.1276 71.2118 77.573 71.5002ZM66.8137 68.6383L66.8137 68.6384C66.4065 68.5155 65.994 68.3979 65.5872 68.2819L65.5868 68.2818C65.4064 68.2304 65.2272 68.1793 65.05 68.1282L65.1166 67.8953C65.4105 67.9729 65.7071 68.0533 66.0038 68.1337C66.3005 68.2141 66.5973 68.2946 66.8913 68.3722C66.858 68.4609 66.8359 68.5496 66.8137 68.6383ZM68.2889 68.228C68.3333 68.2031 68.3776 68.1781 68.422 68.1504C68.6993 68.6163 68.9766 69.0821 69.2428 69.5591C69.143 69.6034 69.0543 69.6589 68.9656 69.7143L68.9655 69.7144C68.8027 69.4226 68.6357 69.135 68.4696 68.849L68.4693 68.8484L68.4692 68.8482L68.469 68.8479C68.3638 68.6667 68.259 68.4862 68.1558 68.3057C68.2002 68.2779 68.2445 68.253 68.2889 68.228ZM84.6497 66.0096C84.5388 65.2221 84.7385 64.8338 85.4484 64.5565C85.367 64.7045 85.2857 64.8536 85.2019 65.0073L85.2008 65.0092C85.0335 65.3159 84.8563 65.6407 84.6497 66.0096ZM85.8957 64.6102L85.8961 64.6104L85.9293 64.6288L85.9586 64.6453L85.9582 64.6461C85.6921 65.1006 85.426 65.5551 85.1489 66.0096C85.1156 65.9874 85.0796 65.968 85.0435 65.9486C85.0075 65.9292 84.9714 65.9098 84.9381 65.8876C85.2043 65.4217 85.4595 64.967 85.7146 64.5011C85.7719 64.542 85.8352 64.5769 85.8956 64.6102L85.8957 64.6102ZM87.4117 65.211C87.9219 64.734 88.4987 64.6453 89.0644 64.9559C88.776 65.0002 88.507 65.0418 88.238 65.0834C87.9691 65.125 87.7001 65.1666 87.4117 65.211ZM58.3171 63.3697L58.417 63.2366C58.8045 63.4913 59.181 63.7349 59.5574 63.9785L59.5582 63.979L59.5587 63.9793L59.5594 63.9798C59.0573 64.1183 58.7984 63.8514 58.5402 63.5851C58.4676 63.5102 58.395 63.4354 58.3171 63.3697ZM64.6064 65.2886C64.6397 65.2692 64.6729 65.2498 64.7062 65.2332C64.8005 65.4107 64.8948 65.5855 64.9891 65.7603C65.0834 65.9349 65.1776 66.1095 65.2719 66.2869C65.2441 66.3035 65.2136 66.3202 65.1831 66.3368C65.1526 66.3535 65.1221 66.3701 65.0944 66.3867C64.9946 66.215 64.8977 66.0404 64.8007 65.8659L64.8004 65.8654L64.8002 65.865C64.7032 65.6904 64.6063 65.5159 64.5065 65.3441C64.5398 65.3274 64.5731 65.308 64.6063 65.2886L64.6064 65.2886ZM63.9437 60.7604C64.1544 60.4387 64.3319 60.1725 64.5759 59.8065C65.1084 59.751 65.7184 59.9285 66.2065 60.3278C66.658 60.7025 67.0596 61.1355 67.4618 61.569L67.4619 61.5691L67.4619 61.5691L67.4619 61.5691L67.462 61.5692L67.462 61.5692L67.462 61.5692C67.5241 61.6362 67.5862 61.7031 67.6484 61.7698L67.6517 61.7732C67.8497 61.9822 67.9938 62.1344 68.2696 61.8696C68.3916 61.7587 68.5913 61.6811 68.7687 61.67C69.6894 61.6145 70.4104 61.2263 71.1425 60.6495C71.6608 60.2348 72.3053 59.9692 72.9481 59.7043C73.1994 59.6007 73.4505 59.4972 73.6936 59.385C73.8463 59.3127 74.0107 59.2811 74.1824 59.2481C74.2477 59.2356 74.3141 59.2228 74.3813 59.2075C73.9044 58.3313 73.8822 57.9763 74.2704 57.6879C74.6032 57.4439 74.9692 57.4439 75.2909 57.7101C75.6569 57.9985 75.6237 58.3756 75.1689 59.1743C75.2049 59.1853 75.2403 59.1971 75.2751 59.2087C75.3796 59.2436 75.4795 59.2769 75.5793 59.2852C76.7994 59.385 77.8421 59.862 78.7627 60.6828C79.1173 60.9968 79.5736 61.2183 80.0134 61.4318L80.0134 61.4318L80.1381 61.4925C80.5596 61.6922 80.9035 61.6034 81.1364 61.1376C81.2141 60.9823 81.4581 60.8602 81.6467 60.8159C82.0903 60.7234 82.534 60.6481 82.9777 60.5728C83.3326 60.5126 83.6876 60.4523 84.0426 60.3833C84.697 60.2613 84.8856 60.3944 84.8966 61.071C84.941 63.5778 83.1441 65.885 80.7149 66.3508C80.006 66.4855 79.4829 66.8921 78.9602 67.2982C78.665 67.5276 78.37 67.7569 78.0417 67.937C77.9641 67.9814 78.0085 68.3141 78.0639 68.4916C78.1307 68.7013 78.2384 68.8947 78.3448 69.0857C78.3622 69.117 78.3795 69.1481 78.3967 69.1793C78.3117 69.2112 78.2279 69.2509 78.1441 69.2907C77.9654 69.3755 77.7869 69.4602 77.598 69.4677C77.0329 69.501 76.4677 69.4968 75.8978 69.4927C75.7072 69.4913 75.516 69.4899 75.3242 69.4899C75.0164 69.4899 74.7095 69.4917 74.403 69.4935H74.4029H74.4028H74.4027H74.4026H74.4026H74.4025H74.4024H74.4023H74.4022C73.6376 69.4981 72.8754 69.5026 72.1075 69.4788C71.9357 69.471 71.7695 69.3808 71.601 69.2894C71.5301 69.2509 71.4588 69.2122 71.3865 69.1793C71.4219 69.1182 71.4545 69.0542 71.487 68.9904C71.5665 68.8344 71.6455 68.6795 71.7636 68.5693C72.0853 68.2698 72.0409 68.1145 71.6971 67.8483C71.1794 67.4416 70.6815 67.0053 70.1836 66.569L70.1832 66.5686C69.9344 66.3506 69.6855 66.1326 69.4343 65.9182C69.3012 65.8073 69.1459 65.6964 68.9795 65.6188C67.7594 65.0752 66.8165 64.2544 66.2287 63.0232C65.8293 62.1913 65.1638 61.5701 64.3874 61.071C64.2543 60.9601 64.099 60.8602 63.9437 60.7604ZM73.2056 62.2357C73.3387 64.088 73.494 65.8739 74.1928 67.571C74.337 67.9148 74.4923 68.2698 74.947 68.2587C75.4018 68.2476 75.5904 67.9037 75.6791 67.5377C75.9675 66.3841 76.2559 65.2194 76.4888 64.0548C76.569 63.6687 76.5965 63.2779 76.6248 62.876L76.6248 62.8758C76.6396 62.6657 76.6546 62.4527 76.6774 62.2357H73.2056ZM79.2286 61.7587C78.6185 60.8824 78.2192 60.6606 77.3097 60.6606C76.857 60.6639 76.4033 60.6719 75.9493 60.6799L75.9489 60.6799C74.8567 60.6993 73.7621 60.7187 72.6732 60.6717C71.8951 60.6436 71.434 61.067 70.955 61.5068C70.8672 61.5874 70.7788 61.6686 70.6877 61.7476C73.5162 61.7587 76.3446 61.7587 79.2286 61.7587ZM75.912 68.059C77.354 67.7373 78.9402 63.966 78.4411 62.2689H77.0324C76.8771 64.2322 76.7107 66.1734 75.912 68.059ZM71.3199 62.2689C71.3357 62.42 71.3496 62.5675 71.3633 62.7122C71.3978 63.0774 71.4307 63.4247 71.4863 63.7664C71.7082 65.0087 72.0409 66.2177 72.773 67.2715C73.0392 67.6486 73.3498 68.0146 73.9487 68.0257C73.2118 66.3197 73.0445 64.5493 72.8782 62.7899V62.7899L72.8781 62.7886C72.8617 62.6152 72.8454 62.442 72.8284 62.2689H71.3199ZM64.6314 60.8824C65.6417 61.3282 66.1744 62.2073 66.7113 63.0933L66.7117 63.094C66.7759 63.2 66.8401 63.306 66.9053 63.4114C67.1493 63.8107 67.471 64.1879 67.8148 64.5095C68.0089 64.6881 68.2411 64.8287 68.4733 64.9692C68.5728 65.0294 68.6722 65.0897 68.7687 65.1529L68.8908 65.0309L68.8906 65.0303C68.7021 64.3428 68.5136 63.6553 68.314 62.9788C68.2807 62.8568 68.2141 62.7348 68.1365 62.6461C68.0176 62.5292 67.899 62.4119 67.7805 62.2946L67.7804 62.2946C67.2467 61.7667 66.7137 61.2394 66.151 60.7493C65.9395 60.568 65.6765 60.4433 65.4146 60.3191C65.292 60.261 65.1696 60.2029 65.0529 60.1393C64.9489 60.3265 64.8666 60.4703 64.7842 60.6142C64.7348 60.7005 64.6855 60.7868 64.6314 60.8824ZM77.6979 67.3935C79.1953 66.8722 80.1936 63.844 79.8719 62.2468C79.8165 62.2468 79.761 62.244 79.7055 62.2412C79.6501 62.2384 79.5946 62.2357 79.5392 62.2357C78.8594 62.1945 78.8586 62.2011 78.791 62.7616C78.7858 62.8048 78.7802 62.8512 78.7738 62.9012C78.6296 63.9549 78.4078 64.9976 78.1859 66.0292C78.116 66.3478 77.9916 66.6556 77.8623 66.9754C77.8071 67.112 77.751 67.2507 77.6979 67.3935ZM70.8291 62.224L70.8046 62.2232C70.732 62.2206 70.6045 62.2161 70.4769 62.2246C70.3838 62.2304 70.2906 62.2393 70.199 62.248C70.1162 62.2559 70.0346 62.2637 69.9556 62.2689C69.7892 63.966 70.5989 66.8167 71.9965 67.3048C71.6305 65.6964 71.2534 64.0104 70.8541 62.2246C70.8479 62.2246 70.8395 62.2244 70.8291 62.224ZM81.0588 64.8756C82.1236 64.9754 83.7209 63.123 83.5434 61.8031C82.8002 61.6589 81.9905 61.9584 81.7798 62.5352C81.5846 63.0583 81.4278 63.6035 81.267 64.1629L81.267 64.163L81.2669 64.1631L81.2669 64.1632C81.1993 64.3984 81.131 64.636 81.0588 64.8756ZM80.5096 65.8846L80.5097 65.885L80.5099 65.8853C80.5292 65.9323 80.5486 65.9794 80.5707 66.0292C80.7084 65.982 80.8488 65.9418 80.9891 65.9016C81.2444 65.8285 81.4991 65.7555 81.7354 65.6409C83.4658 64.7536 84.3309 63.3005 84.4086 61.3705L84.4104 61.3268C84.4227 61.0436 84.4382 60.6861 83.9427 60.7493L83.7104 60.783L83.71 60.7831C83.0977 60.8718 82.4788 60.9615 81.8685 61.0599C81.447 61.1265 81.3028 61.4481 81.447 61.7698C81.6344 61.731 81.819 61.6913 82.0015 61.652L82.0019 61.652C82.446 61.5564 82.8782 61.4634 83.3105 61.3927C83.8762 61.2928 84.0426 61.4703 83.9871 62.0582C83.854 63.478 82.6006 64.9532 81.2252 65.3525C81.0308 65.407 80.8527 65.5105 80.6757 65.6134L80.6757 65.6134L80.6757 65.6134L80.6757 65.6134L80.6756 65.6134C80.6002 65.6573 80.525 65.701 80.4487 65.7408C80.4708 65.7906 80.4902 65.8376 80.5096 65.8846ZM77.4206 60.3389C76.2781 59.2186 73.139 59.4294 72.4402 60.3389H77.4206ZM68.7687 62.2468C68.68 63.4669 69.5563 65.7408 70.2107 66.0292L70.0111 65.0827L70.0082 65.0692C69.8156 64.1556 69.6169 63.2133 69.4121 62.2468H68.7687ZM81.1364 62.3022C80.3953 62.1411 80.3926 62.1568 80.2925 62.7522L80.2823 62.8125C80.1648 63.5022 80.0084 64.1865 79.8524 64.8691L79.8524 64.8692C79.7877 65.1525 79.723 65.4356 79.6612 65.7186C79.639 65.8184 79.6168 65.9293 79.5724 66.1845C80.6373 64.9754 81.0366 63.6998 81.1364 62.3022ZM77.9086 69.0351C77.4538 68.7911 72.3071 68.8244 72.0187 69.0684C72.4957 69.2902 77.5537 69.257 77.9086 69.0351ZM75.3796 58.3202C75.2781 58.246 75.1904 58.1705 75.114 58.1047C74.9732 57.9835 74.8708 57.8954 74.7918 57.9098C74.6711 57.9339 74.568 58.063 74.4654 58.1913C74.4265 58.24 74.3877 58.2886 74.3481 58.3313C74.3932 58.3729 74.4372 58.4243 74.4811 58.4756L74.4812 58.4756C74.5777 58.5884 74.6739 58.7008 74.7807 58.7084C74.8755 58.723 74.9799 58.6368 75.1223 58.5193C75.1964 58.4582 75.2809 58.3885 75.3796 58.3202ZM73.4607 68.6469C73.4662 68.6247 73.4718 68.5998 73.4773 68.5749L73.4872 68.5309L73.494 68.5027C73.42 68.4805 73.3461 68.4572 73.2721 68.434L73.2721 68.4339C73.0133 68.3525 72.7545 68.271 72.4957 68.2365C72.4487 68.2287 72.3797 68.3478 72.3003 68.4848C72.2672 68.542 72.2322 68.6024 72.1962 68.658C72.6953 68.6469 73.0836 68.6469 73.4607 68.6469ZM76.3557 68.6358H77.6091C77.3651 68.059 77.11 68.0701 76.3557 68.6358ZM22.1582 91.2938H25.7188C25.8741 90.8834 25.7631 90.6949 25.3306 90.5618C24.6318 90.3399 24.4543 89.8852 24.7094 89.1753C24.7936 88.9486 24.8759 88.7211 24.9582 88.4934L24.9582 88.4934L24.9582 88.4933L24.9582 88.4933L24.9582 88.4933L24.9582 88.4932L24.9582 88.4932L24.9583 88.4932L24.9584 88.4929C25.158 87.9406 25.358 87.3877 25.5857 86.8459C25.6522 86.6795 25.9073 86.5021 26.0848 86.491C26.5629 86.4728 27.0377 86.4745 27.511 86.4761C27.9052 86.4775 28.2983 86.4789 28.6915 86.4688C29.0131 86.4688 29.1462 86.5797 29.235 86.8792C29.3851 87.3884 29.5468 87.8937 29.7087 88.3997L29.7087 88.3997L29.7087 88.3998L29.7087 88.3998L29.7087 88.3998L29.7087 88.3999L29.7087 88.3999L29.7087 88.3999L29.7088 88.4001L29.7088 88.4002L29.7089 88.4004L29.7092 88.4014C29.8222 88.7547 29.9353 89.1082 30.0447 89.4637C30.1556 89.8408 30.2776 90.2179 30.4107 90.6283C30.0833 90.6456 29.8028 90.6628 29.5223 90.68L29.5215 90.6801L29.2793 90.6949C29.3015 90.9278 29.3126 91.1053 29.3237 91.2938H34.3484V90.595C33.5656 90.9082 33.4114 90.4159 33.248 89.8947C33.2378 89.862 33.2275 89.8292 33.217 89.7964C31.8638 85.526 30.4995 81.2555 29.1241 76.9851C29.0772 76.8445 28.9534 76.7314 28.83 76.6188C28.7781 76.5714 28.7263 76.5241 28.6804 76.4748C28.6286 76.5303 28.5682 76.582 28.5078 76.6338C28.387 76.7373 28.2663 76.8409 28.2145 76.974C27.6895 78.3568 27.1756 79.7471 26.6622 81.1362C26.286 82.1538 25.9101 83.1708 25.5302 84.1838C24.8647 85.9696 24.1992 87.7444 23.4671 89.4969C23.2896 89.9184 22.8792 90.3067 22.4799 90.5396C22.1249 90.7503 22.0251 90.9167 22.1582 91.2938ZM28.1147 79.7359C28.1923 79.7248 28.27 79.7248 28.3476 79.7248C29.1173 82.1533 29.8919 84.5768 30.6683 87.0054L30.6696 87.0097C31.0452 88.1847 31.4212 89.361 31.7972 90.5396C31.409 90.7392 31.2426 90.6172 31.1317 90.2512C30.5658 88.4525 29.989 86.6593 29.4127 84.8677L29.4121 84.8657C29.1641 84.0947 28.9162 83.324 28.6693 82.5533C28.6196 82.4012 28.5675 82.2491 28.5154 82.0968L28.5153 82.0966L28.5153 82.0964L28.5152 82.0963L28.5152 82.0961L28.5151 82.0959L28.515 82.0957L28.515 82.0956L28.5149 82.0954C28.3696 81.6706 28.2237 81.2442 28.1258 80.8118C28.0725 80.5761 28.0871 80.3248 28.1015 80.0756C28.1081 79.9613 28.1147 79.8475 28.1147 79.7359ZM28.8246 85.5925H26.0405C26.4196 84.5814 26.7796 83.6023 27.1349 82.6357C27.2474 82.3299 27.3594 82.0253 27.4713 81.7214H27.5933C27.8288 82.4734 28.068 83.2216 28.3112 83.9818C28.4804 84.5111 28.6516 85.0462 28.8246 85.5925ZM127.772 91.2635H122.725V90.6313H123.801C123.779 90.5401 123.761 90.4591 123.744 90.3843L123.744 90.3842C123.718 90.268 123.695 90.1668 123.668 90.0656C123.578 89.7826 123.486 89.5013 123.394 89.2204L123.393 89.2173L123.392 89.2151L123.392 89.2144L123.392 89.2136L123.391 89.2109L123.39 89.2096L123.39 89.2079C123.145 88.4582 122.901 87.7122 122.692 86.9487C122.57 86.505 122.348 86.383 121.904 86.4052C121.15 86.4384 120.396 86.4384 119.63 86.4052C119.264 86.3941 119.065 86.4939 118.943 86.8599C118.77 87.3936 118.57 87.9161 118.369 88.4394C118.286 88.6557 118.203 88.8721 118.122 89.0895C117.845 89.8326 118.011 90.2541 118.754 90.5092C119.153 90.6423 119.22 90.8531 119.087 91.2413H115.526C115.382 90.8309 115.515 90.6645 115.892 90.476C116.258 90.2874 116.624 89.9325 116.78 89.5664C117.545 87.7251 118.255 85.8728 118.954 84.0093C119.398 82.828 119.836 81.644 120.274 80.4599C120.712 79.2758 121.15 78.0917 121.594 76.9103C121.646 76.7846 121.776 76.6885 121.907 76.5924C121.972 76.5443 122.037 76.4962 122.093 76.4445C122.137 76.4999 122.189 76.5529 122.241 76.6059C122.344 76.7119 122.448 76.8179 122.492 76.9436L122.494 76.948C123.846 81.1615 125.199 85.3751 126.53 89.5886C126.548 89.648 126.566 89.7082 126.584 89.7683L126.584 89.7688C126.744 90.3146 126.901 90.8466 127.75 90.5869C127.772 90.8419 127.772 91.0194 127.772 91.2633V91.2635ZM121.738 79.6723H121.538C121.531 79.7761 121.514 79.8834 121.496 79.9904C121.459 80.215 121.423 80.4384 121.483 80.6262C122.141 82.7474 122.818 84.8687 123.496 86.9899L123.496 86.9903L123.496 86.9907L123.496 86.9911L123.496 86.9915L123.496 86.9919L123.496 86.9922L123.497 86.9926L123.5 87.0024C123.838 88.0604 124.176 89.1185 124.511 90.1765C124.622 90.5314 124.788 90.6756 125.199 90.4982C124.034 86.8932 122.88 83.2883 121.738 79.6723ZM120.995 81.7243C120.95 81.7243 120.895 81.7243 120.851 81.7132C120.487 82.7091 120.123 83.6981 119.754 84.7016L119.442 85.5511H122.226C121.794 84.232 121.395 82.9793 120.996 81.7267L120.995 81.7243ZM77.0022 91.264V90.5873C76.1462 90.9072 76.0161 90.3893 75.8881 89.8795C75.8652 89.7882 75.8423 89.6972 75.8154 89.6112L75.815 89.6102L75.8147 89.6091L75.8143 89.6081C74.4614 85.372 73.1086 81.1358 71.7446 76.9108C71.6891 76.7444 71.4784 76.4782 71.3674 76.5004C71.19 76.5337 70.957 76.7111 70.8905 76.8886C70.4301 78.1143 69.9754 79.3428 69.5206 80.5713C69.0658 81.7997 68.611 83.0281 68.1507 84.2538C67.5407 85.9065 66.9084 87.5703 66.2651 89.2119C66.0432 89.7665 65.7992 90.3433 65.1781 90.543C64.7344 90.6872 64.7011 90.909 64.8453 91.2861H68.3837C68.4183 90.9974 68.4349 90.859 68.3772 90.7676C68.324 90.6834 68.2077 90.6391 67.9844 90.5541C67.3854 90.31 67.1192 89.8885 67.3077 89.3561C67.6072 88.4799 67.9289 87.6147 68.2727 86.7606C68.3282 86.6275 68.55 86.4611 68.7053 86.4611C69.6038 86.4278 70.5133 86.4278 71.4118 86.4611C71.5671 86.4611 71.7889 86.6607 71.8444 86.816C72.0916 87.5235 72.3191 88.2375 72.5471 88.953C72.6158 89.1686 72.6846 89.3844 72.754 89.6002C72.8538 89.9218 72.9425 90.2435 73.0423 90.6095C72.8808 90.6183 72.7329 90.6253 72.5928 90.6319L72.592 90.632C72.3765 90.6422 72.179 90.6516 71.9775 90.665V91.264H77.0022ZM70.8017 79.6838H70.9792C72.1328 83.2887 73.2864 86.9048 74.4289 90.5097C74.0628 90.6761 73.8743 90.5873 73.7633 90.2435C73.5082 89.4394 73.2525 88.6353 72.9967 87.8312C72.2292 85.4186 71.4618 83.006 70.713 80.5934C70.6607 80.4139 70.7041 80.2042 70.7481 79.9915L70.7482 79.9915C70.7695 79.8886 70.7909 79.785 70.8017 79.6838ZM70.8959 83.7709L70.896 83.7711C71.0862 84.362 71.2799 84.9641 71.4784 85.5848H68.6832C69.1712 84.2538 69.6371 82.9893 70.1029 81.7248C70.1251 81.7248 70.1473 81.722 70.1695 81.7192C70.1917 81.7164 70.2139 81.7137 70.236 81.7137C70.4514 82.3898 70.6701 83.0691 70.8937 83.7638L70.8951 83.7682L70.8959 83.7709ZM92.2074 97.1638V101.567C91.5641 101.723 91.0538 101.678 90.6545 101.024C90.2108 100.303 89.6451 99.6485 89.024 99.0051V101.601H87.9592V97.1971C88.6358 97.0196 89.1238 97.1416 89.5231 97.7628C89.8149 98.2296 90.1545 98.6675 90.5232 99.143L90.5234 99.1432C90.7154 99.3908 90.9153 99.6485 91.1204 99.9258V97.1749C91.5086 97.1638 91.8303 97.1638 92.2074 97.1638ZM71.6403 97.1542V99.7054C71.5849 99.7276 71.5405 99.7386 71.4851 99.7497C71.2301 99.4061 70.9724 99.0597 70.7147 98.7133C70.4566 98.3665 70.1985 98.0196 69.9433 97.6755C69.4663 97.0433 69.2777 96.9767 68.4458 97.2096V101.58H69.5107V98.9844C70.1429 99.6499 70.6975 100.304 71.1523 101.036C71.5516 101.658 72.0508 101.691 72.6608 101.569V97.1542H71.6403ZM63.7944 96.9833C65.1255 96.9722 66.2014 98.0149 66.1903 99.2905C66.1792 100.744 65.1587 101.797 63.7833 101.786C62.4301 101.775 61.4429 100.755 61.4318 99.3681C61.4207 97.9816 62.3968 96.9944 63.7944 96.9833ZM65.0478 99.3459C65.0478 98.6582 64.471 98.0814 63.7833 98.0925C63.1178 98.0925 62.5521 98.6582 62.541 99.3237C62.5299 100.045 63.1067 100.677 63.7833 100.688C64.471 100.677 65.0478 100.067 65.0478 99.3459ZM83.3106 101.787C84.6749 101.82 85.7065 100.778 85.7286 99.3689C85.7508 98.0489 84.7525 97.0173 83.4104 96.9841C82.0461 96.9508 81.0034 97.9269 80.9701 99.2357C80.9369 100.689 81.913 101.754 83.3106 101.787ZM83.3549 98.0822C84.0315 98.0933 84.5862 98.6479 84.5862 99.3245C84.5972 100.068 84.0315 100.678 83.3327 100.667C82.6672 100.667 82.1237 100.09 82.1015 99.3578C82.0793 98.67 82.6672 98.0822 83.3549 98.0822ZM75.4357 101.612V97.1312C75.6843 97.1417 75.9348 97.1324 76.1837 97.1232H76.1838C76.9901 97.0933 77.7806 97.0639 78.4416 97.708C79.1515 98.3957 79.3179 99.2276 79.0184 100.148C78.73 101.036 77.9647 101.579 77.0108 101.612C76.6738 101.627 76.3368 101.622 75.9871 101.618H75.9869C75.8071 101.615 75.624 101.612 75.4357 101.612ZM76.5116 98.1184V100.636C77.0884 100.725 77.5432 100.57 77.8316 100.115C78.1311 99.6491 78.12 99.1167 77.8427 98.6509C77.5543 98.1739 77.0995 98.0075 76.5116 98.1184ZM58.235 97.147H57.148V101.606H59.5661V100.652H58.235V97.147Z" fill="black"/>
</svg>
