<svg width="150" height="150" viewBox="0 0 150 150" fill="none" xmlns="http://www.w3.org/2000/svg">
<g clip-path="url(#clip0_272_5123)">
<path d="M70.6399 62.8245C75.9115 62.8245 81.0107 62.6515 86.11 62.8937C89.9344 63.0667 92.7252 65.1423 93.8278 68.9476C94.9648 72.8567 94.069 76.2469 90.6235 78.703C90.5546 78.7722 90.5202 78.9106 90.4857 79.0144C94.3101 81.5051 95.4127 84.4456 94.3446 89.2887C93.4832 93.2324 90.6924 95.6193 86.1444 95.8961C81.0107 96.2074 75.877 95.9653 70.6055 95.9653C70.6399 84.8607 70.6399 73.8253 70.6399 62.8245ZM77.1518 90.2573C77.6686 90.2573 78.0821 90.2573 78.4611 90.2573C80.4594 90.2573 82.4578 90.3265 84.4562 90.2227C86.7302 90.1189 88.2806 88.4239 88.3151 86.1753C88.3495 84.0305 86.9024 82.197 84.7318 82.0586C82.2511 81.8856 79.7359 82.024 77.1518 82.024C77.1518 84.7915 77.1518 87.386 77.1518 90.2573ZM77.1518 68.4633C77.1518 71.127 77.1518 73.5831 77.1518 76.0739C79.667 76.0739 82.0444 76.1777 84.4562 76.0393C86.5234 75.9355 87.7293 74.4134 87.7638 72.3724C87.7982 70.2276 86.5234 68.6362 84.4562 68.5325C82.0444 68.3595 79.6325 68.4633 77.1518 68.4633Z" fill="black"/>
<path d="M31.6039 78.9108C35.6695 81.2285 36.6687 84.7571 35.7384 88.9775C34.9115 92.8174 32.1896 95.5157 28.2274 95.7579C22.8525 96.0346 17.4776 95.8271 11.9648 95.8271C11.9648 84.9301 11.9648 73.8601 11.9648 62.5825C13.0329 62.5825 14.1699 62.5825 15.3069 62.5825C19.1658 62.6171 23.0247 62.5133 26.8492 62.7555C30.8114 62.9976 33.9468 64.7965 35.1182 68.8786C36.3242 72.9606 35.3594 76.3854 31.6039 78.9108ZM18.4767 90.2575C20.7507 90.2575 22.818 90.2575 24.8853 90.2575C25.1609 90.2575 25.471 90.2575 25.7466 90.2575C27.9862 90.0845 29.4677 88.597 29.5711 86.383C29.6744 84.1344 28.4341 82.3009 26.229 82.0934C23.6794 81.8858 21.0953 82.0588 18.5112 82.0588C18.4767 84.8263 18.4767 87.4554 18.4767 90.2575ZM18.5112 76.0395C21.0608 76.0395 23.5071 76.1433 25.9534 76.0049C27.8828 75.8665 29.1232 74.3098 29.1232 72.338C29.1576 70.2969 27.9173 68.6364 25.9189 68.498C23.4726 68.3251 21.0264 68.4635 18.5112 68.4635C18.5112 71.058 18.5112 73.5141 18.5112 76.0395Z" fill="black"/>
<path d="M39.5625 62.5825C41.7676 62.5825 43.7659 62.5133 45.7643 62.6171C46.2122 62.6516 46.7979 63.2397 47.0047 63.6895C48.9341 67.7023 50.7947 71.7844 52.793 76.1086C54.6191 72.0957 56.4452 68.3596 57.9956 64.5543C58.6503 62.9976 59.4427 62.3057 61.1655 62.5133C62.6814 62.6862 64.1974 62.5479 65.9891 62.5479C64.2664 65.9381 62.6814 69.1207 61.0621 72.2687C59.3738 75.5897 57.0309 78.7723 56.204 82.3009C55.3426 85.8294 55.9973 89.7385 55.9973 93.5093C55.9973 94.3049 55.9973 95.1006 55.9973 95.9654C53.7922 95.9654 51.7594 95.9654 49.5198 95.9654C49.5198 92.0217 49.5888 88.1818 49.4854 84.3419C49.4509 83.0274 49.1408 81.609 48.5551 80.4328C45.9021 75.0016 43.1458 69.6396 40.3894 64.2776C40.1482 63.7932 39.907 63.3089 39.5625 62.5825Z" fill="black"/>
<path d="M114.328 68.5673C114.328 66.4571 114.328 64.6236 114.328 62.7209C122.184 62.7209 130.039 62.7209 137.998 62.7209C137.998 64.589 137.998 66.4225 137.998 68.3943C135.208 68.3943 132.451 68.3943 129.523 68.3943C129.523 77.6308 129.523 86.7636 129.523 96.0001C127.283 96.0001 125.25 96.0001 123.045 96.0001C123.045 86.902 123.045 77.8384 123.045 68.5673C120.082 68.5673 117.326 68.5673 114.328 68.5673Z" fill="black"/>
<path d="M108.472 53H101.926V86.3138H108.472V53Z" fill="black"/>
</g>
<defs>
<clipPath id="clip0_272_5123">
<rect width="126" height="43" fill="white" transform="translate(12 53)"/>
</clipPath>
</defs>
</svg>
