<svg width="150" height="150" viewBox="0 0 150 150" fill="none" xmlns="http://www.w3.org/2000/svg">
<g clip-path="url(#clip0_272_5092)">
<path fill-rule="evenodd" clip-rule="evenodd" d="M48.817 85.3394C45.8153 85.3394 43.391 84.067 41.3899 81.9076C40.9666 81.4449 40.9281 81.0593 41.4284 80.5966C42.0441 80.0568 42.6598 79.4784 43.237 78.8615C43.7758 78.3216 44.1991 78.2445 44.7763 78.7843C45.1331 79.112 45.5357 79.3937 45.9489 79.6826C46.0705 79.7677 46.1931 79.8534 46.3156 79.9411C47.3161 80.7123 48.4321 80.7509 49.6251 80.6352C50.3562 80.5581 50.895 80.1725 51.0489 79.4013C51.2029 78.6687 51.0489 78.0132 50.3562 77.6661C49.6828 77.3384 48.9901 77.0492 48.2974 76.76L48.2973 76.7599C47.6047 76.4708 46.912 76.1816 46.2386 75.8539C44.5839 75.0827 43.0831 74.1572 42.3519 72.345C41.0435 69.0674 42.5443 66.2526 45.469 65.173C48.8939 63.9391 52.088 64.4403 54.9356 66.7539C55.8592 67.4865 55.8592 67.8721 55.1281 68.7204C54.9164 68.9518 54.7144 69.1735 54.5123 69.3952C54.3103 69.6169 54.1083 69.8386 53.8966 70.07C53.1655 70.8797 52.8191 70.8797 51.934 70.2242C50.8565 69.3759 49.6636 68.6818 48.2397 69.1831C47.8164 69.3374 47.2392 69.8001 47.1622 70.1857C47.0853 70.6098 47.4316 71.3039 47.7779 71.5352C48.2823 71.848 48.8465 72.0558 49.4053 72.2614C49.7419 72.3853 50.0765 72.5085 50.3947 72.6534C50.7874 72.8342 51.1946 73.0003 51.6036 73.1671C52.6778 73.6052 53.7638 74.0481 54.6278 74.7742C57.36 77.0106 57.0522 81.4064 54.2045 83.5657C52.5882 84.8381 50.7796 85.378 48.817 85.3394ZM77.6736 75.0073V66.2544C77.6736 65.4061 77.9044 65.059 78.828 65.059C82.8687 65.0976 86.9093 65.0976 90.9499 65.059C91.7966 65.059 92.1044 65.3675 92.1044 66.1772V68.3751C92.1044 69.262 91.7581 69.6476 90.8345 69.6476C89.8615 69.631 88.8884 69.6358 87.9153 69.6405C86.6179 69.6468 85.3205 69.6531 84.0231 69.609C83.138 69.609 82.7532 69.8404 82.7917 70.8043C82.7994 71.0599 82.8037 71.2858 82.8074 71.4857V71.4861V71.4862C82.8225 72.2887 82.8296 72.6693 83.0232 72.8482C83.1979 73.0097 83.5245 73.0068 84.1458 73.0014C84.3716 72.9994 84.6363 72.9971 84.9467 73.0022H89.0643C89.757 73.0022 90.1033 73.2721 90.0649 73.9662C90.0649 74.3395 90.0697 74.666 90.074 74.9513C90.0891 75.9612 90.0965 76.4564 89.8527 76.6955C89.6182 76.9255 89.1511 76.9185 88.2348 76.9048C87.9825 76.901 87.6961 76.8967 87.3711 76.8967H83.9077C82.7917 76.8967 82.7917 76.9738 82.7917 78.9789C82.7917 80.4056 82.8687 80.4827 83.9077 80.4827H91.1039C92.2968 80.4827 92.3738 80.5984 92.4123 81.7166V83.6445C92.4123 84.8013 92.2199 84.9941 91.0654 84.9941H81.8296C81.509 84.9941 81.1883 84.9898 80.8676 84.9855C80.2262 84.977 79.5848 84.9684 78.9435 84.9941C78.0584 85.0327 77.6736 84.6856 77.712 83.7602C77.712 82.3716 77.7027 80.9454 77.6932 79.5002C77.6834 78.0159 77.6736 76.5116 77.6736 75.0073ZM30.54 81.9039H28.5389C26.9611 81.9039 26.8842 81.981 26.3839 83.4848C25.8836 85.0657 25.8451 85.1043 24.1519 85.1043H22.0354C20.9964 85.0657 20.804 84.8729 21.1888 83.9089C21.4791 83.1443 21.7694 82.3779 22.0601 81.6105L22.0609 81.6083C23.1186 78.816 24.1814 76.0101 25.2679 73.2281C25.4603 72.7251 25.6528 72.2239 25.8448 71.7238C26.536 69.9235 27.2221 68.1365 27.8847 66.326C28.1926 65.5548 28.5774 64.9764 29.5394 65.0921C30.1552 65.1692 30.7709 65.1692 31.3481 65.0921C32.4641 64.9378 33.0028 65.4777 33.3877 66.4802C35.0424 70.8759 36.7356 75.2331 38.4288 79.5903C38.5879 80.0114 38.7502 80.4325 38.913 80.8546L38.9132 80.8553C39.3018 81.863 39.6926 82.8764 40.0451 83.9089C40.3914 84.9115 40.199 85.1428 39.1985 85.1428C38.905 85.1428 38.6072 85.1386 38.308 85.1343L38.3077 85.1343H38.3077C37.7048 85.1257 37.0962 85.1171 36.5047 85.1428C35.6581 85.1814 35.1963 84.7572 34.927 83.9861C34.1573 81.9039 34.1573 81.9039 31.9638 81.9039H30.54ZM30.976 77.5208L30.9761 77.5208C31.3028 77.5365 31.6238 77.552 31.9253 77.4696C32.1178 77.431 32.4641 77.0454 32.4256 76.8912C31.9638 75.3488 31.4636 73.845 30.9248 72.3412C30.8863 72.187 30.6554 72.0327 30.5015 72.0327C30.386 72.0327 30.2321 72.2641 30.1552 72.4183C29.8088 73.498 29.4625 74.6162 29.1546 75.7344C28.9063 76.6341 28.7812 77.0871 28.9536 77.3106C29.1286 77.5372 29.6096 77.5275 30.5785 77.5081C30.7113 77.5081 30.8441 77.5145 30.976 77.5208ZM135.627 85.114H136.397C136.782 85.114 137.167 85.114 137.552 85.1525C138.975 85.114 139.129 84.8441 138.591 83.533C137.898 81.7655 137.219 79.9849 136.538 78.199L136.537 78.1964C136.044 76.9053 135.551 75.6113 135.05 74.3174C134.011 71.5411 132.934 68.7263 131.818 65.9886C131.625 65.603 131.048 65.2174 130.586 65.1403C129.953 65.0575 129.299 65.0735 128.655 65.0893C128.399 65.0955 128.144 65.1018 127.892 65.1018C127.2 65.1018 126.853 65.4488 126.623 66.0657C125.776 68.3407 124.929 70.5771 124.083 72.8135L124.083 72.8136C123.352 74.703 122.62 76.5828 121.889 78.4626C121.158 80.3423 120.427 82.2221 119.696 84.1114C119.465 84.7284 119.619 85.114 120.35 85.1525H122.659C124.468 85.1525 124.545 85.0754 125.122 83.3788C125.16 83.2246 125.199 83.1089 125.237 82.9932C125.43 82.2606 125.891 81.875 126.7 81.9136C127.65 81.9393 128.618 81.9307 129.58 81.9221C130.059 81.9178 130.536 81.9136 131.01 81.9136C131.912 81.9136 132.364 81.9136 132.672 82.1243C132.981 82.336 133.145 82.7601 133.472 83.6102C134.011 85.0368 134.088 85.114 135.627 85.114ZM129.047 71.8496H129.393C129.624 72.4666 129.817 73.0835 130.009 73.7005C130.317 74.6644 130.625 75.6284 130.971 76.5924C131.202 77.2093 131.048 77.5178 130.394 77.5178H128.008C127.585 77.5178 127.238 77.3636 127.431 76.8237L129.047 71.8496ZM6.17399 77.8247C6.16971 78.3388 6.16544 78.853 6.16544 79.3671C6.16544 80.9095 6.16544 82.4518 6.12695 83.9942C6.12695 84.6883 6.39633 84.9967 7.12749 84.9967H10.3985C11.1296 84.9967 11.3605 84.6497 11.3605 83.9171C11.3413 83.1459 11.3413 82.3651 11.3413 81.5794C11.3413 80.7938 11.3413 80.0033 11.3221 79.2129C11.2836 78.326 11.553 77.9018 12.515 77.979C13.0025 78.0047 13.4899 77.9961 13.9773 77.9875C14.2211 77.9832 14.4648 77.979 14.7085 77.979C18.4028 77.979 20.5578 76.2824 21.3659 72.6578C22.0586 69.5731 19.6727 65.4858 16.7096 65.2159C14.4876 65.0303 12.2475 65.0452 10.0017 65.0601C8.9803 65.0669 7.95769 65.0737 6.93508 65.0616C6.43481 65.0231 6.20392 65.293 6.20392 65.8328C6.2424 66.604 6.28088 67.3752 6.20392 68.1464C6.12695 68.9947 6.43481 69.3031 7.28142 69.2646C9.47491 69.226 11.7069 69.226 13.9004 69.2646C14.3622 69.3031 14.8624 69.3803 15.2473 69.6116C16.1323 70.19 16.4402 71.3082 16.0939 72.4264C15.786 73.3519 15.0548 73.7374 14.0928 73.7374C13.3231 73.7374 12.5535 73.7417 11.7838 73.746C10.2446 73.7546 8.70527 73.7632 7.16597 73.7374C6.43481 73.6989 6.16544 74.0074 6.16544 74.74C6.19109 75.7682 6.18254 76.7965 6.17399 77.8247ZM68.7135 77.2437C68.7135 77.9749 68.7092 78.7103 68.7049 79.4472V79.4474V79.4475V79.4476C68.6964 80.9256 68.6878 82.4093 68.7135 83.8758C68.7135 84.6856 68.4056 84.994 67.6744 84.994H64.9037C63.7877 84.994 63.6338 84.8398 63.6338 83.7216V71.3827C63.6338 70.4821 63.6338 70.0387 63.4122 69.8205C63.1973 69.6089 62.7741 69.6089 61.9406 69.6089H59.6316C58.785 69.6089 58.4002 69.2233 58.4387 68.375C58.4772 67.5653 58.4772 66.7556 58.4387 65.9844C58.4387 65.3289 58.6696 65.0204 59.3623 65.0204H73.1004C73.7931 65.0204 74.0625 65.3289 74.0625 66.0229C74.024 66.8327 74.024 67.6424 74.0625 68.4136C74.101 69.2233 73.6392 69.5704 72.8696 69.5704H70.1758C69.4707 69.5704 69.1147 69.5704 68.9351 69.7483C68.7519 69.9297 68.7519 70.296 68.7519 71.0356V71.0356C68.7135 73.1176 68.7135 75.1996 68.7135 77.243V77.2437ZM95.2081 66.4491V75.0478V83.8392C95.2081 84.5719 95.4005 85.1117 96.2471 85.1117H107.291C107.984 85.1117 108.292 84.8032 108.292 84.1092C108.254 83.2609 108.254 82.374 108.292 81.5257C108.292 80.6774 107.946 80.3689 107.138 80.3689H101.942C101.128 80.3689 100.724 80.3689 100.524 80.1669C100.326 79.9678 100.326 79.5726 100.326 78.788C100.326 77.4013 100.322 76.0103 100.318 74.6179C100.309 71.8288 100.301 69.034 100.326 66.2563C100.326 65.408 100.095 64.9838 99.1717 65.0609C98.6059 65.0867 98.0229 65.078 97.4457 65.0694C97.1592 65.0652 96.8742 65.0609 96.5934 65.0609C95.362 65.0609 95.2081 65.2152 95.2081 66.4491ZM111.63 72.1219V72.121V72.1207C111.638 70.1542 111.647 68.1935 111.621 66.2157C111.621 65.3288 111.891 64.9818 112.776 65.0589C113.738 65.0975 114.7 65.0975 115.662 65.0589C116.47 65.0204 116.739 65.3674 116.739 66.1386C116.714 67.5023 116.722 68.8832 116.731 70.2584V70.2587V70.2593C116.735 70.9446 116.739 71.6285 116.739 72.308C116.739 73.5933 116.735 74.8787 116.731 76.164C116.722 78.7346 116.714 81.3052 116.739 83.8758C116.739 84.8012 116.393 85.1482 115.508 85.1097C114.942 85.0839 114.359 85.0926 113.782 85.1012H113.782C113.495 85.1054 113.21 85.1097 112.93 85.1097C111.775 85.1097 111.66 84.994 111.66 83.8372C111.621 80.9067 111.621 78.0148 111.621 75.0843C111.621 74.0935 111.626 73.107 111.63 72.1219ZM143.232 85.3478C143.487 85.3421 143.786 85.3354 144.139 85.3413C145.409 85.3207 145.97 85.4095 146.223 85.1711C146.445 84.9618 146.43 84.5001 146.448 83.4904C146.448 82.051 146.505 81.4331 146.226 81.1613C145.944 80.887 145.319 80.9651 143.946 80.907C141.868 80.8298 141.791 80.9455 141.791 83.0277C141.791 85.38 141.819 85.3794 143.232 85.3478Z" fill="black"/>
</g>
<defs>
<clipPath id="clip0_272_5092">
<rect width="150" height="150" fill="white"/>
</clipPath>
</defs>
</svg>
