<svg width="150" height="150" viewBox="0 0 150 150" fill="none" xmlns="http://www.w3.org/2000/svg">
<rect width="150" height="150" fill="white"/>
<g clip-path="url(#clip0_272_5131)">
<path d="M22.4605 75.9942C22.9616 76.0756 23.4626 76.2384 23.9637 76.2222C26.065 76.1896 27.8107 74.5616 28.0208 72.4452C28.1663 70.9148 27.9561 69.4008 27.3581 68.0007C26.2589 65.3795 22.8484 64.1585 20.2461 65.4935C17.2235 67.0238 15.6556 69.5636 15.4939 72.9498C15.2515 77.7199 16.6092 81.8226 20.4885 84.8344C22.509 86.3973 24.8527 86.9183 27.3581 86.4136C30.1382 85.8438 31.9001 84.1018 32.8376 81.4481C32.8699 81.3504 32.8699 81.2202 32.9184 81.1388C33.1932 80.7806 33.4518 80.2108 33.7912 80.1457C34.3731 80.0317 34.4862 80.6667 34.5994 81.1551C35.8602 86.5113 32.8375 91.2814 27.4066 92.5024C22.4282 93.6257 18.4034 91.9326 15.106 88.237C9.57805 82.0342 9.62654 71.4683 15.2515 65.5586C18.3226 62.3351 22.0241 60.6746 26.5499 61.8793C32.3365 63.4259 35.0358 69.4333 32.3042 74.5779C30.607 77.7851 26.8247 79.5433 23.5111 78.6805C21.0058 78.0293 19.1469 75.6686 19.2762 73.1452C19.3086 72.4289 19.5995 71.6637 19.9874 71.0451C20.7633 69.8078 22.218 69.3519 23.4465 69.8078C24.5618 70.2148 25.3699 71.5497 25.3214 72.8522C25.2568 74.2197 24.4001 75.2453 22.9939 75.6035C22.8322 75.6524 22.6544 75.7012 22.4928 75.75C22.4766 75.8314 22.4605 75.9128 22.4605 75.9942Z" fill="black"/>
<path d="M56.5004 83.89C56.6943 84.0854 56.8721 84.297 57.0661 84.4761C57.7611 85.0947 58.4077 85.8436 59.1997 86.2832C61.301 87.4228 63.5962 86.2181 63.8871 83.8249C64.0165 82.7504 63.8548 81.6433 63.8225 80.2921C62.1091 82.1154 60.2665 82.262 58.2945 81.5945C56.7428 81.0735 55.5952 79.9827 54.8678 78.5501C52.9928 74.8382 52.5887 70.8984 53.6071 66.8772C54.3183 64.1909 56.1609 62.628 58.9249 62.4489C59.9917 62.3838 61.0908 62.856 62.3354 63.1002C63.677 61.7815 65.4873 61.114 67.4108 61.2931C67.6533 63.9467 67.8634 66.4702 68.1059 68.9773C68.5746 73.8451 69.0918 78.7129 69.5283 83.5969C69.7869 86.4785 67.6209 89.1485 64.469 89.9462C60.7191 90.9068 57.2924 89.0345 56.371 85.4692C56.2417 84.9808 56.2579 84.4761 56.2094 83.9714C56.3064 83.9551 56.4034 83.9226 56.5004 83.89ZM63.4992 77.15C63.4184 76.3523 63.3214 75.5382 63.2244 74.7405C62.9012 71.8589 62.5779 68.9936 62.2385 66.112C62.1576 65.4445 61.9152 64.8259 61.1555 64.6631C60.3635 64.5003 59.7654 64.8747 59.3936 65.5259C59.1189 66.0143 58.9087 66.5678 58.8118 67.1051C58.4077 69.2052 58.5208 71.3217 58.9087 73.3893C59.2158 74.9847 59.6684 76.5802 60.2665 78.1105C60.6544 79.1036 61.6081 79.4618 62.3678 79.2176C63.0466 79.0059 63.5154 78.1594 63.4992 77.15Z" fill="black"/>
<path d="M47.2543 83.027C46.8018 83.5317 46.4462 84.0038 46.0259 84.3946C44.3126 85.9575 42.3244 86.4784 40.1262 85.6319C37.8309 84.7527 36.8449 82.8642 36.6025 80.5362C36.3277 78.029 37.3137 75.9777 39.1402 74.3334C39.9969 73.5519 40.9828 72.917 41.888 72.217C42.4376 71.7937 43.0356 71.3867 43.5205 70.8983C44.5712 69.8401 44.2802 68.326 42.9225 67.7073C42.082 67.3166 41.2415 67.3817 40.4656 67.9027C39.7221 68.4237 39.4635 69.1563 39.6413 70.0354C39.7867 70.768 39.7382 71.4518 39.221 72.0216C38.6553 72.624 37.9441 72.8356 37.1682 72.5914C36.4085 72.3472 36.0691 71.7286 35.9883 70.996C35.859 69.6773 36.263 68.4725 37.249 67.6259C39.6897 65.5258 42.583 64.6955 45.735 65.2816C47.9009 65.6886 49.194 67.2027 49.6304 69.3517C50.2769 72.5263 50.8265 75.7335 51.4084 78.9081C51.7478 80.7966 52.0873 81.0734 54.0431 80.7966C53.8006 82.3433 53.0409 83.4829 51.667 84.1504C49.9375 84.9644 48.5313 84.362 47.2543 83.027ZM44.7651 72.9659C42.3406 74.4311 40.8697 78.322 41.7749 80.7804C42.0011 81.399 42.4861 82.0014 43.0195 82.4084C43.7145 82.9293 44.6035 82.8805 45.2824 82.327C45.7026 81.9851 46.2199 81.3664 46.1714 80.9432C45.7834 78.3058 45.25 75.6847 44.7651 72.9659Z" fill="black"/>
<path d="M124.662 70.6053C125.971 70.182 128.784 71.2728 129.463 72.5915C129.883 73.4218 129.786 74.2684 129.463 75.0987C128.8 76.7755 128.137 78.4524 127.604 80.2758C127.798 80.1455 128.008 79.999 128.202 79.8688C129.495 78.9896 130.707 77.9803 132.081 77.2476C133.277 76.6127 134.603 76.2057 135.928 75.8964C136.575 75.7499 137.383 75.9452 138.029 76.1894C138.87 76.515 139.193 77.4918 138.886 78.2896C138.579 79.1036 137.69 79.5594 136.833 79.2827C134.506 78.5012 132.534 79.3966 130.545 80.52C130.95 81.2037 131.37 81.8061 131.661 82.4573C132.663 84.6063 132.889 86.9181 132.938 89.2624C132.954 89.7834 132.954 90.2881 132.97 90.8091C133.002 91.7859 133.212 92.6976 134.198 93.2348C134.037 93.3813 133.94 93.5279 133.811 93.593C131.564 94.5535 127.943 94.0325 127.927 90.2881C127.911 88.3182 127.782 86.3483 127.604 84.3784C127.539 83.6783 127.151 82.9946 126.925 82.3108C126.828 82.3271 126.715 82.3434 126.618 82.3434C126.359 82.9294 126.1 83.5155 125.858 84.1016C125.486 84.997 125.163 85.925 124.775 86.8041C124.29 87.9112 123.902 89.0345 124.516 90.2067C122.965 90.8091 120.007 89.7834 119.312 88.4159C118.811 87.4553 119.005 86.4785 119.376 85.518C120.75 82.0829 122.124 78.6477 123.482 75.2126C123.724 74.6103 124.048 74.0242 124.193 73.4055C124.436 72.5101 124.516 71.5821 124.662 70.6053Z" fill="black"/>
<path d="M70.2715 70.9635C70.4493 68.9448 70.7241 67.0074 71.6939 65.2166C73.1971 62.4164 75.5247 60.9675 78.6927 61C81.877 61.0326 84.2369 62.5629 85.5461 65.4283C87.2272 69.075 87.1625 72.852 85.5138 76.4988C84.0914 79.6409 81.1981 81.2038 77.6906 80.927C74.5872 80.6828 71.9687 78.4524 70.9988 75.0824C70.6271 73.7637 70.5139 72.3474 70.2715 70.9635ZM80.9718 70.6542C80.9233 70.6542 80.891 70.6542 80.8425 70.6379C80.8425 69.7425 80.891 68.8471 80.8264 67.968C80.7294 66.633 80.6324 65.2655 80.3414 63.963C80.2283 63.4584 79.6949 62.8723 79.21 62.6281C78.2563 62.1722 77.2542 62.7095 76.9147 63.8979C76.6076 65.005 76.3652 66.1772 76.3652 67.3168C76.3652 70.5565 76.4137 73.7963 76.6076 77.0198C76.6885 78.5013 77.5128 79.2013 78.5473 79.2176C79.5979 79.2339 80.2929 78.5827 80.4707 77.0198C80.7455 74.9034 80.8264 72.7706 80.9718 70.6542Z" fill="black"/>
<path d="M112.573 66.5352C117.034 66.5352 120.251 69.6772 120.445 74.3659C120.574 77.622 119.669 80.6338 117.681 83.2387C115.58 86.0063 112.315 86.9994 109.033 85.9737C106.027 85.0295 103.926 82.2781 103.748 78.9081C103.554 75.0171 104.556 71.5169 107.32 68.6679C108.759 67.2189 110.537 66.5352 112.573 66.5352ZM115.693 70.9145C115.709 69.2702 115.289 68.5539 114.448 68.2934C113.559 68.0167 112.848 68.326 112.234 69.3191C111.927 69.7912 111.636 70.2959 111.474 70.8331C110.585 73.8938 109.68 76.9382 108.888 80.0315C108.645 80.9757 108.662 82.0014 108.71 82.9945C108.759 83.8085 109.357 84.2643 110.149 84.4271C110.892 84.5736 111.523 84.3132 111.878 83.6782C112.331 82.8642 112.783 82.0176 113.074 81.1222C113.786 78.8593 114.432 76.5638 115.03 74.2683C115.353 72.9984 115.531 71.7123 115.693 70.9145Z" fill="black"/>
<path d="M98.0738 63.4911C99.5932 63.1654 101.048 63.084 102.454 63.7353C103.489 64.2074 103.86 65.0702 103.618 66.3889C102.939 70.2473 102.228 74.1058 101.533 77.9479C101.404 78.6642 101.177 79.3805 101.161 80.0969C101.145 80.9923 101.307 81.8877 101.404 82.8482C100.224 83.4994 97.3303 83.1087 96.2958 82.0017C95.5846 81.2365 95.5685 80.276 95.7139 79.3317C95.8756 78.1758 96.0857 77.0362 96.2797 75.8966C96.3281 75.5873 96.3605 75.2616 96.409 74.8058C96.0372 74.9849 95.7786 75.1151 95.5361 75.2291C93.5965 76.1408 91.7538 75.8966 90.0728 74.6104C88.4564 73.3731 87.9877 71.6637 88.311 69.6938C88.5858 68.0984 88.8605 66.5029 89.1676 64.9074C89.3454 63.9632 89.4101 63.0352 88.7474 62.1398C90.2668 61.6514 91.7053 61.456 93.1277 62.0584C94.34 62.5794 94.7441 63.5399 94.4693 65.1028C94.1622 66.9099 93.8066 68.717 93.4672 70.5241C93.4025 70.8497 93.3379 71.159 93.3217 71.4846C93.2732 72.5266 93.9198 73.3243 94.9381 73.4871C95.7624 73.6173 96.7969 73.0313 96.9747 72.1196C97.4434 69.7589 97.8637 67.3983 98.2355 65.0214C98.3001 64.5818 98.1385 64.0934 98.0738 63.4911Z" fill="black"/>
</g>
<defs>
<clipPath id="clip0_272_5131">
<rect width="128" height="33" fill="white" transform="translate(11 61)"/>
</clipPath>
</defs>
</svg>
