<svg width="150" height="150" viewBox="0 0 150 150" fill="none" xmlns="http://www.w3.org/2000/svg">
<g clip-path="url(#clip0_272_5105)">
<path d="M74.8429 65.0944C72.0577 62.6817 68.8451 60.9565 65.2439 59.9967C61.6685 59.0368 58.0543 58.946 54.4272 59.5945C53.0411 57.0133 52.225 49.5937 52.8986 45.5596C57.9248 46.3119 62.6142 47.9074 66.8761 50.9297C68.2751 45.5207 71.0862 41.0196 74.9076 36.9985C78.7161 41.0196 81.5531 45.5077 82.9262 50.9297C87.1622 47.9204 91.8516 46.3119 96.8908 45.5596C96.9426 45.7412 96.9944 45.8579 96.9944 45.9747C97.3571 50.4109 97.0462 54.7692 95.6342 59.0238C95.4788 59.4908 95.3104 59.5816 94.8181 59.5167C87.6027 58.4142 81.1256 60.1134 75.4258 64.7052C75.2962 64.809 75.1667 64.9258 75.0242 65.0295C74.9983 65.0555 74.9465 65.0684 74.8429 65.0944Z" fill="black"/>
<path d="M70.2846 86.5941C69.883 86.3995 69.4944 86.2179 69.041 86.0104C72.9402 78.2016 78.5234 72.0143 86.0368 67.5133C85.0134 67.617 82.0729 68.9531 79.7282 70.6004C77.811 71.9495 75.9456 73.4152 74.2615 75.0237C72.5775 76.6321 71.1525 78.5129 69.6758 80.1733C70.9712 68.8623 82.5003 59.8602 95.014 62.3896C94.8456 63.4792 94.7549 64.5818 94.4959 65.6584C92.5786 73.947 85.6611 80.0695 77.1892 80.9775C75.9974 81.1072 74.7797 81.0813 73.575 81.0813C73.1604 81.0813 72.9143 81.1591 72.72 81.5612C71.9427 83.2345 71.1266 84.8818 70.2846 86.5941Z" fill="black"/>
<path d="M81.0129 105.71C83.2669 107.928 85.1452 110.496 87.5029 112.403C85.8188 112.403 83.9794 112.455 82.1399 112.377C81.2719 112.351 80.5724 111.858 80.0154 111.158C78.6682 109.471 77.308 107.798 75.9219 106.138C75.7405 105.917 75.3649 105.748 75.0669 105.736C73.9529 105.684 72.8388 105.723 71.6341 105.723C71.6341 106.682 71.6341 107.59 71.6341 108.485C71.6341 109.173 71.6341 109.873 71.6211 110.561C71.6211 111.326 71.7636 112.027 72.5668 112.429C70.9346 112.351 69.2505 112.896 67.7608 111.819C66.8929 111.183 66.4006 110.392 66.4006 109.251C66.4265 105.204 66.4136 101.17 66.4006 97.1226C66.4006 96.1497 66.2711 95.1898 65.5586 94.2818C65.8695 94.2818 66.1027 94.2818 66.3229 94.2818C70.4423 94.2818 74.5617 94.2429 78.6941 94.3078C79.834 94.3208 81.0258 94.5153 82.114 94.8785C84.0571 95.5271 85.1711 96.9799 85.482 99.0164C85.8059 101.221 85.1452 103.037 83.3187 104.348C82.6321 104.866 81.8419 105.23 81.0129 105.71ZM71.6859 97.8619C71.6859 99.3017 71.6859 100.729 71.6859 102.233C72.2688 102.233 72.7999 102.246 73.3311 102.233C75.0151 102.207 76.6991 102.246 78.3702 102.117C79.6656 102.026 80.3392 101.17 80.3263 99.9633C80.3133 98.7569 79.6786 97.9397 78.3961 97.8749C76.1939 97.7971 73.9658 97.8619 71.6859 97.8619Z" fill="black"/>
<path d="M66.1271 112.491C64.3006 112.491 62.4222 112.504 60.5568 112.465C60.4014 112.465 60.1811 112.218 60.0905 112.024C59.6371 111.116 59.2096 110.195 58.808 109.261C58.6526 108.911 58.4712 108.781 58.0826 108.781C55.1679 108.794 52.2532 108.794 49.3385 108.781C48.937 108.781 48.7167 108.911 48.5613 109.287C48.1468 110.234 47.7063 111.181 47.2529 112.102C47.1623 112.27 46.9291 112.465 46.7607 112.478C44.9082 112.504 43.0558 112.491 40.9961 112.491C42.3433 111.777 42.6154 110.545 43.1206 109.482C45.2321 104.993 47.3048 100.479 49.3904 95.9784C49.6365 95.4466 49.8956 94.8888 49.2479 94.3311C52.2403 94.3311 55.1161 94.3311 58.0826 94.3311C57.5903 94.8758 57.7587 95.4077 58.0049 95.9525C60.3495 100.998 62.6813 106.057 65.0519 111.103C65.2851 111.596 65.7385 111.998 66.1271 112.491ZM53.7041 98.5856C52.7066 100.687 51.7739 102.633 50.8024 104.656C52.7973 104.656 54.6497 104.656 56.6058 104.656C55.6342 102.607 54.6886 100.661 53.7041 98.5856Z" fill="black"/>
<path d="M108.536 106.642C109.896 107.991 111.58 108.264 113.225 108.588C115.13 108.964 117.06 109.224 119.016 108.874C119.482 108.796 119.948 108.653 120.35 108.432C121.347 107.875 121.347 106.694 120.298 106.266C119.353 105.89 118.316 105.709 117.306 105.527C115.583 105.229 113.847 105.034 112.124 104.723C111.476 104.606 110.842 104.36 110.22 104.113C106.567 102.66 106.748 98.8078 108.691 96.7324C110.142 95.1888 111.995 94.5013 114.028 94.2289C117.176 93.8009 120.259 94.3067 123.342 94.9294C124.094 95.085 124.858 95.111 125.726 95.2018C125.065 96.7064 124.379 98.263 123.692 99.8325C121.024 97.5236 117.915 97.6144 114.767 98.0036C114.275 98.0684 113.756 98.263 113.329 98.5354C112.409 99.0932 112.461 100.183 113.458 100.52C114.547 100.883 115.725 101.026 116.865 101.233C118.744 101.584 120.635 101.908 122.513 102.258C122.85 102.323 123.161 102.479 123.485 102.621C127.54 104.372 126.983 109.042 124.444 110.91C122.98 111.987 121.322 112.454 119.573 112.648C116.14 113.037 112.837 112.35 109.533 111.533C108.834 111.364 108.121 111.299 107.331 111.169C107.707 109.769 108.108 108.264 108.536 106.642Z" fill="black"/>
<path d="M100.099 94.343C102.34 94.343 104.697 94.343 107.146 94.343C106.135 95.0564 106.084 96.0552 106.084 97.054C106.058 99.5445 106.122 102.022 106.058 104.513C106.032 105.576 105.928 106.679 105.63 107.703C105.008 109.922 103.48 111.387 101.342 112.127C98.1167 113.229 94.8523 113.242 91.6267 112.14C88.712 111.141 87.1187 108.975 86.9373 105.926C86.7819 103.151 86.8726 100.349 86.8337 97.5599C86.8207 96.9632 86.8207 96.3406 86.6782 95.7569C86.5617 95.264 86.2378 94.823 86.0176 94.356C88.2198 94.356 90.5774 94.356 92.9739 94.356C92.4169 95.3807 92.3521 96.4963 92.3521 97.6248C92.3651 100.258 92.3521 102.904 92.3521 105.537C92.3521 107.185 93.0776 108.119 94.6709 108.495C96.0441 108.819 97.4172 108.806 98.7515 108.326C99.9562 107.898 100.513 107.094 100.526 105.823C100.539 102.878 100.565 99.9466 100.513 97.0021C100.5 96.1201 100.241 95.238 100.099 94.343Z" fill="black"/>
<path d="M40.6047 94.3188C42.9234 94.3188 45.0738 94.3188 47.0947 94.3188C46.2267 96.1608 45.3459 98.0286 44.465 99.8965C42.7809 103.49 41.1099 107.096 39.4388 110.689C39.1667 111.272 38.9724 111.856 39.5165 112.466C36.5759 112.466 33.7131 112.466 30.7854 112.466C31.2647 111.856 31.1093 111.272 30.8243 110.676C28.4019 105.513 26.0054 100.351 23.5829 95.2009C23.4404 94.9026 23.2073 94.6431 23 94.3448C25.1374 94.3448 27.3137 94.3448 29.5807 94.3448C29.0496 95.0063 29.2439 95.6419 29.5548 96.2905C31.3425 100.052 33.1172 103.814 34.9048 107.588C34.9696 107.718 35.0473 107.848 35.1769 108.042C35.8634 106.616 36.5241 105.267 37.1718 103.905C38.3895 101.323 39.5813 98.7421 40.799 96.1737C41.058 95.5641 41.2135 94.9804 40.6047 94.3188Z" fill="black"/>
<path d="M66.9028 79.4674C60.361 76.9509 55.0627 69.9594 54.8555 62.462C58.9231 60.5682 69.2475 63.2402 72.8487 67.1446C71.3202 68.8698 70.0247 70.7636 69.0143 72.852C68.0039 74.9274 67.3173 77.1325 66.9028 79.4674Z" fill="black"/>
</g>
<defs>
<clipPath id="clip0_272_5105">
<rect width="103.426" height="75.96" fill="white" transform="translate(23 37)"/>
</clipPath>
</defs>
</svg>
