<svg width="37" height="37" viewBox="0 0 37 37" fill="none" xmlns="http://www.w3.org/2000/svg">
<path d="M17.4208 23.125H19.5792L19.8875 24.6667H22.5083L20.6583 14.0292C20.35 12.7958 19.425 12.3333 18.5 12.3333C17.575 12.3333 16.65 12.95 16.4958 14.0292L14.6458 24.6667H17.2667L17.4208 23.125ZM18.5 16.1875L19.1167 20.6583H17.7292L18.5 16.1875ZM6.475 9.25H3.2375C3.54583 7.8625 4.31667 6.475 5.39583 5.39583C7.09167 3.7 9.55833 2.775 12.025 2.92917C13.7208 1.07917 16.0333 0 18.5 0C20.9667 0 23.2792 1.07917 24.975 2.92917C27.4417 2.775 29.9083 3.7 31.6042 5.39583C32.6833 6.475 33.4542 7.8625 33.7625 9.25H30.525C30.2167 8.63333 29.9083 8.01667 29.4458 7.55417C28.2125 6.32083 26.3625 5.70417 24.6667 6.0125L23.7417 6.16667L23.125 5.39583C22.0458 4.00833 20.35 3.08333 18.5 3.08333C16.65 3.08333 15.1083 4.00833 14.0292 5.39583L13.4125 6.32083L12.4875 6.16667C10.7917 5.85833 8.94167 6.32083 7.70833 7.70833C7.09167 8.01667 6.78333 8.63333 6.475 9.25ZM25.1292 12.3333L26.9792 17.7292V12.3333H29.2917V24.6667H27.2875L25.4375 20.0417V24.6667H23.125V12.3333H25.1292ZM6.9375 20.8125C6.9375 19.5792 6.475 18.5 5.55 17.8833C6.0125 17.2667 6.16667 16.65 6.16667 15.8792C6.16667 13.875 4.625 12.3333 2.62083 12.3333H0V24.6667H3.08333C5.24167 24.6667 6.9375 22.9708 6.9375 20.8125ZM2.46667 14.8H2.62083C3.2375 14.8 3.7 15.2625 3.7 15.8792C3.7 16.4958 3.2375 16.9583 2.62083 16.9583H2.46667V14.8ZM3.08333 22.2H2.46667V19.425H3.08333C3.85417 19.425 4.47083 20.0417 4.47083 20.8125C4.47083 21.5833 3.85417 22.2 3.08333 22.2ZM14.6458 16.1875C14.6458 14.0292 12.95 12.3333 10.7917 12.3333H7.70833V24.6667H10.175V20.0417H10.6375L12.025 24.6667H14.6458L12.95 19.2708C12.95 19.2708 12.95 19.2708 12.7958 19.2708C14.0292 18.6542 14.6458 17.4208 14.6458 16.1875ZM10.7917 17.575H10.175V14.8H10.7917C11.5625 14.8 12.1792 15.4167 12.1792 16.1875C12.1792 16.9583 11.5625 17.575 10.7917 17.575ZM33.4542 12.3333H30.8333V24.6667H33.4542C35.4583 24.6667 37 23.125 37 21.1208V15.8792C37 13.875 35.4583 12.3333 33.4542 12.3333ZM34.5333 21.275C34.5333 21.8917 34.0708 22.3542 33.4542 22.3542C33.3 22.3542 33.3 22.3542 33.3 22.3542V14.8H33.4542C34.0708 14.8 34.5333 15.2625 34.5333 15.8792V21.275ZM30.525 27.75H33.7625C33.4542 29.1375 32.6833 30.525 31.6042 31.6042C29.9083 33.3 27.4417 34.225 24.975 34.0708C23.4333 35.9208 20.9667 37 18.5 37C16.0333 37 13.7208 35.9208 12.025 34.0708C9.55833 34.225 7.09167 33.3 5.39583 31.6042C4.31667 30.525 3.54583 29.1375 3.2375 27.75H6.475C6.78333 28.3667 7.09167 28.9833 7.55417 29.4458C8.7875 30.6792 10.6375 31.2958 12.3333 30.9875L13.2583 30.8333L13.875 31.6042C14.9542 33.1458 16.4958 33.9167 18.3458 33.9167C20.1958 33.9167 21.8917 32.9917 22.8167 31.6042L23.4333 30.8333L24.3583 30.9875C26.0542 31.2958 27.9042 30.8333 29.1375 29.4458C29.9083 28.9833 30.2167 28.3667 30.525 27.75Z" fill="black"/>
</svg>
