<svg width="35" height="35" viewBox="0 0 35 35" fill="none" xmlns="http://www.w3.org/2000/svg">
<path d="M16.5958 21.375H18.4042L18.6625 22.6667H20.8583L19.3083 13.7542C19.05 12.7208 18.275 12.3333 17.5 12.3333C16.725 12.3333 15.95 12.85 15.8208 13.7542L14.2708 22.6667H16.4667L16.5958 21.375ZM17.5 15.5625L18.0167 19.3083H16.8542L17.5 15.5625ZM7.425 9.75H4.7125C4.97083 8.5875 5.61667 7.425 6.52083 6.52083C7.94167 5.1 10.0083 4.325 12.075 4.45417C13.4958 2.90417 15.4333 2 17.5 2C19.5667 2 21.5042 2.90417 22.925 4.45417C24.9917 4.325 27.0583 5.1 28.4792 6.52083C29.3833 7.425 30.0292 8.5875 30.2875 9.75H27.575C27.3167 9.23333 27.0583 8.71667 26.6708 8.32917C25.6375 7.29583 24.0875 6.77917 22.6667 7.0375L21.8917 7.16667L21.375 6.52083C20.4708 5.35833 19.05 4.58333 17.5 4.58333C15.95 4.58333 14.6583 5.35833 13.7542 6.52083L13.2375 7.29583L12.4625 7.16667C11.0417 6.90833 9.49167 7.29583 8.45833 8.45833C7.94167 8.71667 7.68333 9.23333 7.425 9.75ZM23.0542 12.3333L24.6042 16.8542V12.3333H26.5417V22.6667H24.8625L23.3125 18.7917V22.6667H21.375V12.3333H23.0542ZM7.8125 19.4375C7.8125 18.4042 7.425 17.5 6.65 16.9833C7.0375 16.4667 7.16667 15.95 7.16667 15.3042C7.16667 13.625 5.875 12.3333 4.19583 12.3333H2V22.6667H4.58333C6.39167 22.6667 7.8125 21.2458 7.8125 19.4375ZM4.06667 14.4H4.19583C4.7125 14.4 5.1 14.7875 5.1 15.3042C5.1 15.8208 4.7125 16.2083 4.19583 16.2083H4.06667V14.4ZM4.58333 20.6H4.06667V18.275H4.58333C5.22917 18.275 5.74583 18.7917 5.74583 19.4375C5.74583 20.0833 5.22917 20.6 4.58333 20.6ZM14.2708 15.5625C14.2708 13.7542 12.85 12.3333 11.0417 12.3333H8.45833V22.6667H10.525V18.7917H10.9125L12.075 22.6667H14.2708L12.85 18.1458C12.85 18.1458 12.85 18.1458 12.7208 18.1458C13.7542 17.6292 14.2708 16.5958 14.2708 15.5625ZM11.0417 16.725H10.525V14.4H11.0417C11.6875 14.4 12.2042 14.9167 12.2042 15.5625C12.2042 16.2083 11.6875 16.725 11.0417 16.725ZM30.0292 12.3333H27.8333V22.6667H30.0292C31.7083 22.6667 33 21.375 33 19.6958V15.3042C33 13.625 31.7083 12.3333 30.0292 12.3333ZM30.9333 19.825C30.9333 20.3417 30.5458 20.7292 30.0292 20.7292C29.9 20.7292 29.9 20.7292 29.9 20.7292V14.4H30.0292C30.5458 14.4 30.9333 14.7875 30.9333 15.3042V19.825ZM27.575 25.25H30.2875C30.0292 26.4125 29.3833 27.575 28.4792 28.4792C27.0583 29.9 24.9917 30.675 22.925 30.5458C21.6333 32.0958 19.5667 33 17.5 33C15.4333 33 13.4958 32.0958 12.075 30.5458C10.0083 30.675 7.94167 29.9 6.52083 28.4792C5.61667 27.575 4.97083 26.4125 4.7125 25.25H7.425C7.68333 25.7667 7.94167 26.2833 8.32917 26.6708C9.3625 27.7042 10.9125 28.2208 12.3333 27.9625L13.1083 27.8333L13.625 28.4792C14.5292 29.7708 15.8208 30.4167 17.3708 30.4167C18.9208 30.4167 20.3417 29.6417 21.1167 28.4792L21.6333 27.8333L22.4083 27.9625C23.8292 28.2208 25.3792 27.8333 26.4125 26.6708C27.0583 26.2833 27.3167 25.7667 27.575 25.25Z" fill="white"/>
</svg>
