<svg width="35" height="35" viewBox="0 0 35 35" fill="none" xmlns="http://www.w3.org/2000/svg">
<g clip-path="url(#clip0_891_859)">
<path d="M10 8.25C10 9.18333 9.18333 10 8.25 10C7.31667 10 6.5 9.18333 6.5 8.25C6.5 7.31667 7.31667 6.5 8.25 6.5C9.18333 6.5 10 7.31667 10 8.25ZM12.9167 6.5C11.9833 6.5 11.1667 7.31667 11.1667 8.25C11.1667 9.18333 11.9833 10 12.9167 10C13.85 10 14.6667 9.18333 14.6667 8.25C14.6667 7.31667 13.85 6.5 12.9167 6.5ZM31 8.83333V12.3333C31 13.0333 30.5333 13.5 29.8333 13.5H5.33333V22.8333C5.33333 24.8167 6.85 26.3333 8.83333 26.3333H18.1667C18.8667 26.3333 19.3333 26.8 19.3333 27.5C19.3333 28.2 18.8667 28.6667 18.1667 28.6667H8.83333C5.56667 28.6667 3 26.1 3 22.8333V8.83333C3 5.56667 5.56667 3 8.83333 3H25.1667C28.4333 3 31 5.56667 31 8.83333ZM28.6667 8.83333C28.6667 6.85 27.15 5.33333 25.1667 5.33333H8.83333C6.85 5.33333 5.33333 6.85 5.33333 8.83333V11.1667H28.6667V8.83333ZM19.3333 17.35V21.3167C19.3333 22.8333 18.1667 24 16.65 24H14.9C14.4333 24 13.9667 23.5333 13.9667 23.0667V15.6C13.9667 15.1333 14.4333 14.6667 14.9 14.6667H16.65C18.1667 14.6667 19.3333 15.8333 19.3333 17.35ZM17.4667 17.35C17.4667 16.8833 17.1167 16.5333 16.65 16.5333C16.1833 16.5333 15.8333 16.5333 15.8333 16.5333V22.1333C15.8333 22.1333 16.1833 22.1333 16.65 22.1333C17.1167 22.1333 17.4667 21.7833 17.4667 21.3167V17.35ZM11.5167 16.0667L12.9167 22.95C13.15 23.5333 12.6833 24 12.2167 24C11.8667 24 11.5167 23.7667 11.4 23.3L11.1667 22.25H8.83333L8.6 23.3C8.6 23.7667 8.25 24 7.78333 24C7.2 24 6.85 23.5333 6.96667 22.95L8.36667 15.95C8.48333 15.3667 9.06667 14.6667 10 14.6667C10.9333 14.6667 11.4 15.25 11.5167 16.0667ZM10.7 20.5L10 16.65L9.3 20.5H10.7ZM28.3167 22.0167L24.8167 21.4333C24.35 21.3167 24 20.9667 24 20.5C24 19.8 24.4667 19.3333 25.1667 19.3333H27.85C28.3167 19.3333 28.6667 19.5667 28.9 19.9167C29.25 20.5 29.95 20.6167 30.5333 20.3833C31.1167 20.0333 31.2333 19.3333 31 18.75C30.4167 17.7 29.25 17 27.9667 17H27.5V15.8333C27.5 15.1333 27.0333 14.6667 26.3333 14.6667C25.6333 14.6667 25.1667 15.1333 25.1667 15.8333V17C23.1833 17 21.6667 18.5167 21.6667 20.5C21.6667 22.1333 22.8333 23.4167 24.35 23.65L27.85 24.2333C28.3167 24.35 28.55 24.7 28.55 25.1667C28.55 25.8667 28.0833 26.3333 27.3833 26.3333H24.7C24.2333 26.3333 23.8833 26.1 23.65 25.75C23.3 25.1667 22.6 25.05 22.0167 25.2833C21.4333 25.6333 21.3167 26.3333 21.55 26.9167C22.1333 27.9667 23.3 28.6667 24.5833 28.6667H25.1667V29.8333C25.1667 30.5333 25.6333 31 26.3333 31C27.0333 31 27.5 30.5333 27.5 29.8333V28.6667C29.4833 28.6667 31 27.15 31 25.1667C31 23.5333 29.8333 22.25 28.3167 22.0167Z" fill="white"/>
</g>
<defs>
<clipPath id="clip0_891_859">
<rect width="28" height="28" fill="white" transform="translate(3 3)"/>
</clipPath>
</defs>
</svg>
