<svg width="33" height="33" viewBox="0 0 33 33" fill="none" xmlns="http://www.w3.org/2000/svg">
<g clip-path="url(#clip0_908_635)">
<path d="M8.25 6.1875C8.25 7.2875 7.2875 8.25 6.1875 8.25C5.0875 8.25 4.125 7.2875 4.125 6.1875C4.125 5.0875 5.0875 4.125 6.1875 4.125C7.2875 4.125 8.25 5.0875 8.25 6.1875ZM11.6875 4.125C10.5875 4.125 9.625 5.0875 9.625 6.1875C9.625 7.2875 10.5875 8.25 11.6875 8.25C12.7875 8.25 13.75 7.2875 13.75 6.1875C13.75 5.0875 12.7875 4.125 11.6875 4.125ZM33 6.875V11C33 11.825 32.45 12.375 31.625 12.375H2.75V23.375C2.75 25.7125 4.5375 27.5 6.875 27.5H17.875C18.7 27.5 19.25 28.05 19.25 28.875C19.25 29.7 18.7 30.25 17.875 30.25H6.875C3.025 30.25 0 27.225 0 23.375V6.875C0 3.025 3.025 0 6.875 0H26.125C29.975 0 33 3.025 33 6.875ZM30.25 6.875C30.25 4.5375 28.4625 2.75 26.125 2.75H6.875C4.5375 2.75 2.75 4.5375 2.75 6.875V9.625H30.25V6.875ZM19.25 16.9125V21.5875C19.25 23.375 17.875 24.75 16.0875 24.75H14.025C13.475 24.75 12.925 24.2 12.925 23.65V14.85C12.925 14.3 13.475 13.75 14.025 13.75H16.0875C17.875 13.75 19.25 15.125 19.25 16.9125ZM17.05 16.9125C17.05 16.3625 16.6375 15.95 16.0875 15.95C15.5375 15.95 15.125 15.95 15.125 15.95V22.55C15.125 22.55 15.5375 22.55 16.0875 22.55C16.6375 22.55 17.05 22.1375 17.05 21.5875V16.9125ZM10.0375 15.4L11.6875 23.5125C11.9625 24.2 11.4125 24.75 10.8625 24.75C10.45 24.75 10.0375 24.475 9.9 23.925L9.625 22.6875H6.875L6.6 23.925C6.6 24.475 6.1875 24.75 5.6375 24.75C4.95 24.75 4.5375 24.2 4.675 23.5125L6.325 15.2625C6.4625 14.575 7.15 13.75 8.25 13.75C9.35 13.75 9.9 14.4375 10.0375 15.4ZM9.075 20.625L8.25 16.0875L7.425 20.625H9.075ZM29.8375 22.4125L25.7125 21.725C25.1625 21.5875 24.75 21.175 24.75 20.625C24.75 19.8 25.3 19.25 26.125 19.25H29.2875C29.8375 19.25 30.25 19.525 30.525 19.9375C30.9375 20.625 31.7625 20.7625 32.45 20.4875C33.1375 20.075 33.275 19.25 33 18.5625C32.3125 17.325 30.9375 16.5 29.425 16.5H28.875V15.125C28.875 14.3 28.325 13.75 27.5 13.75C26.675 13.75 26.125 14.3 26.125 15.125V16.5C23.7875 16.5 22 18.2875 22 20.625C22 22.55 23.375 24.0625 25.1625 24.3375L29.2875 25.025C29.8375 25.1625 30.1125 25.575 30.1125 26.125C30.1125 26.95 29.5625 27.5 28.7375 27.5H25.575C25.025 27.5 24.6125 27.225 24.3375 26.8125C23.925 26.125 23.1 25.9875 22.4125 26.2625C21.725 26.675 21.5875 27.5 21.8625 28.1875C22.55 29.425 23.925 30.25 25.4375 30.25H26.125V31.625C26.125 32.45 26.675 33 27.5 33C28.325 33 28.875 32.45 28.875 31.625V30.25C31.2125 30.25 33 28.4625 33 26.125C33 24.2 31.625 22.6875 29.8375 22.4125Z" fill="#101010"/>
</g>
<defs>
<clipPath id="clip0_908_635">
<rect width="33" height="33" fill="white"/>
</clipPath>
</defs>
</svg>
