<svg width="35" height="35" viewBox="0 0 35 35" fill="none" xmlns="http://www.w3.org/2000/svg">
<g clip-path="url(#clip0_891_872)">
<path d="M17.8748 6.99643C12.6145 7.12145 8.10574 11.3721 7.9805 16.6228C7.85525 19.6232 9.10769 22.4986 11.4873 24.4989C12.364 25.3741 12.9902 26.7493 12.9902 28.2495C12.9902 30.3748 14.6184 32 16.7476 32H19.2524C21.3816 32 23.0098 30.3748 23.0098 28.2495V27.7494C23.0098 26.4992 23.636 25.3741 24.6379 24.4989C26.7671 22.6237 28.0195 19.8733 28.0195 16.9979C28.0195 14.2475 27.0176 11.7471 25.0137 9.87184C23.0098 7.99657 20.5049 6.99643 17.8748 6.99643ZM20.5049 28.2495C20.5049 28.9996 20.0039 29.4996 19.2524 29.4996H16.7476C15.9961 29.4996 15.4951 28.9996 15.4951 28.1244C15.4951 27.7494 15.4951 27.3743 15.3699 26.9993H20.5049C20.5049 27.2493 20.5049 27.4994 20.5049 27.7494V28.2495ZM23.0098 22.6237C22.3835 23.1237 21.8826 23.8738 21.5068 24.4989H19.2524V19.2482C20.7554 18.7481 21.7573 17.3729 21.7573 15.7477C21.7573 14.9976 21.2563 14.4975 20.5049 14.4975C19.7534 14.4975 19.2524 14.9976 19.2524 15.7477C19.2524 16.4978 18.7515 16.9979 18 16.9979C17.2485 16.9979 16.7476 16.4978 16.7476 15.7477C16.7476 14.9976 16.2466 14.4975 15.4951 14.4975C14.7437 14.4975 14.2427 14.9976 14.2427 15.7477C14.2427 17.3729 15.2446 18.7481 16.7476 19.2482V24.4989H14.4932C14.1174 23.7488 13.6165 23.1237 12.9902 22.6237C11.2368 21.1234 10.3601 18.9981 10.3601 16.7478C10.6106 12.8723 13.867 9.62181 17.8748 9.49679H18C20.0039 9.49679 21.8826 10.2469 23.2602 11.6221C24.7632 13.1223 25.5146 14.9976 25.5146 16.9979C25.5146 19.1232 24.5127 21.2485 23.0098 22.6237ZM24.0117 5.12116L25.5146 2.62081C25.8904 1.99572 26.6418 1.8707 27.268 2.24575C27.8943 2.62081 28.0195 3.37091 27.6438 3.996L26.1408 6.49636C25.8904 6.7464 25.5146 6.99643 25.0137 6.99643C24.7632 6.99643 24.5127 6.99643 24.3874 6.87141C23.7612 6.49636 23.636 5.74625 24.0117 5.12116ZM32.2778 10.2469L29.8982 11.3721C29.7729 11.4971 29.5224 11.4971 29.3972 11.4971C28.8962 11.4971 28.5205 11.247 28.27 10.747C28.0195 10.1219 28.27 9.37177 28.8962 9.12173L31.2758 7.99657C31.9021 7.74654 32.6535 7.99657 32.904 8.62166C33.1545 9.24675 32.904 9.99686 32.2778 10.2469ZM8.23098 3.87099C7.85525 3.37091 7.9805 2.49579 8.60671 2.12074C9.23293 1.8707 9.9844 1.99572 10.3601 2.62081L11.8631 5.12116C12.2388 5.74625 12.1135 6.49636 11.4873 6.87141C11.2368 6.99643 10.9863 6.99643 10.8611 6.99643C10.3601 6.99643 9.9844 6.7464 9.73391 6.37134L8.23098 3.87099ZM7.60476 10.872C7.35428 11.247 6.97855 11.4971 6.47757 11.4971C6.35233 11.4971 6.10184 11.4971 5.9766 11.3721L3.72221 10.3719C3.09599 9.99686 2.8455 9.24675 3.09599 8.62166C3.34648 7.99657 4.09794 7.74654 4.72416 7.99657L6.97855 9.12173C7.60476 9.49679 7.85525 10.2469 7.60476 10.872Z" fill="white"/>
</g>
<defs>
<clipPath id="clip0_891_872">
<rect width="35" height="35" fill="white"/>
</clipPath>
</defs>
</svg>
