<svg width="38" height="38" viewBox="0 0 38 38" fill="none" xmlns="http://www.w3.org/2000/svg">
<path d="M18.8418 6.33328C12.1918 6.49161 6.49179 11.8749 6.33346 18.5249C6.17512 22.3249 7.75846 25.9666 10.7668 28.4999C11.8751 29.6083 12.6668 31.3499 12.6668 33.2499C12.6668 35.9416 14.7251 37.9999 17.4168 37.9999H20.5835C23.2751 37.9999 25.3335 35.9416 25.3335 33.2499V32.6166C25.3335 31.0333 26.1251 29.6083 27.3918 28.4999C30.0835 26.1249 31.6668 22.6416 31.6668 18.9999C31.6668 15.5166 30.4001 12.3499 27.8668 9.97495C25.3335 7.59995 22.1668 6.33328 18.8418 6.33328ZM22.1668 33.2499C22.1668 34.1999 21.5335 34.8333 20.5835 34.8333H17.4168C16.4668 34.8333 15.8335 34.1999 15.8335 33.0916C15.8335 32.6166 15.8335 32.1416 15.6751 31.6666H22.1668C22.1668 31.9833 22.1668 32.2999 22.1668 32.6166V33.2499ZM25.3335 26.1249C24.5418 26.7583 23.9085 27.7083 23.4335 28.4999H20.5835V21.8499C22.4835 21.2166 23.7501 19.4749 23.7501 17.4166C23.7501 16.4666 23.1168 15.8333 22.1668 15.8333C21.2168 15.8333 20.5835 16.4666 20.5835 17.4166C20.5835 18.3666 19.9501 18.9999 19.0001 18.9999C18.0501 18.9999 17.4168 18.3666 17.4168 17.4166C17.4168 16.4666 16.7835 15.8333 15.8335 15.8333C14.8835 15.8333 14.2501 16.4666 14.2501 17.4166C14.2501 19.4749 15.5168 21.2166 17.4168 21.8499V28.4999H14.5668C14.0918 27.5499 13.4585 26.7583 12.6668 26.1249C10.4501 24.2249 9.34179 21.5333 9.34179 18.6833C9.65846 13.7749 13.7751 9.65828 18.8418 9.49995H19.0001C21.5335 9.49995 23.9085 10.4499 25.6501 12.1916C27.5501 14.0916 28.5001 16.4666 28.5001 18.9999C28.5001 21.6916 27.2335 24.3833 25.3335 26.1249ZM26.6001 3.95828L28.5001 0.791614C28.9751 -5.25336e-05 29.9251 -0.158386 30.7168 0.316614C31.5085 0.791614 31.6668 1.74161 31.1918 2.53328L29.2918 5.69995C28.9751 6.01661 28.5001 6.33328 27.8668 6.33328C27.5501 6.33328 27.2335 6.33328 27.0751 6.17495C26.2835 5.69995 26.1251 4.74995 26.6001 3.95828ZM37.0501 10.4499L34.0418 11.8749C33.8835 12.0333 33.5668 12.0333 33.4085 12.0333C32.7751 12.0333 32.3001 11.7166 31.9835 11.0833C31.6668 10.2916 31.9835 9.34161 32.7751 9.02495L35.7835 7.59995C36.5751 7.28328 37.5251 7.59995 37.8418 8.39161C38.1585 9.18328 37.8418 10.1333 37.0501 10.4499ZM6.65012 2.37495C6.17512 1.74161 6.33346 0.633281 7.12512 0.158281C7.91679 -0.158386 8.86679 -5.25336e-05 9.34179 0.791614L11.2418 3.95828C11.7168 4.74995 11.5585 5.69995 10.7668 6.17495C10.4501 6.33328 10.1335 6.33328 9.97512 6.33328C9.34179 6.33328 8.86679 6.01661 8.55012 5.54161L6.65012 2.37495ZM5.85846 11.2416C5.54179 11.7166 5.06679 12.0333 4.43346 12.0333C4.27512 12.0333 3.95846 12.0333 3.80012 11.8749L0.950124 10.6083C0.158457 10.1333 -0.15821 9.18328 0.158457 8.39161C0.475124 7.59995 1.42512 7.28328 2.21679 7.59995L5.06679 9.02495C5.85846 9.49995 6.17512 10.4499 5.85846 11.2416Z" fill="white"/>
</svg>
