<svg width="39" height="39" viewBox="0 0 39 39" fill="none" xmlns="http://www.w3.org/2000/svg">
<path d="M14.625 27.625C14.625 27.625 26 29.25 30.875 34.125H32.5C32.931 34.125 33.3443 33.9538 33.6491 33.649C33.9538 33.3443 34.125 32.931 34.125 32.5V22.6476C34.8234 22.4681 35.4422 22.0614 35.884 21.4915C36.3259 20.9217 36.5657 20.2211 36.5657 19.5C36.5657 18.7789 36.3259 18.0783 35.884 17.5085C35.4422 16.9386 34.8234 16.5319 34.125 16.3524V6.5C34.125 6.06902 33.9538 5.6557 33.6491 5.35095C33.3443 5.0462 32.931 4.875 32.5 4.875H30.875C26 9.75 14.625 11.375 14.625 11.375H8.125C7.26305 11.375 6.4364 11.7174 5.8269 12.3269C5.21741 12.9364 4.875 13.763 4.875 14.625V24.375C4.875 25.237 5.21741 26.0636 5.8269 26.6731C6.4364 27.2826 7.26305 27.625 8.125 27.625H9.75L11.375 35.75H14.625V27.625ZM17.875 14.0741C18.9849 13.8369 20.3564 13.5054 21.84 13.0715C24.5668 12.2687 28.0313 11.0061 30.875 9.05775V29.9406C28.0313 27.9939 24.5651 26.7313 21.84 25.9285C20.5311 25.546 19.2086 25.2121 17.875 24.9275V14.0741ZM8.125 14.625H14.625V24.375H8.125V14.625Z" fill="white"/>
</svg>
