<svg width="35" height="35" viewBox="0 0 35 35" fill="none" xmlns="http://www.w3.org/2000/svg">
<g clip-path="url(#clip0_891_893)">
<path d="M23.1268 14.2957C18.7867 14.2957 15.2535 17.8289 15.2535 22.1689C15.2535 26.4879 18.7867 30 23.1268 30C27.4668 30 31 26.4668 31 22.1268C31 17.8078 27.4668 14.2957 23.1268 14.2957ZM23.1268 27.7482C20.026 27.7482 17.5 25.2434 17.5 22.1689C17.5 19.0682 20.026 16.5422 23.1268 16.5422C26.2275 16.5422 28.7535 19.0471 28.7535 22.1215C28.7482 25.2275 26.2275 27.7482 23.1268 27.7482ZM25.0463 22.4537C25.484 22.8914 25.484 23.6033 25.0463 24.0463C24.8248 24.2678 24.54 24.3785 24.25 24.3785C23.96 24.3785 23.6752 24.2678 23.4537 24.0463L22.3305 22.923C22.1195 22.7121 21.9982 22.4273 21.9982 22.1268V19.875C21.9982 19.2527 22.4992 18.7518 23.1215 18.7518C23.7438 18.7518 24.25 19.2527 24.25 19.875V21.6574L25.0463 22.4537ZM31 10.8732V13.125C31 13.7473 30.499 14.2482 29.8768 14.2482C29.2545 14.2482 28.7535 13.742 28.7535 13.125V10.8732C28.7535 9.01172 27.24 7.49824 25.3785 7.49824H9.62676C7.76523 7.49824 6.25176 9.01172 6.25176 10.8732V11.9965H16.3768C16.999 11.9965 17.5 12.5027 17.5 13.1197C17.5 13.7367 16.9937 14.243 16.3768 14.243H6.25176V24.368C6.25176 26.2295 7.76523 27.743 9.62676 27.743H14.125C14.7473 27.743 15.2482 28.2492 15.2482 28.8662C15.2482 29.4832 14.7473 30 14.125 30H9.62676C6.52598 30 4 27.474 4 24.3732V10.8732C4 7.77246 6.52598 5.25176 9.62676 5.25176H10.75V4.12324C10.75 3.50625 11.2563 3 11.8732 3C12.4902 3 12.9965 3.50625 12.9965 4.12324V5.24648H21.9982V4.12324C21.9982 3.50098 22.4992 3 23.1215 3C23.749 3 24.25 3.50625 24.25 4.12324V5.24648H25.3732C28.474 5.25176 31 7.77246 31 10.8732Z" fill="white"/>
</g>
<defs>
<clipPath id="clip0_891_893">
<rect width="35" height="35" fill="white"/>
</clipPath>
</defs>
</svg>
