<svg width="31" height="31" viewBox="0 0 31 31" fill="none" xmlns="http://www.w3.org/2000/svg">
<path d="M21.9604 12.9691C16.9773 12.9691 12.9207 17.0258 12.9207 22.0088C12.9207 26.9676 16.9773 31 21.9604 31C26.9434 31 31 26.9434 31 21.9604C31 17.0016 26.9434 12.9691 21.9604 12.9691ZM21.9604 28.4146C18.4002 28.4146 15.5 25.5387 15.5 22.0088C15.5 18.4486 18.4002 15.5484 21.9604 15.5484C25.5205 15.5484 28.4207 18.4244 28.4207 21.9543C28.4146 25.5205 25.5205 28.4146 21.9604 28.4146ZM24.1643 22.3357C24.6668 22.8383 24.6668 23.6557 24.1643 24.1643C23.91 24.4186 23.583 24.5457 23.25 24.5457C22.917 24.5457 22.59 24.4186 22.3357 24.1643L21.0461 22.8746C20.8039 22.6324 20.6646 22.3055 20.6646 21.9604V19.375C20.6646 18.6605 21.2398 18.0854 21.9543 18.0854C22.6688 18.0854 23.25 18.6605 23.25 19.375V21.4215L24.1643 22.3357ZM31 9.03965V11.625C31 12.3395 30.4248 12.9146 29.7104 12.9146C28.9959 12.9146 28.4207 12.3334 28.4207 11.625V9.03965C28.4207 6.90234 26.683 5.16465 24.5457 5.16465H6.46035C4.32305 5.16465 2.58535 6.90234 2.58535 9.03965V10.3293H14.2104C14.9248 10.3293 15.5 10.9105 15.5 11.6189C15.5 12.3273 14.9187 12.9086 14.2104 12.9086H2.58535V24.5336C2.58535 26.6709 4.32305 28.4086 6.46035 28.4086H11.625C12.3395 28.4086 12.9146 28.9898 12.9146 29.6982C12.9146 30.4066 12.3395 31 11.625 31H6.46035C2.9002 31 0 28.0998 0 24.5396V9.03965C0 5.47949 2.9002 2.58535 6.46035 2.58535H7.75V1.28965C7.75 0.58125 8.33125 0 9.03965 0C9.74805 0 10.3293 0.58125 10.3293 1.28965V2.5793H20.6646V1.28965C20.6646 0.575195 21.2398 0 21.9543 0C22.6748 0 23.25 0.58125 23.25 1.28965V2.5793H24.5396C28.0998 2.58535 31 5.47949 31 9.03965Z" fill="black"/>
</svg>
