<svg width="34" height="34" viewBox="0 0 34 34" fill="none" xmlns="http://www.w3.org/2000/svg">
<g clip-path="url(#clip0_891_883)">
<g clip-path="url(#clip1_891_883)">
<path d="M22.1429 21H7.28571V8.625C7.28571 6.7125 8.77143 5.25 10.7143 5.25H17.5714C18.1429 5.25 18.7143 5.3625 19.2857 5.7C19.8571 6.0375 20.5429 5.8125 20.8857 5.25C21.2286 4.6875 21 4.0125 20.4286 3.675C19.5143 3.225 18.6 3 17.5714 3H10.7143C7.51429 3 5 5.475 5 8.625V24.375C5 27.525 7.51429 30 10.7143 30H17.5714C20.7714 30 23.2857 27.525 23.2857 24.375V22.125C23.2857 21.45 22.8286 21 22.1429 21ZM21 24.375C21 26.2875 19.5143 27.75 17.5714 27.75H10.7143C8.77143 27.75 7.28571 26.2875 7.28571 24.375V23.25H21V24.375ZM11.8571 25.5C11.8571 24.825 12.3143 24.375 13 24.375H15.2857C15.9714 24.375 16.4286 24.825 16.4286 25.5C16.4286 26.175 15.9714 26.625 15.2857 26.625H13C12.3143 26.625 11.8571 26.175 11.8571 25.5ZM29 10.875C29 10.0875 28.5429 9.525 27.8571 9.3V6.375C27.8571 5.8125 27.4 5.3625 26.8286 5.25C26.2571 5.1375 25.6857 5.475 25.5714 6.0375C25.3429 6.9375 24.5429 7.5 23.4 7.5H21C19.0571 7.5 17.5714 8.9625 17.5714 10.875C17.5714 11.6625 17.8 12.3375 18.2571 12.9L20.4286 17.85C20.6571 18.4125 21.2286 18.75 21.8 18.75C22.8286 18.75 23.6286 17.7375 23.1714 16.725L22.1429 14.25H23.4C24.5429 14.25 25.3429 14.8125 25.5714 15.7125C25.6857 16.275 26.2571 16.6125 26.8286 16.5C27.4 16.3875 27.8571 15.9375 27.8571 15.375V12.45C28.5429 12.225 29 11.6625 29 10.875ZM25.5714 12.45C25 12.1125 24.2 12 23.4 12H21C20.3143 12 19.8571 11.55 19.8571 10.875C19.8571 10.2 20.3143 9.75 21 9.75H23.4C24.2 9.75 24.8857 9.6375 25.5714 9.3V12.45Z" fill="white"/>
</g>
</g>
<defs>
<clipPath id="clip0_891_883">
<rect width="34" height="34" fill="white"/>
</clipPath>
<clipPath id="clip1_891_883">
<rect width="24" height="27" fill="white" transform="translate(5 3)"/>
</clipPath>
</defs>
</svg>
