<svg width="27" height="31" viewBox="0 0 27 31" fill="none" xmlns="http://www.w3.org/2000/svg">
<g clip-path="url(#clip0_908_602)">
<path d="M19.2857 20.6667H2.57143V6.45833C2.57143 4.2625 4.24286 2.58333 6.42857 2.58333H14.1429C14.7857 2.58333 15.4286 2.7125 16.0714 3.1C16.7143 3.4875 17.4857 3.22917 17.8714 2.58333C18.2571 1.9375 18 1.1625 17.3571 0.775C16.3286 0.258333 15.3 0 14.1429 0H6.42857C2.82857 0 0 2.84167 0 6.45833V24.5417C0 28.1583 2.82857 31 6.42857 31H14.1429C17.7429 31 20.5714 28.1583 20.5714 24.5417V21.9583C20.5714 21.1833 20.0571 20.6667 19.2857 20.6667ZM18 24.5417C18 26.7375 16.3286 28.4167 14.1429 28.4167H6.42857C4.24286 28.4167 2.57143 26.7375 2.57143 24.5417V23.25H18V24.5417ZM7.71429 25.8333C7.71429 25.0583 8.22857 24.5417 9 24.5417H11.5714C12.3429 24.5417 12.8571 25.0583 12.8571 25.8333C12.8571 26.6083 12.3429 27.125 11.5714 27.125H9C8.22857 27.125 7.71429 26.6083 7.71429 25.8333ZM27 9.04167C27 8.1375 26.4857 7.49167 25.7143 7.23333V3.875C25.7143 3.22917 25.2 2.7125 24.5571 2.58333C23.9143 2.45417 23.2714 2.84167 23.1429 3.4875C22.8857 4.52083 21.9857 5.16667 20.7 5.16667H18C15.8143 5.16667 14.1429 6.84583 14.1429 9.04167C14.1429 9.94583 14.4 10.7208 14.9143 11.3667L17.3571 17.05C17.6143 17.6958 18.2571 18.0833 18.9 18.0833C20.0571 18.0833 20.9571 16.9208 20.4429 15.7583L19.2857 12.9167H20.7C21.9857 12.9167 22.8857 13.5625 23.1429 14.5958C23.2714 15.2417 23.9143 15.6292 24.5571 15.5C25.2 15.3708 25.7143 14.8542 25.7143 14.2083V10.85C26.4857 10.5917 27 9.94583 27 9.04167ZM23.1429 10.85C22.5 10.4625 21.6 10.3333 20.7 10.3333H18C17.2286 10.3333 16.7143 9.81667 16.7143 9.04167C16.7143 8.26667 17.2286 7.75 18 7.75H20.7C21.6 7.75 22.3714 7.62083 23.1429 7.23333V10.85Z" fill="white"/>
</g>
<defs>
<clipPath id="clip0_908_602">
<rect width="27" height="31" fill="white"/>
</clipPath>
</defs>
</svg>
