<svg width="30" height="30" viewBox="0 0 30 30" fill="none" xmlns="http://www.w3.org/2000/svg">
<path d="M9.47345 21.9912C9.47345 21.9912 19.9425 23.5263 24.4292 28.1316H25.9248C26.3214 28.1316 26.7018 27.9698 26.9823 27.682C27.2628 27.3941 27.4204 27.0036 27.4204 26.5965V17.2893C28.0631 17.1196 28.6326 16.7354 29.0393 16.1971C29.446 15.6588 29.6667 14.997 29.6667 14.3158C29.6667 13.6346 29.446 12.9728 29.0393 12.4345C28.6326 11.8962 28.0631 11.5119 27.4204 11.3423V2.03509C27.4204 1.62796 27.2628 1.2375 26.9823 0.949617C26.7018 0.661732 26.3214 0.5 25.9248 0.5H24.4292C19.9425 5.10526 9.47345 6.64035 9.47345 6.64035H3.49115C2.69785 6.64035 1.93704 6.96381 1.37609 7.53958C0.815138 8.11535 0.5 8.89627 0.5 9.71053V18.9211C0.5 19.7353 0.815138 20.5162 1.37609 21.092C1.93704 21.6678 2.69785 21.9912 3.49115 21.9912H4.98673L6.4823 29.6667H9.47345V21.9912ZM12.4646 9.19013C13.4861 8.96601 14.7483 8.65285 16.1138 8.24298C18.6234 7.48465 21.8119 6.29189 24.4292 4.45132V24.1787C21.8119 22.3397 18.6219 21.1469 16.1138 20.3886C14.9092 20.0273 13.692 19.7119 12.4646 19.443V9.19013ZM3.49115 9.71053H9.47345V18.9211H3.49115V9.71053Z" fill="white"/>
</svg>
