<svg width="38" height="27" viewBox="0 0 38 27" fill="none" xmlns="http://www.w3.org/2000/svg">
<path d="M37.2081 4.21568C36.7728 2.55886 35.4852 1.25182 33.847 0.803864C30.8848 2.7747e-07 19 0 19 0C19 0 7.12122 2.7747e-07 4.15304 0.803864C2.52084 1.24568 1.23322 2.55273 0.791919 4.21568C0 7.2225 0 13.5 0 13.5C0 13.5 0 19.7775 0.791919 22.7843C1.22717 24.4411 2.51479 25.7482 4.15304 26.1961C7.12122 27 19 27 19 27C19 27 30.8848 27 33.847 26.1961C35.4792 25.7543 36.7668 24.4473 37.2081 22.7843C38 19.7775 38 13.5 38 13.5C38 13.5 38 7.2225 37.2081 4.21568Z" fill="white"/>
<path d="M15.2036 19.2866L25.0754 13.5L15.2036 7.71341V19.2866Z" fill="#FF0000"/>
</svg>
