<svg width="35" height="35" viewBox="0 0 35 35" fill="none" xmlns="http://www.w3.org/2000/svg">
<g clip-path="url(#clip0_891_971)">
<path d="M33.02 10.461C32.661 9.1008 31.5991 8.02773 30.248 7.65996C27.8051 7 18.0035 7 18.0035 7C18.0035 7 8.20695 7 5.75905 7.65996C4.41295 8.02269 3.35103 9.09576 2.98709 10.461C2.33398 12.9296 2.33398 18.0833 2.33398 18.0833C2.33398 18.0833 2.33398 23.2371 2.98709 25.7056C3.34605 27.0659 4.40797 28.1389 5.75905 28.5067C8.20695 29.1667 18.0035 29.1667 18.0035 29.1667C18.0035 29.1667 27.8051 29.1667 30.248 28.5067C31.5941 28.144 32.656 27.0709 33.02 25.7056C33.6731 23.2371 33.6731 18.0833 33.6731 18.0833C33.6731 18.0833 33.6731 12.9296 33.02 10.461Z" fill="white"/>
<path d="M14.8726 22.8341L23.014 18.0833L14.8726 13.3326V22.8341Z" fill="#181717"/>
</g>
<defs>
<clipPath id="clip0_891_971">
<rect width="35" height="35" fill="white"/>
</clipPath>
</defs>
</svg>
