<svg width="404" height="296" viewBox="0 0 404 296" fill="none" xmlns="http://www.w3.org/2000/svg">
    <path d="M218.477 25.3083L177.27 -15.6658H266.333L229.198 25.0469C226.35 28.1694 221.474 28.2883 218.477 25.3083Z" fill="#D8EA8A"/>
    <path d="M257.508 19.6236L286.97 -15.6658H403.187V165.965C403.187 172.699 394.943 175.956 390.341 171.04L257.787 29.4571C255.225 26.72 255.105 22.5019 257.508 19.6236Z" fill="#D8EA8A"/>
    <path d="M179.958 269.83L239.057 335.18L110.358 327.505L169.246 269.453C172.236 266.505 177.106 266.677 179.958 269.83Z" fill="#D8EA8A"/>
    <path d="M127.494 275.136L80.5378 325.726L-87.3985 315.71L-74.6433 44.8535C-74.3266 38.1285 -65.947 35.3655 -61.5834 40.5473L127.678 265.293C130.11 268.181 130.031 272.404 127.494 275.136Z" fill="#D8EA8A"/>
</svg>
