<svg xmlns="http://www.w3.org/2000/svg" width="27" height="24" viewBox="0 0 27 24" fill="none">
    <path d="M13.561 1.24747L2.89341 11.939C1.68107 13.1542 1 14.8022 1 16.5206C1 18.2389 1.68107 19.8869 2.89341 21.1021C3.49381 21.7038 4.20658 22.1811 4.99103 22.5068C5.77548 22.8324 6.61626 23 7.46535 23C8.31443 23 9.15521 22.8324 9.93966 22.5068C10.7241 22.1811 11.4369 21.7038 12.0373 21.1021L24.7372 8.37518C25.1376 7.97404 25.4552 7.49779 25.6718 6.97364C25.8885 6.44948 26 5.88769 26 5.32034C26 4.75299 25.8885 4.1912 25.6718 3.66705C25.4552 3.1429 25.1376 2.66665 24.7372 2.26551C24.337 1.8643 23.8618 1.54603 23.3388 1.3289C22.8157 1.11176 22.2552 1 21.6891 1C21.1229 1 20.5624 1.11176 20.0394 1.3289C19.5163 1.54603 19.0411 1.8643 18.6409 2.26551L5.94161 14.9932C5.74144 15.1937 5.58265 15.4318 5.47432 15.6939C5.36599 15.956 5.31023 16.2369 5.31023 16.5206C5.31023 16.8042 5.36599 17.0851 5.47432 17.3472C5.58265 17.6093 5.74144 17.8474 5.94161 18.048C6.34577 18.4529 6.89386 18.6804 7.46535 18.6804C8.03683 18.6804 8.58492 18.4529 8.98908 18.048L19.6574 7.35642" stroke="black" stroke-width="1.2" stroke-linecap="round" stroke-linejoin="round"/>
</svg>