<svg xmlns="http://www.w3.org/2000/svg" width="41" height="34" viewBox="0 0 41 34" fill="none"><path d="M40.9127 0.425024L40.9127 8.59224C40.9127 11.3372 40.4628 14.1946 39.5628 17.1645C38.6178 20.1793 37.2679 23.0593 35.5129 25.8042C33.758 28.5941 31.6431 31.0015 29.1681 33.0264L22.0809 28.0991C24.1508 25.1292 25.7483 22.0693 26.8732 18.9194C27.9982 15.8145 28.5607 12.4396 28.5607 8.79474L28.5607 0.425023L40.9127 0.425024ZM19.651 0.425022L19.651 8.59224C19.651 11.3371 19.201 14.1946 18.301 17.1644C17.3561 20.1793 16.0061 23.0592 14.2512 25.8042C12.4962 28.5941 10.3813 31.0015 7.90637 33.0264L0.819115 28.0991C2.88904 25.1292 4.48649 22.0693 5.61145 18.9194C6.73641 15.8145 7.29889 12.4396 7.2989 8.79473L7.2989 0.425021L19.651 0.425022Z" fill="#060606"/></svg>