<svg xmlns="http://www.w3.org/2000/svg" width="135" height="133" viewBox="0 0 135 133" fill="none">
    <path d="M74.4902 42.8086L74.585 43.3691L74.9688 42.9492L103.096 12.1104L86.7295 50.5068L86.5068 51.0312L87.0566 50.8848L127.392 40.1475L92.8643 63.6006L92.3936 63.9209L92.9355 64.0947L132.668 76.8691L90.9453 77.9326L90.377 77.9473L90.7383 78.3867L117.26 110.617L81.583 88.9521L81.0967 88.6572L81.1631 89.2227L86.0488 130.674L67.75 93.1611L67.5 92.6494L67.25 93.1611L48.9502 130.674L53.8369 89.2227L53.9033 88.6572L53.417 88.9521L17.7393 110.617L44.2617 78.3867L44.623 77.9473L44.0547 77.9326L2.33105 76.8691L42.0645 64.0947L42.6064 63.9209L42.1357 63.6006L7.60742 40.1475L47.9434 50.8848L48.4932 51.0312L48.2705 50.5068L31.9033 12.1104L60.0312 42.9492L60.415 43.3691L60.5098 42.8086L67.5 1.65625L74.4902 42.8086Z" stroke="black" stroke-width="0.555556"/>
</svg>