<svg width="131" height="129" viewBox="0 0 131 129" fill="none" xmlns="http://www.w3.org/2000/svg">
<path d="M72.0557 41.5784L72.2273 42.5889L72.918 41.8316L99.2978 12.9096L83.948 48.9201L83.5461 49.863L84.5365 49.5994L122.365 39.5306L89.9832 61.5258L89.1353 62.1018L90.1111 62.4155L127.378 74.3967L88.2451 75.3933L87.2205 75.4194L87.8718 76.2109L112.745 106.438L79.2857 86.1198L78.4096 85.5878L78.5296 86.6057L83.1123 125.482L65.9494 90.2996L65.5 89.3784L65.0506 90.2996L47.8877 125.482L52.4704 86.6057L52.5904 85.5878L51.7143 86.1198L18.2548 106.438L43.1282 76.2109L43.7795 75.4194L42.7549 75.3933L3.62195 74.3967L40.8889 62.4155L41.8647 62.1018L41.0168 61.5258L8.63493 39.5306L46.4635 49.5994L47.4539 49.863L47.052 48.9201L31.7022 12.9096L58.082 41.8316L58.7727 42.5889L58.9443 41.5784L65.5 2.98561L72.0557 41.5784Z" stroke="black"/>
</svg>
