<svg xmlns="http://www.w3.org/2000/svg" xmlns:xlink="http://www.w3.org/1999/xlink">

    <symbol id="sprite-smm-logo"  width="100%" height="100%" viewBox="0 0 43 19" fill="none">
        <path d="M10.9814 8.16242C10.3353 8.16242 9.71815 8.05775 9.12983 7.84841C8.54512 7.63546 8.07229 7.33949 7.71136 6.96051L8.98906 5.43377C9.12983 5.61062 9.32112 5.76763 9.56295 5.90478C9.80838 6.04194 10.0719 6.15022 10.3534 6.22962C10.6385 6.30542 10.9092 6.34332 11.1655 6.34332C11.4362 6.34332 11.6564 6.30362 11.826 6.22421C11.9992 6.1412 12.0859 6.02209 12.0859 5.86689C12.0859 5.73695 12.0209 5.62145 11.891 5.52039C11.761 5.41572 11.5336 5.30744 11.2088 5.19555L10.6891 5.01147C10.0358 4.77687 9.56295 4.48271 9.27059 4.12899C8.98184 3.77528 8.83747 3.38006 8.83747 2.94333C8.83747 2.54269 8.92229 2.17815 9.09193 1.8497C9.26518 1.52125 9.49978 1.23792 9.79575 0.999705C10.0917 0.761489 10.4292 0.579218 10.8082 0.452892C11.1908 0.322956 11.5914 0.257988 12.0101 0.257988C12.6561 0.257988 13.2499 0.362658 13.7913 0.571999C14.3327 0.777731 14.7459 1.05204 15.0311 1.39493L13.7101 2.87836C13.5982 2.72677 13.4466 2.59142 13.2553 2.47231C13.064 2.3532 12.851 2.25936 12.6164 2.19078C12.3818 2.12221 12.1436 2.08792 11.9018 2.08792C11.7213 2.08792 11.5607 2.10957 11.4199 2.15289C11.2828 2.1962 11.1745 2.25756 11.0951 2.33696C11.0193 2.41276 10.9814 2.50299 10.9814 2.60766C10.9814 2.68346 11.0085 2.75203 11.0626 2.81339C11.1168 2.87114 11.2052 2.9307 11.3279 2.99205C11.4542 3.05341 11.6239 3.1238 11.8368 3.2032L12.3782 3.40893C13.0351 3.65798 13.517 3.94492 13.8238 4.26976C14.1306 4.59099 14.2839 4.97899 14.2839 5.43377C14.2839 5.98599 14.1342 6.46603 13.8346 6.87389C13.535 7.28174 13.1344 7.59936 12.6327 7.82675C12.1346 8.05053 11.5842 8.16242 10.9814 8.16242ZM14.8968 8L16.4994 0.420407L18.6217 0.420407L20.3217 5.10893L19.4771 4.94651L23.0395 0.420407L25.1401 0.420407L23.5376 8H21.4261L22.4548 3.30065L22.7688 3.50638L20.2025 6.71147L18.7841 6.71147L17.4739 3.14906L17.8962 3.10575L16.9 8L14.8968 8ZM25.2173 8L26.8198 0.420407L28.9421 0.420407L30.6421 5.10893L29.7975 4.94651L33.3599 0.420407L35.4605 0.420407L33.858 8H31.7465L32.7752 3.30065L33.0892 3.50638L30.523 6.71147L29.1045 6.71147L27.7943 3.14906L28.2166 3.10575L27.2204 8H25.2173ZM3.49487 18.1624C2.8488 18.1624 2.23161 18.0577 1.64329 17.8484C1.05858 17.6355 0.585753 17.3395 0.22482 16.9605L1.50252 15.4338C1.64329 15.6106 1.83458 15.7676 2.07641 15.9048C2.32184 16.0419 2.58532 16.1502 2.86685 16.2296C3.15199 16.3054 3.42269 16.3433 3.67895 16.3433C3.94965 16.3433 4.16982 16.3036 4.33946 16.2242C4.5127 16.1412 4.59933 16.0221 4.59933 15.8669C4.59933 15.737 4.53436 15.6215 4.40442 15.5204C4.27449 15.4157 4.0471 15.3074 3.72226 15.1956L3.20252 15.0115C2.54923 14.7769 2.07641 14.4827 1.78405 14.129C1.4953 13.7753 1.35093 13.3801 1.35093 12.9433C1.35093 12.5427 1.43575 12.1782 1.60539 11.8497C1.77864 11.5213 2.01324 11.2379 2.30921 10.9997C2.60517 10.7615 2.94265 10.5792 3.32162 10.4529C3.70421 10.323 4.10485 10.258 4.52353 10.258C5.1696 10.258 5.76334 10.3627 6.30474 10.572C6.84614 10.7777 7.2594 11.052 7.54454 11.3949L6.22353 12.8784C6.11164 12.7268 5.96005 12.5914 5.76875 12.4723C5.57746 12.3532 5.36451 12.2594 5.1299 12.1908C4.89529 12.1222 4.65708 12.0879 4.41525 12.0879C4.23479 12.0879 4.07417 12.1096 3.93341 12.1529C3.79625 12.1962 3.68797 12.2576 3.60857 12.337C3.53277 12.4128 3.49487 12.503 3.49487 12.6077C3.49487 12.6835 3.52194 12.752 3.57608 12.8134C3.63022 12.8711 3.71865 12.9307 3.84137 12.9921C3.9677 13.0534 4.13733 13.1238 4.35028 13.2032L4.89168 13.4089C5.54858 13.658 6.03043 13.9449 6.33722 14.2698C6.64401 14.591 6.79741 14.979 6.79741 15.4338C6.79741 15.986 6.64762 16.466 6.34805 16.8739C6.04847 17.2817 5.64784 17.5994 5.14614 17.8268C4.64805 18.0505 4.09763 18.1624 3.49487 18.1624ZM8.67717 18L9.85742 12.4128H7.90838L8.33067 10.4204H14.4268L14.0045 12.4128H12.0555L10.8752 18H8.67717ZM17.408 18.1624C16.6789 18.1624 16.0671 18.0289 15.5726 17.7618C15.0782 17.4911 14.7299 17.1031 14.5277 16.5978C14.3256 16.0925 14.3004 15.4843 14.452 14.7733L15.3723 10.4204L17.5596 10.4204L16.6067 14.8924C16.5201 15.2966 16.5562 15.6016 16.715 15.8073C16.8774 16.0131 17.1662 16.1159 17.5812 16.1159C17.9277 16.1159 18.2201 16.0221 18.4583 15.8344C18.7001 15.6431 18.8662 15.3291 18.9564 14.8924L19.9093 10.4204H22.1073L21.187 14.7733C21.039 15.4735 20.7972 16.078 20.4615 16.5869C20.1294 17.0923 19.7071 17.4821 19.1946 17.7564C18.6857 18.0271 18.0902 18.1624 17.408 18.1624ZM22.1402 18L23.7427 10.4204H25.8758C26.6338 10.4204 27.3051 10.5485 27.8898 10.8048C28.4781 11.0611 28.9383 11.4364 29.2704 11.9309C29.6061 12.4218 29.7739 13.0227 29.7739 13.7338C29.7739 14.3437 29.6656 14.9086 29.4491 15.4284C29.2361 15.9481 28.9347 16.4011 28.5449 16.7873C28.1551 17.1699 27.6931 17.4676 27.1589 17.6806C26.6248 17.8935 26.0382 18 25.3994 18H22.1402ZM24.7605 15.9643H25.5185C25.8253 15.9643 26.0978 15.9156 26.336 15.8182C26.5778 15.7171 26.7818 15.5763 26.9478 15.3959C27.1174 15.2118 27.2456 14.9952 27.3322 14.7462C27.4224 14.4935 27.4675 14.2174 27.4675 13.9178C27.4675 13.5894 27.3953 13.3169 27.251 13.1003C27.1102 12.8838 26.9117 12.7232 26.6554 12.6185C26.4028 12.5102 26.1068 12.4561 25.7675 12.4561H25.4968L24.7605 15.9643ZM30.1766 18L31.7791 10.4204H33.9664L32.3638 18H30.1766ZM38.1289 18.1624C37.5622 18.1624 37.0479 18.0758 36.5859 17.9025C36.1275 17.7293 35.7323 17.4857 35.4002 17.1717C35.0718 16.8576 34.8173 16.4895 34.6368 16.0672C34.46 15.6413 34.3716 15.1775 34.3716 14.6758C34.3716 14.0586 34.4871 13.4829 34.7181 12.9487C34.9527 12.4146 35.2757 11.9453 35.6872 11.5411C36.0986 11.1369 36.5751 10.8228 37.1165 10.5991C37.6579 10.3717 38.2372 10.258 38.8543 10.258C39.4246 10.258 39.9408 10.3482 40.4027 10.5287C40.8647 10.7055 41.26 10.9528 41.5884 11.2704C41.9205 11.588 42.1749 11.9598 42.3518 12.3857C42.5323 12.8116 42.6225 13.2718 42.6225 13.7663C42.6225 14.3762 42.5052 14.9465 42.2706 15.4771C42.036 16.0077 41.7129 16.4751 41.3015 16.8793C40.89 17.2799 40.4118 17.594 39.8668 17.8213C39.3254 18.0487 38.7461 18.1624 38.1289 18.1624ZM38.3129 16.1159C38.6125 16.1159 38.8832 16.06 39.125 15.9481C39.3705 15.8326 39.5816 15.6756 39.7585 15.4771C39.9389 15.275 40.0761 15.0403 40.1699 14.7733C40.2674 14.5026 40.3161 14.2138 40.3161 13.907C40.3161 13.5786 40.2494 13.2952 40.1158 13.057C39.9823 12.8152 39.7928 12.6293 39.5473 12.4994C39.3019 12.3694 39.0132 12.3045 38.6811 12.3045C38.3851 12.3045 38.1144 12.3622 37.869 12.4777C37.6236 12.5896 37.4106 12.7466 37.2301 12.9487C37.0533 13.1473 36.9161 13.3801 36.8187 13.6471C36.7248 13.9142 36.6779 14.203 36.6779 14.5134C36.6779 14.8418 36.7447 15.127 36.8782 15.3688C37.0118 15.607 37.2013 15.7911 37.4467 15.921C37.6921 16.051 37.9809 16.1159 38.3129 16.1159Z" fill="currentColor"/>
    </symbol>
    <use xlink:href="#sprite-smm-logo" width="100%" height="100%"/>
    <view id="sprite-smm-logo" viewBox="0 0 43 19"/>


    <symbol id="sprite-growthy-logo" width="100%" height="100%" viewBox="0 0 34 30" fill="none">
        <path fill-rule="evenodd" clip-rule="evenodd" d="M18.2337 4.39322C22.237 5.83104 25.346 9.55019 25.3394 14.3622C25.3394 14.3836 25.3472 14.3969 25.3632 14.4022C25.369 14.4044 25.376 14.4054 25.3839 14.4054L29.0948 14.4028C29.1256 14.4028 29.1406 14.3879 29.1416 14.3574C29.2016 10.0355 27.1264 5.84599 23.7175 3.15999C22.4013 2.12293 20.9897 1.3411 19.4825 0.814595C17.9337 0.273345 16.2839 0.00177897 14.5336 1.02177e-05C6.34581 -0.00958201 -0.264602 6.73592 0.00814763 14.8392C0.213301 20.9398 4.1932 26.023 9.71587 27.9514C11.2269 28.4792 12.8535 28.7708 14.5499 28.7824C14.5773 28.7824 14.5914 28.7685 14.5914 28.7414L14.5976 25.0927C14.5976 25.0794 14.5925 25.0665 14.5832 25.0569C14.5774 25.0509 14.5704 25.0464 14.5626 25.0438C14.5575 25.042 14.5523 25.0409 14.5468 25.0407C13.2508 24.9939 12.0495 24.7774 10.9428 24.3911C9.10221 23.7484 7.52355 22.6361 6.20679 21.0541C2.12702 16.1504 3.43251 8.75089 8.84163 5.39164C11.8273 3.5377 15.201 3.34205 18.1162 4.35176C18.1554 4.36536 18.1946 4.37918 18.2337 4.39322Z" fill="currentColor"/>
        <path fill-rule="evenodd" clip-rule="evenodd" d="M26.1713 29.1116C26.1768 29.1156 26.1832 29.1181 26.1899 29.1191C26.1931 29.1199 26.1965 29.1203 26.1998 29.1203H33.9577C33.9645 29.1203 33.9712 29.1187 33.9773 29.1155C33.981 29.1135 33.9844 29.111 33.9874 29.1079L33.9898 29.1054L33.9923 29.1019C33.9961 29.0963 33.9986 29.0898 33.9994 29.0829C34.0003 29.076 33.9994 29.0691 33.997 29.0626L29.1529 15.8135C29.1499 15.8054 29.1445 15.7985 29.1375 15.7936C29.1321 15.7897 29.1259 15.7873 29.1195 15.7864C29.1161 15.7856 29.1127 15.7852 29.1092 15.7852H21.4542C21.4475 15.7851 21.4408 15.7866 21.4347 15.7897C21.4287 15.7928 21.4235 15.7973 21.4196 15.8028C21.4156 15.8084 21.413 15.8149 21.4121 15.8218C21.4112 15.8285 21.4118 15.8355 21.4141 15.842L26.1561 29.0911C26.1589 29.0993 26.1642 29.1065 26.1713 29.1116ZM12.1712 15.8293C12.1667 15.8294 12.1622 15.8304 12.158 15.8326C12.154 15.8348 12.1505 15.838 12.1478 15.8417C12.1452 15.8456 12.1435 15.8499 12.1429 15.8546C12.1422 15.8592 12.1427 15.864 12.1442 15.8683L16.8845 29.1219C16.8865 29.1276 16.8901 29.1325 16.895 29.136C16.8967 29.1372 16.8984 29.1382 16.9002 29.139C16.9004 29.1391 16.9007 29.1392 16.9009 29.1393C16.9057 29.1413 16.9109 29.1423 16.916 29.1423H24.7036C24.706 29.1422 24.7083 29.1419 24.7106 29.1413C24.7128 29.1406 24.7149 29.1398 24.7169 29.1387C24.7209 29.1364 24.7243 29.1332 24.7269 29.1293C24.7295 29.1253 24.7311 29.1209 24.7316 29.1162C24.7321 29.1115 24.7315 29.1068 24.7298 29.1024L19.8848 15.8488C19.8827 15.8433 19.879 15.8386 19.8742 15.8352C19.8703 15.8325 19.8658 15.8309 19.8612 15.8303L19.8586 15.8297C19.8568 15.8295 19.855 15.8293 19.8533 15.8293H12.1712Z" fill="currentColor"/>
    </symbol>
    <use xlink:href="#sprite-growthy-logo" width="100%" height="100%"/>
    <view id="sprite-growthy-logo" viewBox="0 0 34 30"/>


    <symbol id="sprite-rec-logo" width="100%" height="100%" viewBox="0 0 39 27" fill="none">
        <path fill-rule="evenodd" clip-rule="evenodd" d="M30.8961 1.16022L8.10389 1.16022C4.23915 1.16022 1.10615 4.44635 1.10615 8.5C1.10615 12.5537 4.23914 15.8398 8.10389 15.8398L30.8961 15.8398C34.7609 15.8398 37.8939 12.5536 37.8939 8.5C37.8939 4.44635 34.7609 1.16022 30.8961 1.16022ZM8.10389 0C3.62824 0 0 3.80558 0 8.5C0 13.1944 3.62823 17 8.10389 17L30.8961 17C35.3718 17 39 13.1944 39 8.5C39 3.80558 35.3718 0 30.8961 0L8.10389 0Z" fill="currentColor"/>
        <path d="M8.52049 12.0357L9.42047 4.44054H10.8273L9.92735 12.0357H8.52049ZM4.73437 10.419V9.01933L11.5825 9.01933V10.419L4.73437 10.419ZM5.84124 12.0357L6.74122 4.44054H8.14809L7.24811 12.0357H5.84124ZM5.07575 7.4569V6.05722L11.9342 6.05722V7.4569L5.07575 7.4569Z" fill="currentColor"/>
        <path d="M12.839 12.0357L12.839 4.44054L16.1493 4.44054C16.8113 4.44054 17.3803 4.55266 17.8561 4.7769C18.3389 5.00113 18.7113 5.32664 18.9734 5.75342C19.2354 6.17296 19.3665 6.67207 19.3665 7.25074C19.3665 7.82219 19.2354 8.31768 18.9734 8.73722C18.7113 9.14953 18.3389 9.4678 17.8561 9.69204C17.3803 9.90904 16.8113 10.0175 16.1493 10.0175H13.9769L14.8873 9.11698V12.0357H12.839ZM17.3182 12.0357L15.5183 9.26888L17.701 9.26888L19.5113 12.0357H17.3182ZM14.8873 9.34483L13.9769 8.35747H16.0252C16.4527 8.35747 16.77 8.25981 16.9769 8.06451C17.1906 7.86921 17.2975 7.59795 17.2975 7.25074C17.2975 6.8963 17.1906 6.62143 16.9769 6.42613C16.77 6.23082 16.4527 6.13317 16.0252 6.13317H13.9769L14.8873 5.1458L14.8873 9.34483Z" fill="currentColor"/>
        <path d="M22.3792 7.38095L25.7411 7.38095V8.98678H22.3792V7.38095ZM22.524 10.3756H26.3101L26.3101 12.0357H20.4964L20.4964 4.44054L26.1756 4.44054V6.10062L22.524 6.10062V10.3756Z" fill="currentColor"/>
        <path d="M31.057 12.1876C30.4846 12.1876 29.9535 12.0936 29.4639 11.9055C28.9811 11.7102 28.5605 11.4353 28.2019 11.0809C27.8501 10.7264 27.5743 10.3105 27.3743 9.83309C27.1743 9.34845 27.0743 8.81679 27.0743 8.23811C27.0743 7.65944 27.1743 7.13139 27.3743 6.65398C27.5743 6.16934 27.8501 5.7498 28.2019 5.39536C28.5605 5.04092 28.9811 4.76966 29.4639 4.58159C29.9535 4.38629 30.4846 4.28864 31.057 4.28864C31.7259 4.28864 32.3224 4.41161 32.8466 4.65755C33.3776 4.90348 33.819 5.25792 34.1707 5.72087L32.8673 6.95779C32.6328 6.66845 32.3742 6.44783 32.0914 6.29593C31.8156 6.14402 31.5052 6.06807 31.1604 6.06807C30.8639 6.06807 30.5915 6.11871 30.3432 6.21997C30.0949 6.32124 29.8811 6.46953 29.7018 6.66483C29.5294 6.8529 29.3915 7.08076 29.288 7.3484C29.1915 7.61603 29.1432 7.91261 29.1432 8.23811C29.1432 8.56362 29.1915 8.86019 29.288 9.12783C29.3915 9.39547 29.5294 9.62694 29.7018 9.82224C29.8811 10.0103 30.0949 10.155 30.3432 10.2563C30.5915 10.3575 30.8639 10.4082 31.1604 10.4082C31.5052 10.4082 31.8156 10.3322 32.0914 10.1803C32.3742 10.0284 32.6328 9.80778 32.8673 9.51844L34.1707 10.7554C33.819 11.2111 33.3776 11.5655 32.8466 11.8187C32.3224 12.0646 31.7259 12.1876 31.057 12.1876Z" fill="currentColor"/>
        <path d="M0 26.8654L2.68648 20.1346H4.38184L7.07702 26.8654H5.28603L3.18205 21.0673H3.86019L1.75621 26.8654H0ZM1.46931 25.5577L1.91271 24.1538H4.8861L5.3295 25.5577H1.46931Z" fill="currentColor"/>
        <path d="M10.5231 27C10.042 27 9.59571 26.9167 9.18419 26.75C8.77266 26.5769 8.41621 26.3333 8.11481 26.0192C7.81921 25.7051 7.58737 25.3365 7.41928 24.9135C7.25119 24.484 7.16715 24.0128 7.16715 23.5C7.16715 22.9872 7.25119 22.5192 7.41928 22.0962C7.58737 21.6667 7.82211 21.2949 8.1235 20.9808C8.4249 20.6667 8.78136 20.4263 9.19288 20.2596C9.6102 20.0865 10.0652 20 10.5579 20C11.1317 20 11.6446 20.1058 12.0967 20.3173C12.5488 20.5288 12.9227 20.8333 13.2183 21.2308L12.1228 22.3269C11.9141 22.0769 11.6881 21.891 11.4447 21.7692C11.207 21.641 10.9404 21.5769 10.6448 21.5769C10.384 21.5769 10.1463 21.6218 9.93188 21.7115C9.71742 21.8013 9.53485 21.9327 9.38415 22.1058C9.23345 22.2724 9.11463 22.4744 9.02769 22.7115C8.94655 22.9423 8.90597 23.2051 8.90597 23.5C8.90597 23.7821 8.94655 24.0417 9.02769 24.2788C9.11463 24.516 9.23345 24.7212 9.38415 24.8942C9.53485 25.0609 9.71453 25.1923 9.92319 25.2885C10.1376 25.3782 10.3724 25.4231 10.6274 25.4231C10.8824 25.4231 11.1317 25.3782 11.3751 25.2885C11.6185 25.1923 11.8649 25.0321 12.1141 24.8077L13.0792 26.1442C12.7314 26.4199 12.3286 26.6314 11.8707 26.7788C11.4128 26.9263 10.9636 27 10.5231 27ZM11.5577 25.8942L11.5577 23.3558L13.0792 23.3558L13.0792 26.1442L11.5577 25.8942Z" fill="currentColor"/>
        <path d="M15.7529 22.7404H18.5785V24.1635H15.7529V22.7404ZM15.8746 25.3942H19.0566V26.8654H14.1705L14.1705 20.1346H18.9436V21.6058H15.8746V25.3942Z" fill="currentColor"/>
        <path d="M20.0119 26.8654V20.1346H21.429L24.785 24.6154H24.1155V20.1346H25.8022V26.8654H24.385L21.0291 22.3846H21.6986V26.8654H20.0119Z" fill="currentColor"/>
        <path d="M30.0507 27C29.5696 27 29.1233 26.9167 28.7118 26.75C28.3061 26.5769 27.9525 26.3333 27.6511 26.0192C27.3555 25.7051 27.1237 25.3365 26.9556 24.9135C26.7875 24.484 26.7035 24.0128 26.7035 23.5C26.7035 22.9872 26.7875 22.5192 26.9556 22.0962C27.1237 21.6667 27.3555 21.2949 27.6511 20.9808C27.9525 20.6667 28.3061 20.4263 28.7118 20.2596C29.1233 20.0865 29.5696 20 30.0507 20C30.6129 20 31.1143 20.109 31.5548 20.3269C32.0011 20.5449 32.372 20.859 32.6676 21.2692L31.5722 22.3654C31.3751 22.109 31.1577 21.9135 30.9201 21.7788C30.6883 21.6442 30.4274 21.5769 30.1376 21.5769C29.8884 21.5769 29.6595 21.6218 29.4508 21.7115C29.2421 21.8013 29.0625 21.9327 28.9118 22.1058C28.7669 22.2724 28.6509 22.4744 28.564 22.7115C28.4829 22.9487 28.4423 23.2115 28.4423 23.5C28.4423 23.7885 28.4829 24.0513 28.564 24.2885C28.6509 24.5256 28.7669 24.7308 28.9118 24.9038C29.0625 25.0705 29.2421 25.1987 29.4508 25.2885C29.6595 25.3782 29.8884 25.4231 30.1376 25.4231C30.4274 25.4231 30.6883 25.3558 30.9201 25.2212C31.1577 25.0865 31.3751 24.891 31.5722 24.6346L32.6676 25.7308C32.372 26.1346 32.0011 26.4487 31.5548 26.6731C31.1143 26.891 30.6129 27 30.0507 27Z" fill="currentColor"/>
        <path d="M34.9485 26.8654V24.0192L35.3485 25.1635L32.6272 20.1346L34.4443 20.1346L36.4092 23.7788H35.3572L37.3307 20.1346H39L36.2874 25.1635L36.67 24.0192V26.8654H34.9485Z" fill="currentColor"/>
    </symbol>
    <use xlink:href="#sprite-rec-logo" width="100%" height="100%"/>
    <view id="sprite-rec-logo" viewBox="0 0 39 27"/>



    <symbol id="sprite-ornament-logo" width="100%" height="100%" viewBox="0 0 50 16" fill="none">
        <path d="M6.1543 15.8674L8.49861 9.96135H10.1588L12.5122 15.8674H10.8156L10.4324 14.8018H8.15198L7.77798 15.8674H6.1543ZM8.52598 13.7528H10.0584L9.56587 12.3238L9.31045 11.4895H9.29221C9.18883 11.8419 9.10065 12.12 9.02768 12.3238L8.52598 13.7528Z" fill="currentColor"/>
        <path d="M15.407 15.9995C14.4826 15.9995 13.7407 15.7242 13.1813 15.1735C12.5975 14.5953 12.3056 13.8491 12.3056 12.935C12.3056 11.9823 12.6279 11.2141 13.2725 10.6304C13.838 10.1073 14.583 9.8457 15.5073 9.8457C16.3283 9.8457 16.9881 10.0302 17.4868 10.3991C17.9854 10.7626 18.2895 11.2609 18.3989 11.8942H16.83C16.7692 11.6464 16.6263 11.4454 16.4013 11.2912C16.1823 11.1315 15.9026 11.0517 15.5621 11.0517C15.0391 11.0517 14.6377 11.2252 14.358 11.5721C14.0843 11.919 13.9475 12.3733 13.9475 12.935C13.9475 13.4857 14.0965 13.9373 14.3945 14.2897C14.6924 14.6421 15.0908 14.8183 15.5894 14.8183C15.9908 14.8183 16.3161 14.7165 16.5655 14.5127C16.8209 14.309 16.9668 14.0667 17.0033 13.7858V13.7693H15.781V12.6955H18.4993V15.8674H17.3682L17.277 15.157H17.2587C16.8574 15.7187 16.2401 15.9995 15.407 15.9995Z" fill="currentColor"/>
        <path d="M19.2865 15.8674V9.96135H24.2306V11.1673H20.9011V12.2246H23.7562V13.3645H20.9011V14.6284H24.2853V15.8674H19.2865Z" fill="currentColor"/>
        <path d="M25.0144 15.8674V9.96135H26.6381L28.5719 12.9268L29.0189 13.6784H29.0372C29.025 13.2048 29.0189 12.8992 29.0189 12.7616V9.96135H30.597V15.8674H28.9733L27.0577 12.9433L26.5925 12.1503H26.5743C26.5864 12.6569 26.5925 12.9791 26.5925 13.1167V15.8674H25.0144Z" fill="currentColor"/>
        <path d="M34.446 15.9995C33.4974 15.9995 32.722 15.7132 32.12 15.1405C31.524 14.5623 31.226 13.8271 31.226 12.935C31.226 12.0429 31.521 11.305 32.1109 10.7213C32.7007 10.1376 33.4761 9.8457 34.4369 9.8457C35.1788 9.8457 35.7991 10.0192 36.2978 10.3661C36.8633 10.7516 37.1887 11.294 37.2738 11.9934H35.6593C35.6167 11.7235 35.4859 11.5005 35.267 11.3243C35.0481 11.1481 34.7684 11.06 34.4278 11.06C33.917 11.06 33.5278 11.2334 33.2602 11.5803C32.9987 11.9218 32.868 12.3733 32.868 12.935C32.868 13.4857 33.0109 13.9345 33.2967 14.2814C33.5825 14.6284 33.9626 14.8018 34.4369 14.8018C34.7896 14.8018 35.0785 14.711 35.3035 14.5292C35.5346 14.3475 35.6684 14.1107 35.7049 13.8189H37.3194C37.2708 14.4136 37.0093 14.9175 36.5349 15.3305C36.0241 15.7765 35.3278 15.9995 34.446 15.9995Z" fill="currentColor"/>
        <path d="M39.2553 15.8674V13.6867L37.0478 9.96135H38.8084L39.6476 11.4895L40.0763 12.3898H40.0945C40.2466 12.0594 40.3956 11.7593 40.5415 11.4895L41.3716 9.96135H43.0774L40.8699 13.6867V15.8674H39.2553Z" fill="currentColor"/>
        <path d="M3.11817 4.96597C3.61144 4.96597 3.98727 4.79274 4.24565 4.44628C4.5099 4.09432 4.64203 3.63786 4.64203 3.07692C4.64203 2.51598 4.5099 2.05953 4.24565 1.70757C3.98727 1.35561 3.61144 1.17962 3.11817 1.17962C2.63078 1.17962 2.25201 1.35561 1.98189 1.70757C1.71764 2.05953 1.58551 2.51598 1.58551 3.07692C1.58551 3.63236 1.71764 4.08607 1.98189 4.43803C2.25201 4.78999 2.63078 4.96597 3.11817 4.96597ZM5.37312 5.28769C4.80351 5.86513 4.04893 6.15385 3.10937 6.15385C2.1698 6.15385 1.41522 5.86513 0.845607 5.28769C0.281869 4.71025 0 3.97333 0 3.07692C0 2.18052 0.281869 1.4436 0.845607 0.866158C1.41522 0.288719 2.1698 0 3.10937 0C4.04893 0 4.80351 0.288719 5.37312 0.866158C5.94273 1.4436 6.22754 2.18052 6.22754 3.07692C6.22754 3.97333 5.94273 4.71025 5.37312 5.28769Z" fill="currentColor"/>
        <path d="M6.83594 6.01361V0.115488H9.84841C10.4944 0.115488 11.0229 0.266722 11.4339 0.56919C11.845 0.866158 12.0505 1.28136 12.0505 1.81481C12.0505 2.52973 11.6864 3.00543 10.9583 3.24191V3.26665C11.4868 3.43164 11.7921 3.79185 11.8743 4.34729C11.9096 4.53977 11.9331 4.77899 11.9448 5.06496C11.9624 5.34543 11.983 5.55716 12.0065 5.70014C12.03 5.83763 12.074 5.91737 12.1386 5.93937V6.01361H10.6236C10.5766 5.98611 10.5384 5.90637 10.509 5.77439C10.4856 5.6424 10.465 5.45542 10.4474 5.21345C10.4298 4.97147 10.4092 4.78174 10.3857 4.64426C10.3035 4.08332 9.95411 3.80285 9.33752 3.80285H8.39503V6.01361H6.83594ZM8.39503 2.72221H9.56654C9.8719 2.72221 10.1039 2.65897 10.2624 2.53248C10.421 2.40599 10.5002 2.23001 10.5002 2.00454C10.5002 1.78456 10.4239 1.60858 10.2712 1.47659C10.1185 1.33911 9.89539 1.27036 9.60178 1.27036H8.39503V2.72221Z" fill="currentColor"/>
        <path d="M12.7455 6.01361V0.115488H14.3134L16.1808 3.07692L16.6124 3.82759H16.63C16.6182 3.35464 16.6124 3.04943 16.6124 2.91194V0.115488H18.1362V6.01361H16.5683L14.7186 3.09342L14.2693 2.30151H14.2517C14.2635 2.80745 14.2693 3.12917 14.2693 3.26665V6.01361H12.7455Z" fill="currentColor"/>
        <path d="M18.5587 6.01361L20.8224 0.115488H22.4256L24.6981 6.01361H23.0598L22.6898 4.94947H20.4877L20.1266 6.01361H18.5587ZM20.8489 3.90184H22.3287L21.853 2.47474L21.6064 1.64158H21.5888C21.4889 1.99354 21.4038 2.27126 21.3333 2.47474L20.8489 3.90184Z" fill="currentColor"/>
        <path d="M25.1409 6.01361V0.115488H27.2373L28.0036 2.69746L28.3648 4.04207H28.3824C28.5468 3.39314 28.6643 2.94494 28.7347 2.69746L29.5099 0.115488H31.6239V6.01361H30.1969V3.04393L30.2233 1.8643H30.2057C30.0589 2.45274 29.962 2.81845 29.915 2.96144L29.0078 6.01361H27.7218L26.8233 2.96968L26.5326 1.8643H26.515C26.5326 2.49673 26.5414 2.89269 26.5414 3.05218V6.01361H25.1409Z" fill="currentColor"/>
        <path d="M32.487 6.01361V0.115488H37.2611V1.31986H34.0461V2.37575H36.8031V3.51413H34.0461V4.77624H37.314V6.01361H32.487Z" fill="currentColor"/>
        <path d="M38.018 6.01361V0.115488H39.5859L41.4533 3.07692L41.8849 3.82759H41.9025C41.8908 3.35464 41.8849 3.04943 41.8849 2.91194V0.115488H43.4088V6.01361H41.8409L39.9911 3.09342L39.5419 2.30151H39.5243C39.536 2.80745 39.5419 3.12917 39.5419 3.26665V6.01361H38.018Z" fill="currentColor"/>
        <path d="M45.8219 6.01361V1.35286H43.9898V0.115488H49.2308V1.35286H47.381V6.01361H45.8219Z" fill="currentColor"/>
    </symbol>
    <use xlink:href="#sprite-ornament-logo" width="100%" height="100%"/>
    <view id="sprite-ornament-logo" viewBox="0 0 50 16"/>


    <symbol id="sprite-tme-logo" width="100%" height="100%" viewBox="0 0 38 11" fill="none">
        <path d="M5.89764 8.60256C6.01991 8.60256 6.11903 8.70279 6.11903 8.82641V10.6508C6.11903 10.7744 6.01991 10.8746 5.89764 10.8746H4.7708C3.81 10.8746 3.06099 10.6396 2.52377 10.1695C1.98654 9.68898 1.71793 8.91073 1.71793 7.83476V4.57998C1.71793 4.45635 1.61882 4.35612 1.49655 4.35612H0.221383C0.0991167 4.35612 0 4.2559 0 4.13228V2.26467C0 2.19088 0.059165 2.13105 0.132149 2.13105C1.00795 2.13105 1.71793 1.41316 1.71793 0.527598V0.163927C1.71793 0.0733928 1.79052 0 1.88005 0H4.1465C4.26877 0 4.36789 0.100221 4.36789 0.22385V1.9072C4.36789 2.03083 4.467 2.13105 4.58927 2.13105H5.88215C6.00441 2.13105 6.10353 2.23127 6.10353 2.3549V4.13228C6.10353 4.2559 6.00441 4.35612 5.88215 4.35612H4.58927C4.467 4.35612 4.36789 4.45635 4.36789 4.57998V7.8661C4.36789 8.12725 4.42988 8.31529 4.55385 8.4302C4.67782 8.54511 4.88445 8.60256 5.17372 8.60256H5.89764Z" fill="currentColor"/>
        <path d="M9.55728 11C9.09237 11 8.71012 10.8642 8.41051 10.5926C8.12124 10.3105 7.9766 9.96581 7.9766 9.5584C7.9766 9.14055 8.12124 8.7906 8.41051 8.50855C8.71012 8.2265 9.09237 8.08547 9.55728 8.08547C10.0119 8.08547 10.3838 8.2265 10.673 8.50855C10.9727 8.7906 11.1225 9.14055 11.1225 9.5584C11.1225 9.96581 10.9727 10.3105 10.673 10.5926C10.3838 10.8642 10.0119 11 9.55728 11ZM9.55728 4.62251C9.09237 4.62251 8.71012 4.4867 8.41051 4.2151C8.12124 3.93305 7.9766 3.58832 7.9766 3.18091C7.9766 2.76306 8.12124 2.41311 8.41051 2.13105C8.71012 1.849 9.09237 1.70798 9.55728 1.70798C10.0119 1.70798 10.3838 1.849 10.673 2.13105C10.9727 2.41311 11.1225 2.76306 11.1225 3.18091C11.1225 3.58832 10.9727 3.93305 10.673 4.2151C10.3838 4.4867 10.0119 4.62251 9.55728 4.62251Z" fill="currentColor"/>
        <path d="M24.4776 2.03704C25.552 2.03704 26.4043 2.3661 27.0346 3.02422C27.6751 3.68234 27.9954 4.59639 27.9954 5.76638V10.6508C27.9954 10.7744 27.8962 10.8746 27.774 10.8746H25.5823C25.46 10.8746 25.3609 10.7744 25.3609 10.6508V6.12678C25.3609 5.56268 25.2111 5.12915 24.9115 4.82621C24.6222 4.51282 24.2193 4.35612 23.7027 4.35612C23.1862 4.35612 22.7781 4.51282 22.4785 4.82621C22.1892 5.12915 22.0446 5.56268 22.0446 6.12678V10.6508C22.0446 10.7744 21.9455 10.8746 21.8232 10.8746H19.6315C19.5092 10.8746 19.4101 10.7744 19.4101 10.6508V6.12678C19.4101 5.56268 19.2603 5.12915 18.9607 4.82621C18.6714 4.51282 18.2685 4.35612 17.752 4.35612C17.2354 4.35612 16.8273 4.51282 16.5277 4.82621C16.2384 5.12915 16.0938 5.56268 16.0938 6.12678V10.6508C16.0938 10.7744 15.9947 10.8746 15.8724 10.8746H13.6652C13.543 10.8746 13.4438 10.7744 13.4438 10.6508V2.3549C13.4438 2.23127 13.543 2.13105 13.6652 2.13105H15.8724C15.9947 2.13105 16.0938 2.23127 16.0938 2.3549V3.22792C16.3624 2.8623 16.7137 2.57502 17.1476 2.3661C17.5815 2.14672 18.0722 2.03704 18.6198 2.03704C19.2706 2.03704 19.8492 2.17806 20.3554 2.46011C20.872 2.74216 21.2749 3.14435 21.5642 3.66667C21.8638 3.18613 22.2719 2.7944 22.7884 2.49145C23.305 2.18851 23.868 2.03704 24.4776 2.03704Z" fill="currentColor"/>
        <path d="M38 6.36182C38 6.61254 37.9845 6.87369 37.9535 7.1453H31.9562C31.9976 7.68851 32.168 8.10636 32.4676 8.39886C32.7776 8.68091 33.1547 8.82194 33.5989 8.82194C34.2083 8.82194 34.6465 8.58236 34.9137 8.10321C34.956 8.02723 35.0333 7.97578 35.1196 7.97578H37.5137C37.6582 7.97578 37.7641 8.11353 37.7184 8.25205C37.5649 8.71731 37.3282 9.14232 37.0082 9.52706C36.6363 9.9867 36.1662 10.3471 35.598 10.6083C35.0298 10.8694 34.3944 11 33.6919 11C32.8447 11 32.0905 10.8172 31.4293 10.4516C30.7682 10.0859 30.2516 9.56363 29.8797 8.88462C29.5077 8.2056 29.3218 7.41168 29.3218 6.50285C29.3218 5.59402 29.5026 4.80009 29.8642 4.12108C30.2361 3.44207 30.7527 2.91975 31.4139 2.55413C32.0751 2.18851 32.8344 2.0057 33.6919 2.0057C34.5287 2.0057 35.2726 2.18329 35.9234 2.53846C36.5743 2.89364 37.0805 3.40028 37.4421 4.0584C37.814 4.71652 38 5.48433 38 6.36182ZM35.2881 5.65669C35.2881 5.19706 35.1331 4.83143 34.8232 4.55983C34.5132 4.28822 34.1258 4.15242 33.6609 4.15242C33.2166 4.15242 32.8396 4.283 32.5296 4.54416C32.23 4.80532 32.0441 5.17616 31.9717 5.65669H35.2881Z" fill="currentColor"/>
    </symbol>
    <use xlink:href="#sprite-tme-logo" width="100%" height="100%"/>
    <view id="sprite-tme-logo" viewBox="0 0 38 11"/>


    <svg id="sprite-dumy-logo" width="100%" height="100%" viewBox="0 0 43 12" fill="none">
        <path d="M1.63867 8.70766C1.73436 6.86565 2.60752 3.07398 5.33466 1.35158C8.74357 -0.801424 9.53301 7.59528 9.67654 8.63589" stroke="currentColor" stroke-width="1.12095" stroke-linecap="round"/>
        <path d="M1.81838 10.6517C1.14856 9.94602 0.261077 8.75708 2.0696 8.78579C3.87812 8.8145 7.79895 8.79775 9.5333 8.78579C10.1672 8.74991 10.9902 9.07286 9.21035 10.6517" stroke="currentColor" stroke-width="1.12095" stroke-linecap="round"/>
        <path d="M19.5869 1.03516C19.5869 3.35561 18.2664 8.03241 12.8408 10.616" stroke="currentColor" stroke-width="1.12095" stroke-linecap="round"/>
        <path d="M11.4775 1.07031C11.4775 2.99605 12.1378 6.81882 16.5012 7.70873" stroke="currentColor" stroke-width="1.12095" stroke-linecap="round"/>
        <path d="M32.8876 1.03516C32.2178 4.06132 31.8665 11.1255 34.9668 10.5801C38.0671 10.0347 39.215 3.6068 39.239 1.03516C39.0476 3.78621 39.0431 10.2931 41.9999 10.5801" stroke="currentColor" stroke-width="1.12095" stroke-linecap="round" stroke-linejoin="round"/>
        <path d="M20.0901 10.6167C21.1666 7.19273 23.5349 0.482136 24.3961 1.03181C25.2573 1.58148 25.64 5.15416 25.5444 6.84898C25.7836 4.92513 26.2764 1.03181 27.7691 1.03181C29.2619 1.03181 30.3049 7.42176 30.6398 10.6167" stroke="currentColor" stroke-width="1.12095" stroke-linecap="round" stroke-linejoin="round"/>
    </svg>
    <use xlink:href="#sprite-dumy-logo" width="100%" height="100%"/>
    <view id="sprite-dumy-logo" viewBox="0 0 43 12"/>




    <symbol fill="none" id="sprite-arrow-right" viewBox="0 0 17 18">
        <path d="M0.255498 9.19882L15.7905 9.37406M8.38867 1L16.3169 9.38892L7.92796 17.3171" stroke="currentColor" stroke-width="0.887888"/>
    </symbol>
    <use xlink:href="#sprite-arrow-right" width="17" height="18" y="0"/>

    <view id="sprite-arrow-right-view" viewBox="0 0 17 18"/>


    <symbol fill="none" id="sprite-arrow-thin" viewBox="0 0 11 19">
        <path d="M0.681641 18.3953L9.5512 9.5257L0.68164 0.656134" stroke="currentColor" stroke-linecap="round" stroke-linejoin="round"/>
    </symbol>
    <use xlink:href="#sprite-arrow-thin" width="11" height="19" y="18"/>
    <view id="sprite-arrow-thin-view" viewBox="0 18 11 19"/>


    <symbol id="target" width="100%" height="100%" viewBox="0 0 38 38" fill="none">
        <path d="M31.9398 10.6874H28.9932L21.7637 17.9137C22.0127 18.5483 22.0356 19.2493 21.8286 19.8988C21.6215 20.5483 21.1972 21.1066 20.6268 21.48C20.0565 21.8534 19.375 22.019 18.6969 21.949C18.0188 21.879 17.3855 21.5777 16.9035 21.0956C16.4215 20.6136 16.1201 19.9803 16.0501 19.3022C15.9801 18.6242 16.1457 17.9426 16.5191 17.3723C16.8925 16.802 17.4509 16.3776 18.1004 16.1706C18.7499 15.9635 19.4508 15.9864 20.0854 16.2354L27.3133 9.00748V6.0609C27.3135 5.66662 27.4701 5.2885 27.7487 5.00957L30.4879 2.2704C30.5386 2.21938 30.6022 2.18314 30.672 2.16556C30.7417 2.14799 30.8149 2.14975 30.8837 2.17065C31.0247 2.21182 31.1292 2.32898 31.1577 2.47307L31.886 6.11632L35.5277 6.84465C35.6702 6.87315 35.7873 6.97765 35.8285 7.11857C35.8493 7.18702 35.8511 7.25983 35.8338 7.32925C35.8166 7.39867 35.7808 7.46211 35.7303 7.51282L32.9896 10.252C32.711 10.5303 32.3336 10.6868 31.9398 10.6874Z" fill="currentColor"/>
        <path d="M4.15625 19C4.15625 22.9368 5.72014 26.7124 8.50388 29.4961C11.2876 32.2799 15.0632 33.8438 19 33.8438C20.9493 33.8438 22.8795 33.4598 24.6805 32.7138C26.4814 31.9679 28.1177 30.8745 29.4961 29.4961C30.8745 28.1178 31.9679 26.4814 32.7138 24.6805C33.4598 22.8795 33.8438 20.9493 33.8438 19C33.8438 17.5782 33.6443 16.2038 33.2722 14.9039C33.1982 14.6055 33.2429 14.2899 33.3969 14.0237C33.5508 13.7576 33.802 13.5615 34.0976 13.4768C34.3932 13.392 34.7102 13.4253 34.9818 13.5695C35.2533 13.7137 35.4584 13.9577 35.5537 14.25C35.9876 15.7605 36.2188 17.3533 36.2188 19C36.2188 28.5095 28.5095 36.2188 19 36.2188C9.4905 36.2188 1.78125 28.5095 1.78125 19C1.78125 9.49051 9.4905 1.78126 19 1.78126C20.6071 1.77968 22.2047 2.00293 23.75 2.44468C23.9007 2.48694 24.0415 2.55857 24.1644 2.65545C24.2873 2.75233 24.3898 2.87254 24.4661 3.00918C24.5424 3.14581 24.5909 3.29618 24.6089 3.45164C24.6269 3.60709 24.614 3.76456 24.5709 3.91501C24.5278 4.06545 24.4554 4.20589 24.3578 4.32826C24.2603 4.45062 24.1395 4.5525 24.0025 4.62804C23.8654 4.70358 23.7148 4.75128 23.5592 4.76841C23.4037 4.78554 23.2463 4.77175 23.0961 4.72784C21.764 4.34762 20.3853 4.15523 19 4.15626C15.0632 4.15626 11.2876 5.72015 8.50388 8.50389C5.72014 11.2876 4.15625 15.0632 4.15625 19Z" fill="currentColor"/>
        <path d="M11.2808 19.0002C11.2852 20.0488 11.5033 21.0856 11.9218 22.0472C12.3402 23.0088 12.9503 23.8749 13.7147 24.5929C14.4792 25.3108 15.3819 25.8654 16.3678 26.2228C17.3537 26.5802 18.4021 26.7329 19.449 26.6716C20.4959 26.6103 21.5193 26.3363 22.4567 25.8662C23.3942 25.3962 24.226 24.74 24.9014 23.9378C25.5768 23.1356 26.0816 22.2041 26.385 21.2003C26.6884 20.1964 26.784 19.1413 26.666 18.0992C26.6328 17.8882 26.6572 17.6721 26.7368 17.4738C26.8164 17.2756 26.9481 17.1025 27.118 16.973C27.2879 16.8435 27.4897 16.7624 27.702 16.7382C27.9142 16.714 28.1291 16.7477 28.3238 16.8357C28.7212 17.0131 28.9888 17.3915 29.0236 17.8253C29.2694 19.9078 28.8604 22.0151 27.8533 23.8544C26.8463 25.6937 25.2912 27.1735 23.4043 28.0883C21.5174 29.003 19.3924 29.3071 17.3246 28.9584C15.2569 28.6097 13.3492 27.6255 11.8666 26.1426C10.3844 24.6612 9.39996 22.7554 9.04973 20.6894C8.69949 18.6233 9.00085 16.4995 9.91201 14.6125C10.8232 12.7254 12.299 11.1687 14.1347 10.1582C15.9704 9.14763 18.0752 8.7334 20.1569 8.97291C20.3143 8.98751 20.4672 9.03338 20.6066 9.10783C20.746 9.18228 20.8692 9.28382 20.9688 9.40648C21.0685 9.52914 21.1427 9.67047 21.187 9.82217C21.2314 9.97388 21.245 10.1329 21.2271 10.2899C21.2091 10.447 21.1601 10.5989 21.0827 10.7367C21.0053 10.8745 20.9012 10.9955 20.7765 11.0925C20.6517 11.1896 20.5089 11.2608 20.3563 11.3019C20.2037 11.343 20.0444 11.3533 19.8878 11.3321C18.8064 11.2071 17.7108 11.3121 16.6729 11.6404C15.635 11.9687 14.6783 12.5127 13.8655 13.2369C13.0527 13.961 12.4022 14.8488 11.9567 15.8421C11.5113 16.8353 11.2809 17.9116 11.2808 19.0002Z" fill="currentColor"/>
    </symbol>
    <use xlink:href="#target" width="100%" height="100%"/>
    <view id="target" viewBox="0 0 38 38"/>


    <symbol id="sprite-omg-logo" width="100%" height="100%" viewBox="0 0 137 73" fill="none">
        <g clip-path="url(#clip0_862_4027)">
            <path d="M0.0924609 26.8796C-0.022859 23.8777 0.55374 20.8758 1.96064 18.0104C3.59818 14.3036 6.06603 11.3017 9.45643 9.0048C11.6706 7.50387 14.1384 6.34405 16.8138 5.77552C19.8583 5.09328 22.7874 4.97957 25.9472 5.5481C32.1514 6.70792 36.8334 10.1646 40.2238 15.236C42.092 18.1241 43.1529 21.2397 43.4989 24.6964C43.6142 26.6522 43.4989 28.6079 43.3835 30.4727C43.2682 31.5188 43.0376 32.4285 42.6916 33.4746C41.4 37.75 38.8399 41.3204 35.1958 44.0721C32.728 46.0279 30.0526 47.3014 27.0081 47.9836C23.9637 48.6659 20.8039 48.6659 17.7595 48.211C13.4234 47.5288 9.68707 45.5503 6.52731 42.321C4.77445 40.5927 3.36755 38.6369 2.19128 36.431C0.807444 33.4518 0.0924609 30.2226 0.0924609 26.8796ZM8.16485 26.9933C8.16485 27.5618 8.16485 28.1531 8.28017 28.6079C8.51081 31.7235 9.80239 34.498 12.0165 36.7948C15.2916 39.9104 19.1433 41.2976 23.71 40.8201C25.5781 40.5927 27.331 40.0241 28.9686 38.978C32.5896 36.5447 35.0574 33.3381 35.5187 28.949C35.98 24.5599 35.0574 20.6484 32.013 17.3054C30.0295 15.1222 27.5617 13.6213 24.6556 13.1437C21.8418 12.6889 18.9357 12.8026 16.2372 14.0761C13.5388 15.3497 11.5553 17.1917 10.1484 19.6023C8.62613 21.9219 8.04953 24.3325 8.16485 26.9933Z" fill="currentColor"/>
            <path d="M128.397 18.8746C126.99 17.4874 125.353 16.0546 123.831 15.1222C120.325 13.1665 116.589 12.5752 112.714 13.3939C108.493 14.3263 105.472 16.6232 103.35 20.3073C102.404 21.9219 101.828 23.6503 101.828 25.4923C101.828 27.2207 101.828 29.0627 102.289 30.7911C102.981 33.2017 104.272 35.1802 106.141 36.9085C110.338 40.7064 115.251 41.7525 120.763 40.3652C124.154 39.5693 126.368 37.2497 127.775 34.0204H117.004C115.943 34.0204 115.943 34.0204 115.943 32.9743V27.6755C115.943 26.8796 115.943 26.8796 116.773 26.8796H135.962C136.793 26.8796 136.793 26.8796 136.793 27.6755C136.908 30.45 136.562 33.088 135.501 35.635C134.325 38.6369 132.572 41.2749 130.242 43.4808C127.913 45.664 125.215 47.1649 122.055 47.8699C118.895 48.6659 115.62 48.8023 112.46 48.211C110.015 47.8699 107.663 47.1649 105.564 46.1416C102.75 44.7543 100.305 42.7986 98.4372 40.3652C96.5691 37.9546 95.2775 35.2939 94.4702 32.292C93.6399 29.0627 93.5246 25.8335 94.2396 22.4905C95.3005 17.3054 98.0913 13.1437 102.197 9.91446C104.641 7.9587 107.455 6.68518 110.5 6.11664C114.351 5.32069 118.111 5.4344 121.962 6.23035C126.529 7.16275 130.266 9.45963 133.425 12.6889C133.887 13.1437 133.887 13.2575 133.425 13.8487C131.903 15.236 130.404 16.6459 128.974 18.2378C128.397 18.8746 128.628 18.6472 128.397 18.8746Z" fill="currentColor"/>
            <path d="M56.8068 17.3054C56.8068 17.874 56.9221 18.4652 56.9221 19.1475C57.0374 19.9434 57.0374 20.8758 57.1527 21.6945C57.268 22.2631 57.0374 22.3768 56.5761 22.4905C55.3999 22.6042 54.2467 22.8316 53.1857 22.9453C52.2401 23.059 51.4329 23.1727 50.4872 23.2864C50.3719 23.2864 50.2566 23.4001 50.026 23.5138C52.4707 24.0824 54.8233 24.5599 57.268 25.0148C55.5152 31.8145 53.8776 38.5004 52.2401 45.3001C51.4098 45.0727 50.7179 44.959 50.026 44.8453C48.3884 44.5042 46.6356 44.0494 44.998 43.5718C44.4214 43.4581 44.3061 43.2307 44.4214 42.6394C45.2517 39.6375 45.9436 36.7494 46.6356 33.7702C47.0968 31.8145 47.5812 29.8587 48.0425 27.8802C48.2731 26.7204 48.6191 25.5833 48.8728 24.5372C48.9881 23.7413 49.2187 22.9226 49.1034 22.2403C48.8728 19.4659 48.5268 16.8279 48.1578 14.0534C47.8118 11.1652 47.5812 8.41353 47.2122 5.52536C47.0968 4.72941 47.2122 4.59296 48.0194 4.59296C49.6569 4.36555 51.1792 4.25184 52.7014 4.02443C53.278 4.02443 53.647 4.02443 54.1083 4.36555C58.8133 8.18611 63.4723 11.893 68.2696 15.5771C68.8462 16.0319 69.4458 16.5095 70.2531 17.078C70.3684 16.8506 70.3684 16.6232 70.599 16.5095C74.1047 12.2341 77.6105 7.86773 81.1162 3.59234C81.8081 2.79639 82.4078 1.9777 83.0997 1.18175C83.3303 0.954335 83.6763 0.726921 83.9069 0.613214C85.6598 0.385799 87.4127 0.272092 89.1655 0.0446777C89.6268 0.0446777 89.7421 0.0446777 89.8574 0.499506C90.0881 3.38767 90.3187 6.02567 90.6647 8.68642C90.8953 11.3472 91.2413 13.8715 91.6103 16.5322C91.7256 17.5783 91.7256 17.5783 90.6647 17.692C88.9118 17.9194 87.159 18.1469 85.5214 18.5107H85.2908C83.3073 18.7381 83.5379 18.7381 83.4226 17.1235C83.3073 16.3275 83.3073 15.5089 83.192 14.4627C82.846 14.8039 82.6154 15.0313 82.3847 15.2587C81.3238 16.4185 80.4012 17.6693 79.4556 18.9428C79.225 19.2839 78.879 19.3976 78.51 19.3976C74.8889 19.8525 71.2679 20.4437 67.7621 21.0123C66.3552 21.2397 65.0637 21.3534 63.6798 21.5808C63.1032 21.6945 62.6189 21.5808 62.1576 21.2397C60.5201 19.8525 58.8825 18.5789 57.245 17.3282C57.0374 17.1917 56.9221 17.1917 56.8068 17.3054Z" fill="currentColor"/>
            <path d="M85.5906 53.5098C84.4144 53.2824 83.4918 53.055 82.5462 52.8275C81.2546 52.4864 79.963 52.1453 78.5792 51.7814C78.0026 51.6677 78.0026 51.4403 78.1179 50.9627C78.4638 49.4618 78.8098 47.9609 79.2941 46.4599C80.2398 42.6621 81.2776 38.8416 82.2233 35.0437C82.5692 33.7702 82.7999 32.4967 83.1689 31.2459C83.3995 30.45 83.3995 30.45 84.2298 30.5637C86.3287 30.9048 88.3122 31.3824 90.434 31.8372C91.3797 32.0646 91.495 32.0646 91.126 32.997C90.5494 35.2939 89.9497 37.6135 89.3731 39.9104C88.4275 43.4808 87.6202 47.0512 86.6746 50.6444C86.5593 51.3266 86.3287 52.0316 86.098 52.7138C85.9366 53.1687 85.7059 53.3961 85.5906 53.5098Z" fill="currentColor"/>
            <path d="M78.3255 29.7677C75.0504 31.7235 71.7753 33.6793 68.3849 35.7715C66.5167 32.6559 64.5332 29.5403 62.5266 26.1973C67.9005 27.3571 73.1591 28.3805 78.3255 29.5403C78.2101 29.5403 78.2101 29.654 78.3255 29.7677Z" fill="currentColor"/>
            <path d="M35.0574 69.7699H33.3046V68.7238C32.359 69.9973 31.0904 70.111 30.6061 70.111C28.5073 70.111 26.6391 68.4964 26.6391 65.9493C26.6391 63.4023 28.392 61.674 30.6061 61.674C31.7824 61.674 32.7049 62.1288 33.1893 63.0612V61.9014H34.9421L35.0574 69.7699ZM28.5073 65.8584C28.5073 67.2456 29.4529 68.1553 30.8367 68.1553C32.2436 68.1553 33.1662 67.1092 33.1662 65.7219C33.1662 64.3347 32.2206 63.3113 30.8367 63.3113C29.4529 63.3113 28.5073 64.3575 28.5073 65.8584Z" fill="currentColor"/>
            <path d="M50.2797 68.4964C50.2797 71.3846 48.1808 72.7718 45.9436 72.7718C44.0755 72.7718 42.4379 71.7257 41.9766 69.8836H44.1908C44.5367 70.9297 45.713 71.0434 45.9436 71.0434C47.2352 71.0434 48.2731 69.9973 48.2731 68.8603V68.6328C48.0425 68.974 47.3275 69.9064 45.9436 69.9064C43.7295 69.9064 41.8613 68.0643 41.8613 65.7447C41.8613 63.3341 43.7295 61.6057 45.9436 61.6057C46.5202 61.6057 47.6965 61.7194 48.3884 62.993V61.9469H50.1413L50.2797 68.4964ZM43.8448 65.631C43.8448 66.9045 44.6521 68.0416 46.1743 68.0416C47.5812 68.0416 48.5037 66.9955 48.5037 65.7447C48.5037 64.3575 47.5581 63.3341 46.1743 63.3341C44.6521 63.3113 43.8448 64.4712 43.8448 65.631Z" fill="currentColor"/>
            <path d="M59.2746 66.5406C59.5053 67.473 60.3356 68.1553 61.3734 68.1553C61.95 68.1553 62.665 67.9279 63.1263 67.3593H65.3404C64.2795 69.9064 61.8347 69.9064 61.3734 69.9064C58.4443 69.9064 57.1527 67.6095 57.1527 65.7674C57.1527 63.9254 58.5596 61.492 61.4888 61.492C63.9335 61.492 65.5711 63.3341 65.5711 65.7674V66.5634H59.2746V66.5406ZM63.5876 64.926C63.3569 63.8799 62.4113 63.3113 61.4888 63.3113C60.4278 63.3113 59.6206 63.9936 59.2746 64.926H63.5876Z" fill="currentColor"/>
            <path d="M72.4903 61.8104H74.2431V62.4926C74.4738 62.1515 75.1888 61.4465 76.4573 61.4465C78.3255 61.4465 79.617 62.7201 79.617 65.017V69.6335H77.7489V65.4718C77.7489 63.7434 76.9416 63.2886 76.1113 63.2886C74.5891 63.2886 74.4738 64.7895 74.4738 65.4718V69.7472H72.6056L72.4903 61.8104Z" fill="currentColor"/>
            <path d="M95.0699 67.1319C94.4933 68.7466 93.0864 70.0201 91.1029 70.0201C88.0585 70.0201 86.6516 67.7232 86.6516 65.7447C86.6516 63.9026 88.0585 61.6057 90.9876 61.6057C92.9711 61.6057 94.4933 62.7656 95.0699 64.4939H92.8558C92.5098 63.8117 91.7948 63.4478 90.9876 63.4478C89.4654 63.4478 88.5428 64.6076 88.5428 65.8584C88.5428 67.2456 89.4884 68.269 90.9876 68.269C91.3335 68.269 92.3945 68.1553 92.8558 67.2229L95.0699 67.1319Z" fill="currentColor"/>
            <path d="M109.323 61.8104L104.641 72.4307H102.543L104.065 69.0877L101.136 61.9469H103.35L105.218 67.0182L107.086 61.9469C107.225 61.8104 109.323 61.8104 109.323 61.8104Z" fill="currentColor"/>
        </g>
        <defs>
            <clipPath id="clip0_862_4027">
                <rect width="137" height="73" fill="white"/>
            </clipPath>
        </defs>
    </symbol>
    <use xlink:href="#sprite-omg-logo" width="100%" height="100%"/>
    <view id="sprite-omg-logo" viewBox="0 0 137 73"/>


    <symbol id="sprite-eye" width="100%" height="100%" viewBox="0 0 43 43" fill="none">
        <path d="M21.5 36.7291C30.4055 36.7291 37.625 29.274 37.625 24.1874C37.625 19.1009 30.4055 11.6458 21.5 11.6458C12.5945 11.6458 5.375 19.1063 5.375 24.1874C5.375 29.2686 12.5945 36.7291 21.5 36.7291Z" stroke="currentColor" stroke-width="2" stroke-linejoin="round"/>
        <path d="M21.5 29.5625C22.9255 29.5625 24.2927 28.9962 25.3007 27.9882C26.3087 26.9802 26.875 25.613 26.875 24.1875C26.875 22.762 26.3087 21.3948 25.3007 20.3868C24.2927 19.3788 22.9255 18.8125 21.5 18.8125C20.0745 18.8125 18.7073 19.3788 17.6993 20.3868C16.6913 21.3948 16.125 22.762 16.125 24.1875C16.125 25.613 16.6913 26.9802 17.6993 27.9882C18.7073 28.9962 20.0745 29.5625 21.5 29.5625Z" stroke="currentColor" stroke-width="2" stroke-linejoin="round"/>
        <path d="M11.8823 10.0924L14.2061 13.3353M31.9141 10.4901L29.5894 13.733M21.5081 6.27075V11.6458" stroke="currentColor" stroke-width="2" stroke-linecap="round"/>
    </symbol>
    <use xlink:href="#sprite-eye" width="100%" height="100%"/>
    <view id="sprite-eye" viewBox="0 0 43 43"/>



    <symbol id="article-views" width="100%" height="100%" viewBox="0 0 33 22" fill="none">
        <path fill-rule="evenodd" clip-rule="evenodd" d="M16.4014 19.2754C22.269 19.2754 27.581 16.0027 30.4348 10.839C27.581 5.67541 22.269 2.40268 16.4014 2.40268C10.5337 2.40268 5.22173 5.67541 2.36791 10.839C5.22173 16.0027 10.5337 19.2754 16.4014 19.2754ZM16.4014 0.657227C23.3948 0.657227 29.4515 4.79977 32.4014 10.839C29.4515 16.8783 23.3948 21.0209 16.4014 21.0209C9.40791 21.0209 3.35119 16.8783 0.401367 10.839C3.35119 4.79977 9.40791 0.657227 16.4014 0.657227ZM16.4014 14.9118C17.4815 14.9118 18.5174 14.4827 19.2812 13.7189C20.045 12.9551 20.4741 11.9192 20.4741 10.839C20.4741 9.75889 20.045 8.72297 19.2812 7.95919C18.5174 7.19541 17.4815 6.76632 16.4014 6.76632C15.3212 6.76632 14.2853 7.19541 13.5215 7.95919C12.7577 8.72297 12.3286 9.75889 12.3286 10.839C12.3286 11.9192 12.7577 12.9551 13.5215 13.7189C14.2853 14.4827 15.3212 14.9118 16.4014 14.9118ZM16.4014 16.6572C14.8583 16.6572 13.3784 16.0442 12.2873 14.9531C11.1962 13.862 10.5832 12.3821 10.5832 10.839C10.5832 9.29597 11.1962 7.81609 12.2873 6.72497C13.3784 5.63385 14.8583 5.02086 16.4014 5.02086C17.9444 5.02086 19.4243 5.63385 20.5154 6.72497C21.6066 7.81609 22.2195 9.29597 22.2195 10.839C22.2195 12.3821 21.6066 13.862 20.5154 14.9531C19.4243 16.0442 17.9444 16.6572 16.4014 16.6572Z" fill="currentColor"/>
    </symbol>
    <use xlink:href="#article-views" width="100%" height="100%"/>
    <view id="article-views-view" viewBox="0 0 33 22"/>


    <symbol id="article-comments" width="100%" height="100%" viewBox="0 0 25 25" fill="none">
        <path fill-rule="evenodd" clip-rule="evenodd" d="M2.63486 16.7583C-0.456139 9.17246 5.12499 0.871582 13.3159 0.871582H13.7572C16.6992 0.872311 19.5204 2.04132 21.6007 4.1216C23.681 6.20187 24.85 9.02313 24.8507 11.9651C24.8511 13.587 24.5319 15.1932 23.9114 16.6917C23.2908 18.1903 22.3811 19.5519 21.2342 20.6988C20.0873 21.8457 18.7257 22.7554 17.2271 23.376C15.7286 23.9965 14.1224 24.3157 12.5005 24.3153H1.74799C1.53434 24.3155 1.32591 24.2494 1.15149 24.126C0.977078 24.0026 0.845291 23.8281 0.774343 23.6265C0.703395 23.425 0.696788 23.2064 0.755436 23.001C0.814084 22.7956 0.935091 22.6134 1.10174 22.4797L3.81186 20.3031C3.86981 20.2567 3.91117 20.1927 3.92975 20.1209C3.94834 20.049 3.94316 19.973 3.91499 19.9043L2.63486 16.7583ZM13.3159 2.93408C6.58799 2.93408 2.00511 9.74996 4.54336 15.9801L5.82486 19.1275C6.02011 19.6072 6.05533 20.1372 5.92527 20.6386C5.79521 21.14 5.50683 21.5861 5.10299 21.9105L4.67811 22.2528H12.5005C13.8516 22.2532 15.1895 21.9873 16.4379 21.4705C17.6862 20.9536 18.8205 20.1958 19.7758 19.2404C20.7312 18.285 21.489 17.1508 22.0059 15.9025C22.5227 14.6541 22.7886 13.3162 22.7882 11.9651C22.7875 9.57014 21.8358 7.27349 20.1423 5.58001C18.4488 3.88652 16.1522 2.93481 13.7572 2.93408H13.3159Z" fill="currentColor"/>
    </symbol>
    <use xlink:href="#article-comments" width="100%" height="100%"/>
    <view id="article-comments-view" viewBox="0 0 25 25"/>


    <symbol id="article-star" width="100%" height="100%" viewBox="0 0 48 46" fill="none">
        <path d="M24 0L29.6129 17.2746H47.7764L33.0818 27.9508L38.6946 45.2254L24 34.5491L9.30537 45.2254L14.9182 27.9508L0.223587 17.2746H18.3871L24 0Z" fill="currentColor"/>
    </symbol>
    <use xlink:href="#article-star" width="100%" height="100%"/>
    <view id="article-star-view" viewBox="0 0 25 25"/>


    <symbol id="blog-search" width="100%" height="100%" viewBox="0 0 28 28" fill="none">
        <path fill-rule="evenodd" clip-rule="evenodd" d="M17.6239 19.3159C15.4573 21.0459 12.71 21.8812 9.94626 21.6502C7.18257 21.4192 4.6123 20.1393 2.76333 18.0736C0.914365 16.0078 -0.0729362 13.3129 0.00420229 10.5424C0.0813408 7.77182 1.21706 5.13596 3.17811 3.17613C5.13916 1.2163 7.77667 0.08129 10.5489 0.00419967C13.3212 -0.0728907 16.0178 0.913795 18.0849 2.76161C20.1519 4.60942 21.4325 7.17809 21.6637 9.94006C21.8949 12.702 21.0591 15.4476 19.3279 17.6129L27.6163 25.8945C27.7347 26.0048 27.8297 26.1379 27.8956 26.2857C27.9615 26.4335 27.997 26.593 27.9998 26.7548C28.0027 26.9166 27.9729 27.0773 27.9123 27.2273C27.8516 27.3773 27.7614 27.5136 27.6469 27.628C27.5324 27.7424 27.396 27.8326 27.2459 27.8932C27.0958 27.9538 26.935 27.9836 26.7731 27.9807C26.6112 27.9779 26.4516 27.9425 26.3037 27.8766C26.1558 27.8108 26.0227 27.7158 25.9123 27.5974L17.6239 19.3159ZM4.88276 16.8065C3.70291 15.6272 2.89933 14.1249 2.57359 12.4894C2.24784 10.8539 2.41454 9.15856 3.05263 7.6177C3.69071 6.07683 4.77154 4.75959 6.15851 3.83243C7.54549 2.90528 9.17635 2.40983 10.845 2.40871C12.5136 2.40759 14.1452 2.90084 15.5334 3.82613C16.9216 4.75142 18.0042 6.06721 18.6444 7.60721C19.2845 9.14722 19.4535 10.8423 19.13 12.4783C18.8064 14.1142 18.0049 15.6176 16.8266 16.7984L16.8186 16.8065L16.8105 16.8129C15.2273 18.3915 13.0818 19.2775 10.8453 19.2763C8.60885 19.2751 6.46431 18.3868 4.88276 16.8065Z" fill="currentColor"/>
    </symbol>
    <use xlink:href="#blog-search" width="100%" height="100%"/>
    <view id="blog-search-view" viewBox="0 0 28 28"/>


    <symbol id="chevron" width="100%" height="100%" viewBox="0 0 22 12" fill="none">
        <path d="M1 1L11.0536 11.0536L21.1073 1" stroke="black" stroke-width="1.25671" stroke-linecap="round" stroke-linejoin="round"/>
    </symbol>
    <use xlink:href="#chevron" width="100%" height="100%"/>
    <view id="chevron-view" viewBox="0 0 22 12"/>



    <symbol fill="none" id="sprite-arrow" viewBox="0 0 10 7">
<path d="M1 1.5L5 5.5L9 1.5" stroke="currentColor" stroke-width="1.5" stroke-linecap="round" stroke-linejoin="round"/>
</symbol><use xlink:href="#sprite-arrow" width="10" height="7" y="37"/><view id="sprite-arrow-view" viewBox="0 37 10 7"/><symbol fill="none" id="sprite-breadcrumbs_arrow" viewBox="0 0 8 12">
<path d="M1.625 1.4165L6.33336 6.12486L1.625 10.8332" stroke="#929292" stroke-width="1.76564" stroke-linecap="round" stroke-linejoin="round"/>
</symbol><use xlink:href="#sprite-breadcrumbs_arrow" width="8" height="12" y="44"/><view id="sprite-breadcrumbs_arrow-view" viewBox="0 44 8 12"/><symbol fill="none" id="sprite-breadcrumbs_home" viewBox="0 0 20 21">
<path d="M2.66277 18.365H6.19404V12.4796C6.19404 12.1461 6.30705 11.8667 6.53305 11.6415C6.75905 11.4163 7.03841 11.3033 7.37113 11.3025H12.0795C12.413 11.3025 12.6928 11.4155 12.9188 11.6415C13.1448 11.8675 13.2574 12.1468 13.2566 12.4796V18.365H16.7879V7.7712L9.72532 2.4743L2.66277 7.7712V18.365ZM0.308594 18.365V7.7712C0.308594 7.39846 0.392167 7.04533 0.559314 6.71182C0.726461 6.37831 0.956778 6.10366 1.25027 5.88786L8.31281 0.590953C8.72479 0.277063 9.19562 0.120117 9.72532 0.120117C10.255 0.120117 10.7258 0.277063 11.1378 0.590953L18.2004 5.88786C18.4946 6.10366 18.7253 6.37831 18.8925 6.71182C19.0596 7.04533 19.1428 7.39846 19.142 7.7712V18.365C19.142 19.0124 18.9113 19.5668 18.4499 20.0282C17.9885 20.4897 17.4345 20.72 16.7879 20.7192H12.0795C11.746 20.7192 11.4666 20.6062 11.2414 20.3802C11.0162 20.1542 10.9032 19.8748 10.9024 19.5421V13.6567H8.54823V19.5421C8.54823 19.8756 8.43522 20.1554 8.20922 20.3814C7.98322 20.6074 7.70386 20.72 7.37113 20.7192H2.66277C2.01537 20.7192 1.46136 20.4889 1.00072 20.0282C0.540088 19.5676 0.309378 19.0132 0.308594 18.365Z" fill="#929292"/>
</symbol><use xlink:href="#sprite-breadcrumbs_home" width="20" height="21" y="56"/><view id="sprite-breadcrumbs_home-view" viewBox="0 56 20 21"/><symbol fill="none" id="sprite-checkmark" viewBox="0 0 23 17">
<path d="M8.13101 12.8312L19.7841 1.17813C20.0591 0.903125 20.38 0.765625 20.7466 0.765625C21.1133 0.765625 21.4341 0.903125 21.7091 1.17813C21.9841 1.45313 22.1216 1.77992 22.1216 2.1585C22.1216 2.53708 21.9841 2.86342 21.7091 3.1375L9.09351 15.7875C8.81851 16.0625 8.49768 16.2 8.13101 16.2C7.76434 16.2 7.44351 16.0625 7.16851 15.7875L1.25601 9.875C0.98101 9.6 0.84901 9.27367 0.86001 8.896C0.87101 8.51833 1.01447 8.19154 1.29038 7.91562C1.5663 7.63971 1.89309 7.50221 2.27076 7.50312C2.64843 7.50404 2.97476 7.64154 3.24976 7.91562L8.13101 12.8312Z" fill="#2174F5"/>
</symbol><use xlink:href="#sprite-checkmark" width="23" height="17" y="77"/><view id="sprite-checkmark-view" viewBox="0 77 23 17"/><symbol fill="none" id="sprite-email" viewBox="0 0 19 15">
<path d="M0.830078 2.86761L9.69224 7.29814L18.5544 2.86761C18.5216 2.30292 18.2741 1.77215 17.8627 1.384C17.4513 0.995843 16.907 0.779681 16.3414 0.779785H3.04313C2.47749 0.779681 1.93322 0.995843 1.52178 1.384C1.11035 1.77215 0.862885 2.30292 0.830078 2.86761Z" fill="currentColor"/>
<path d="M18.5552 5.34204L9.68971 9.77479L0.824219 5.34204V11.8604C0.824219 12.4482 1.05773 13.012 1.47338 13.4276C1.88903 13.8433 2.45277 14.0768 3.04059 14.0768H16.3388C16.9266 14.0768 17.4904 13.8433 17.906 13.4276C18.3217 13.012 18.5552 12.4482 18.5552 11.8604V5.34204Z" fill="currentColor"/>
</symbol><use xlink:href="#sprite-email" width="19" height="15" y="94"/><view id="sprite-email-view" viewBox="0 94 19 15"/><symbol fill="currentColor" id="sprite-facebook" viewBox="0 0 31 31">
<path d="M20.8243 17.0687L21.4731 12.5271H17.4764V9.57512C17.4764 8.33329 18.0344 7.11984 19.8186 7.11984H21.6612V3.2524C20.5882 3.06389 19.5039 2.9619 18.4172 2.94727C15.1278 2.94727 12.9803 5.1258 12.9803 9.0642V12.5271H9.33398V17.0687H12.9803V28.0536H17.4764V17.0687H20.8243Z"/>
</symbol><use xlink:href="#sprite-facebook" width="31" height="31" y="109"/><view id="sprite-facebook-view" viewBox="0 109 31 31"/><symbol fill="none" id="sprite-facebook_circle" viewBox="0 0 32 31">
<path d="M26.9515 4.51911C23.8797 1.52072 20.1268 0 15.7981 0C11.429 0 7.66558 1.52244 4.61128 4.52083C1.55172 7.51922 0 11.2151 0 15.5C0 19.7453 1.54997 23.4274 4.60602 26.443C7.66207 29.4672 11.4273 31 15.7981 31C20.1285 31 23.8814 29.4672 26.955 26.4482C30.0357 23.4291 31.5962 19.7453 31.5962 15.5C31.5962 11.2151 30.0339 7.51922 26.9515 4.51911ZM24.473 24.0129C22.4772 25.9746 20.197 27.0923 17.5534 27.4316V18.9444H21.0641V15.5H17.5534V13.0889C17.5534 12.953 17.5807 12.8185 17.6338 12.6931C17.6868 12.5676 17.7645 12.4536 17.8625 12.3576C17.9605 12.2616 18.0768 12.1855 18.2048 12.1337C18.3328 12.0819 18.4699 12.0553 18.6084 12.0556H21.0641V8.61111H18.6119C17.3094 8.61111 16.2229 9.083 15.3522 10.0268C14.4804 10.9683 14.0439 12.121 14.0427 13.485V15.5H10.5321V18.9444H14.0427V27.435C11.3711 27.0992 9.08214 25.9797 7.09685 24.0181C4.68325 21.6346 3.51068 18.848 3.51068 15.5C3.51068 12.1141 4.6815 9.32067 7.09509 6.95778C9.49991 4.59317 12.3471 3.44444 15.7981 3.44444C19.2122 3.44444 22.0506 4.59489 24.4782 6.96294C26.9059 9.32583 28.0855 12.1193 28.0855 15.5C28.0855 18.8428 26.9041 21.6294 24.473 24.0129Z" fill="currentColor"/>
</symbol><use xlink:href="#sprite-facebook_circle" width="32" height="31" y="140"/><view id="sprite-facebook_circle-view" viewBox="0 140 32 31"/><symbol fill="none" id="sprite-growthy" viewBox="0 0 185 22">
<path fill-rule="evenodd" clip-rule="evenodd" d="M19.2833 12.7491H11.5855V8.74882H24.0523C24.1559 9.3244 24.2078 9.92876 24.2078 10.5619C24.2078 16.5767 20.968 21.1237 12.1038 21.1237C3.23983 21.1237 0 16.5767 0 10.5619C0 4.54709 3.23983 0 12.1038 0C19.2833 0 22.7564 2.99302 23.819 7.30987H18.6871C17.78 5.55435 15.7584 4.40319 12.1038 4.40319C6.32405 4.40319 4.66532 6.93574 4.66532 10.5619C4.66532 14.188 6.32405 16.7206 12.1038 16.7206C16.6137 16.7206 18.6094 15.1665 19.2833 12.7491ZM27.2021 0.489253H39.6429C45.7079 0.489253 48.1183 3.39593 48.1183 7.97179C48.1183 11.1374 46.9779 13.4974 44.2565 14.6485L48.3775 20.6346H43.3233L39.7726 15.4543H31.8675V20.6346H27.2021V0.489253ZM31.8675 11.0799H39.6429C42.4681 11.0799 43.453 9.89998 43.453 7.97179C43.453 6.07238 42.4681 4.89243 39.6429 4.89243H31.8675V11.0799ZM62.1182 0C70.9821 0 74.2219 4.51831 74.2219 10.5331C74.2219 16.548 70.9821 21.095 62.1182 21.095C53.2543 21.095 50.0144 16.548 50.0144 10.5331C50.0144 4.51831 53.2543 0 62.1182 0ZM62.1182 16.1163C67.8984 16.1163 69.5568 13.8139 69.5568 10.5331C69.5568 7.28109 67.8984 4.95 62.1182 4.95C56.3379 4.95 54.6795 7.28109 54.6795 10.5331C54.6795 13.8139 56.3379 16.1163 62.1182 16.1163ZM94.5407 0.489253L99.7502 14.3895L104.52 0.489253H109.366L102.575 20.6346H97.1845L91.9233 6.61918L86.6622 20.6346H81.2712L74.4804 0.489253H79.3269L84.0965 14.3895L89.3059 0.489253H94.5407ZM119.456 5.43924H110.799V0.489253H132.752V5.43924H124.121V20.6346H119.456V5.43924ZM139.894 8.17324H152.517V0.489253H157.182V20.6346H152.517V12.9505H139.894V20.6346H135.229V0.489253H139.894V8.17324ZM171.701 10.2741L178.906 0.489253H184.141L174.033 14.5047V20.6346H169.368V14.5047L159.259 0.489253H164.47L171.701 10.2741Z" fill="white"/>
</symbol><use xlink:href="#sprite-growthy" width="185" height="22" y="171"/><view id="sprite-growthy-view" viewBox="0 171 185 22"/><symbol fill="none" id="sprite-humburger" viewBox="0 0 26 18">
<rect width="26" height="2" rx="1" fill="currentColor"/>
<rect y="8" width="26" height="2" rx="1" fill="currentColor"/>
<rect y="16" width="26" height="2" rx="1" fill="currentColor"/>
</symbol><use xlink:href="#sprite-humburger" width="26" height="18" y="193"/><view id="sprite-humburger-view" viewBox="0 193 26 18"/><symbol fill="currentColor" id="sprite-instagram" viewBox="0 0 31 31">
<path fill-rule="evenodd" clip-rule="evenodd" d="M9.60667 2.94678C6.14021 2.94678 3.33008 5.75691 3.33008 9.22337V21.7766C3.33008 25.243 6.14021 28.0532 9.60667 28.0532H22.1599C25.6263 28.0532 28.4365 25.243 28.4365 21.7766V9.22337C28.4365 5.75691 25.6263 2.94678 22.1599 2.94678H9.60667ZM23.3046 9.22409C24.2034 9.22409 24.932 8.49547 24.932 7.59667C24.932 6.69788 24.2034 5.96926 23.3046 5.96926C22.4058 5.96926 21.6772 6.69788 21.6772 7.59667C21.6772 8.49547 22.4058 9.22409 23.3046 9.22409ZM15.886 9.22524C14.2214 9.22524 12.6249 9.88653 11.4478 11.0636C10.2707 12.2407 9.60942 13.8372 9.60942 15.5018C9.60942 17.1665 10.2707 18.763 11.4478 19.9401C12.6249 21.1172 14.2214 21.7784 15.886 21.7784C17.5507 21.7784 19.1471 21.1172 20.3242 19.9401C21.5013 18.763 22.1626 17.1665 22.1626 15.5018C22.1626 13.8372 21.5013 12.2407 20.3242 11.0636C19.1471 9.88653 17.5507 9.22524 15.886 9.22524ZM15.886 19.5781C14.8046 19.5781 13.7674 19.1485 13.0027 18.3838C12.238 17.6191 11.8084 16.5819 11.8084 15.5005C11.8084 14.419 12.238 13.3819 13.0027 12.6172C13.7674 11.8525 14.8046 11.4229 15.886 11.4229C16.9675 11.4229 18.0046 11.8525 18.7693 12.6172C19.534 13.3819 19.9636 14.419 19.9636 15.5005C19.9636 16.5819 19.534 17.6191 18.7693 18.3838C18.0046 19.1485 16.9675 19.5781 15.886 19.5781Z"/>
</symbol><use xlink:href="#sprite-instagram" width="31" height="31" y="211"/><view id="sprite-instagram-view" viewBox="0 211 31 31"/><symbol fill="none" id="sprite-instagram_round" viewBox="0 0 38 38">
<path d="M29.1303 6.57047C28.6796 6.57047 28.2391 6.70412 27.8643 6.95451C27.4896 7.20491 27.1975 7.5608 27.025 7.9772C26.8526 8.39359 26.8074 8.85177 26.8954 9.29381C26.9833 9.73585 27.2003 10.1419 27.519 10.4606C27.8377 10.7793 28.2437 10.9963 28.6858 11.0842C29.1278 11.1722 29.586 11.127 30.0024 10.9546C30.4188 10.7821 30.7747 10.49 31.0251 10.1153C31.2755 9.74052 31.4091 9.29994 31.4091 8.84924C31.4091 8.24488 31.169 7.66526 30.7417 7.23791C30.3143 6.81055 29.7347 6.57047 29.1303 6.57047ZM37.8657 11.166C37.8284 9.59045 37.5333 8.03164 36.9921 6.55148C36.5114 5.284 35.7596 4.13685 34.7893 3.19029C33.849 2.21692 32.6996 1.47015 31.4281 1.00646C29.952 0.448465 28.3914 0.14662 26.8136 0.113939C24.8007 -1.06114e-07 24.155 0 18.9898 0C13.8246 0 13.1789 -1.06114e-07 11.166 0.113939C9.58824 0.14662 8.02764 0.448465 6.55148 1.00646C5.28292 1.47599 4.13477 2.22196 3.19029 3.19029C2.21692 4.13062 1.47015 5.28 1.00646 6.55148C0.448465 8.02764 0.14662 9.58824 0.113939 11.166C-1.06114e-07 13.1789 0 13.8246 0 18.9898C0 24.155 -1.06114e-07 24.8007 0.113939 26.8136C0.14662 28.3914 0.448465 29.952 1.00646 31.4281C1.47015 32.6996 2.21692 33.849 3.19029 34.7893C4.13477 35.7576 5.28292 36.5036 6.55148 36.9731C8.02764 37.5311 9.58824 37.833 11.166 37.8657C13.1789 37.9796 13.8246 37.9796 18.9898 37.9796C24.155 37.9796 24.8007 37.9796 26.8136 37.8657C28.3914 37.833 29.952 37.5311 31.4281 36.9731C32.6996 36.5094 33.849 35.7627 34.7893 34.7893C35.762 33.8447 36.5142 32.697 36.9921 31.4281C37.5333 29.9479 37.8284 28.3891 37.8657 26.8136C37.8657 24.8007 37.9796 24.155 37.9796 18.9898C37.9796 13.8246 37.9796 13.1789 37.8657 11.166ZM34.4475 26.5857C34.434 27.7912 34.2157 28.9856 33.8018 30.1178C33.4986 30.9442 33.0116 31.691 32.3776 32.3016C31.7613 32.9288 31.0162 33.4147 30.1938 33.7259C29.0615 34.1397 27.8671 34.3581 26.6617 34.3715C24.7627 34.4665 24.0601 34.4855 19.0658 34.4855C14.0714 34.4855 13.3688 34.4855 11.4698 34.3715C10.2181 34.3961 8.97164 34.2034 7.78582 33.8018C6.99999 33.4739 6.28924 32.9893 5.69694 32.3776C5.06665 31.7675 4.58574 31.0202 4.29169 30.1938C3.82653 29.0457 3.56932 27.8239 3.5321 26.5857C3.5321 24.6867 3.41816 23.9841 3.41816 18.9898C3.41816 13.9955 3.41816 13.2929 3.5321 11.3939C3.53903 10.1614 3.76405 8.93987 4.19674 7.78582C4.53105 6.98428 5.04419 6.26978 5.69694 5.69694C6.27218 5.04215 6.98565 4.52327 7.78582 4.17775C8.94305 3.75899 10.1632 3.54064 11.3939 3.5321C13.2929 3.5321 13.9955 3.41816 18.9898 3.41816C23.9841 3.41816 24.6867 3.41816 26.5857 3.5321C27.7912 3.54556 28.9856 3.76389 30.1178 4.17775C30.9808 4.49802 31.7553 5.01871 32.3776 5.69694C32.998 6.28187 33.484 6.99459 33.8018 7.78582C34.2243 8.94207 34.4427 10.1629 34.4475 11.3939C34.5424 13.2929 34.5614 13.9955 34.5614 18.9898C34.5614 23.9841 34.5424 24.6867 34.4475 26.5857ZM18.9898 9.24803C17.0639 9.25178 15.1823 9.82632 13.5827 10.899C11.9832 11.9718 10.7375 13.4945 10.0031 15.2749C9.26871 17.0553 9.0785 19.0135 9.45653 20.9019C9.83456 22.7904 10.7639 24.5244 12.127 25.8849C13.4902 27.2455 15.226 28.1714 17.1152 28.5457C19.0044 28.9201 20.9622 28.7261 22.7412 27.9882C24.5201 27.2503 26.0405 26.0017 27.1101 24.4001C28.1797 22.7984 28.7505 20.9157 28.7505 18.9898C28.7531 17.7082 28.5022 16.4387 28.0123 15.2544C27.5224 14.0701 26.8033 12.9944 25.8961 12.089C24.989 11.1836 23.9119 10.4666 22.7266 9.979C21.5414 9.49144 20.2714 9.24302 18.9898 9.24803ZM18.9898 25.3134C17.7391 25.3134 16.5165 24.9425 15.4766 24.2477C14.4367 23.5528 13.6262 22.5652 13.1475 21.4097C12.6689 20.2542 12.5437 18.9828 12.7877 17.7561C13.0317 16.5295 13.634 15.4027 14.5183 14.5183C15.4027 13.634 16.5295 13.0317 17.7561 12.7877C18.9828 12.5437 20.2542 12.6689 21.4097 13.1475C22.5652 13.6262 23.5528 14.4367 24.2477 15.4766C24.9425 16.5165 25.3134 17.7391 25.3134 18.9898C25.3134 19.8202 25.1498 20.6425 24.832 21.4097C24.5143 22.1769 24.0485 22.8741 23.4613 23.4613C22.8741 24.0485 22.1769 24.5143 21.4097 24.832C20.6425 25.1498 19.8202 25.3134 18.9898 25.3134Z" fill="white"/>
</symbol><use xlink:href="#sprite-instagram_round" width="38" height="38" y="242"/><view id="sprite-instagram_round-view" viewBox="0 242 38 38"/><symbol fill="none" id="sprite-like" viewBox="0 0 32 33">
<path d="M8.37804 13.5571V31.1138M20.1829 7.52923L18.7073 13.5571H27.3101C27.7682 13.5571 28.2201 13.6628 28.6299 13.866C29.0397 14.0691 29.3962 14.3641 29.6711 14.7275C29.946 15.0909 30.1317 15.5128 30.2137 15.9597C30.2957 16.4067 30.2715 16.8664 30.1432 17.3025L26.7051 29.007C26.5263 29.6148 26.1535 30.1487 25.6426 30.5286C25.1318 30.9085 24.5105 31.1138 23.8719 31.1138H3.95122C3.1685 31.1138 2.41785 30.8055 1.86439 30.2568C1.31093 29.708 1 28.9638 1 28.1877V16.4832C1 15.7071 1.31093 14.9629 1.86439 14.4141C2.41785 13.8653 3.1685 13.5571 3.95122 13.5571H8.02389C8.57294 13.5568 9.11102 13.4046 9.57764 13.1177C10.0443 12.8308 10.4209 12.4206 10.6652 11.9331L15.7561 1.85254C16.4519 1.86108 17.1369 2.02543 17.7597 2.3333C18.3825 2.64116 18.9271 3.0846 19.3527 3.63046C19.7784 4.17632 20.0742 4.81051 20.2179 5.48562C20.3617 6.16074 20.3497 6.85934 20.1829 7.52923Z" stroke="white" stroke-width="2" stroke-linecap="round" stroke-linejoin="round"/>
</symbol><use xlink:href="#sprite-like" width="32" height="33" y="280"/><view id="sprite-like-view" viewBox="0 280 32 33"/><symbol fill="none" id="sprite-link_arrow" viewBox="0 0 14 14">
<path d="M0.42914 13.5L12.8742 0.919355M0 0.5H13.3033V13.5" stroke="currentColor"/>
</symbol><use xlink:href="#sprite-link_arrow" width="14" height="14" y="313"/><view id="sprite-link_arrow-view" viewBox="0 313 14 14"/><symbol fill="none" id="sprite-linkedin" viewBox="0 0 38 37">
<path d="M31.6497 0C33.3285 0 34.9385 0.633404 36.1256 1.76087C37.3127 2.88833 37.9796 4.41751 37.9796 6.01198V30.0599C37.9796 31.6544 37.3127 33.1836 36.1256 34.311C34.9385 35.4385 33.3285 36.0719 31.6497 36.0719H6.32993C4.65113 36.0719 3.04109 35.4385 1.85399 34.311C0.666902 33.1836 0 31.6544 0 30.0599V6.01198C0 4.41751 0.666902 2.88833 1.85399 1.76087C3.04109 0.633404 4.65113 0 6.32993 0H31.6497ZM31.6497 4.00799H6.32993C5.77033 4.00799 5.23365 4.21912 4.83795 4.59494C4.44226 4.97077 4.21995 5.48049 4.21995 6.01198V30.0599C4.21995 30.5914 4.44226 31.1011 4.83795 31.4769C5.23365 31.8528 5.77033 32.0639 6.32993 32.0639H31.6497C32.2093 32.0639 32.7459 31.8528 33.1416 31.4769C33.5373 31.1011 33.7596 30.5914 33.7596 30.0599V6.01198C33.7596 5.48049 33.5373 4.97077 33.1416 4.59494C32.7459 4.21912 32.2093 4.00799 31.6497 4.00799ZM10.5499 14.028C11.0667 14.028 11.5655 14.2082 11.9517 14.5344C12.3379 14.8606 12.5846 15.31 12.6451 15.7975L12.6599 16.032V26.0519C12.6593 26.5627 12.4533 27.054 12.0842 27.4254C11.715 27.7968 11.2104 28.0203 10.6735 28.0502C10.1367 28.0802 9.60804 27.9143 9.19563 27.5865C8.78323 27.2586 8.5182 26.7936 8.45468 26.2864L8.43991 26.0519V16.032C8.43991 15.5005 8.66221 14.9907 9.05791 14.6149C9.4536 14.2391 9.99029 14.028 10.5499 14.028ZM16.8798 12.024C17.374 12.0239 17.8525 12.1885 18.2319 12.4892C18.6113 12.7899 18.8676 13.2075 18.956 13.6692C19.381 13.4361 19.82 13.2267 20.2706 13.042C21.6779 12.4709 23.7858 12.1562 25.689 12.7234C26.687 13.024 27.6892 13.5851 28.4319 14.541C29.0966 15.3927 29.4553 16.4287 29.527 17.5931L29.5397 18.0359V26.0519C29.5391 26.5627 29.3332 27.054 28.964 27.4254C28.5948 27.7968 28.0902 28.0203 27.5534 28.0502C27.0165 28.0802 26.4879 27.9143 26.0755 27.5865C25.6631 27.2586 25.398 26.7936 25.3345 26.2864L25.3197 26.0519V18.0359C25.3197 17.3746 25.1509 17.066 25.0412 16.9237C24.8835 16.7379 24.6666 16.6057 24.423 16.547C23.6887 16.3265 22.6316 16.4428 21.929 16.7273C20.874 17.1562 19.9076 17.8295 19.2493 18.4528L18.9898 18.7173V26.0519C18.9892 26.5627 18.7833 27.054 18.4141 27.4254C18.0449 27.7968 17.5403 28.0203 17.0035 28.0502C16.4666 28.0802 15.938 27.9143 15.5256 27.5865C15.1132 27.2586 14.8481 26.7936 14.7846 26.2864L14.7698 26.0519V14.028C14.7698 13.4965 14.9921 12.9867 15.3878 12.6109C15.7835 12.2351 16.3202 12.024 16.8798 12.024ZM10.5499 8.01598C11.1095 8.01598 11.6462 8.22711 12.0419 8.60293C12.4376 8.97875 12.6599 9.48848 12.6599 10.02C12.6599 10.5515 12.4376 11.0612 12.0419 11.437C11.6462 11.8128 11.1095 12.024 10.5499 12.024C9.99029 12.024 9.4536 11.8128 9.05791 11.437C8.66221 11.0612 8.43991 10.5515 8.43991 10.02C8.43991 9.48848 8.66221 8.97875 9.05791 8.60293C9.4536 8.22711 9.99029 8.01598 10.5499 8.01598Z" fill="white"/>
</symbol><use xlink:href="#sprite-linkedin" width="38" height="37" y="327"/><view id="sprite-linkedin-view" viewBox="0 327 38 37"/><symbol fill="none" id="sprite-logo" viewBox="0 0 240 37">
<g clip-path="url(#clip0_274_6845)">
<path fill-rule="evenodd" clip-rule="evenodd" d="M74.7227 13.2268H67.025V9.56449H79.4917C79.5953 10.0914 79.6472 10.6448 79.6472 11.2244C79.6472 16.7311 76.4074 20.8941 67.5433 20.8941C58.6793 20.8941 55.4395 16.7311 55.4395 11.2244C55.4395 5.71768 58.6793 1.55469 67.5433 1.55469C74.7227 1.55469 78.1958 4.29489 79.2585 8.24709H74.1266C73.2195 6.63986 71.1978 5.58594 67.5433 5.58594C61.7635 5.58594 60.1048 7.90456 60.1048 11.2244C60.1048 14.5442 61.7635 16.8629 67.5433 16.8629C72.0531 16.8629 74.0488 15.4401 74.7227 13.2268ZM82.6416 2.00261H95.0824C101.147 2.00261 103.558 4.66376 103.558 8.85309C103.558 11.7513 102.417 13.9119 99.6959 14.9658L103.817 20.4462H98.7628L95.2121 15.7036H87.3069V20.4462H82.6416V2.00261ZM87.3069 11.6987H95.0824C97.9075 11.6987 98.8924 10.6184 98.8924 8.85309C98.8924 7.11412 97.9075 6.03385 95.0824 6.03385H87.3069V11.6987ZM117.558 1.55469C126.422 1.55469 129.661 5.69133 129.661 11.198C129.661 16.7048 126.422 20.8678 117.558 20.8678C108.694 20.8678 105.454 16.7048 105.454 11.198C105.454 5.69133 108.694 1.55469 117.558 1.55469ZM117.558 16.3096C123.338 16.3096 124.996 14.2017 124.996 11.198C124.996 8.22074 123.338 6.08655 117.558 6.08655C111.777 6.08655 110.119 8.22074 110.119 11.198C110.119 14.2017 111.777 16.3096 117.558 16.3096ZM149.98 2.00261L155.19 14.7287L159.959 2.00261H164.806L158.015 20.4462H152.624L147.363 7.61474L142.102 20.4462H136.711L129.92 2.00261H134.766L139.536 14.7287L144.745 2.00261H149.98ZM174.896 6.53447H166.238V2.00261H188.191V6.53447H179.561V20.4462H174.896V6.53447ZM195.334 9.03752H207.956V2.00261H212.622V20.4462H207.956V13.4113H195.334V20.4462H190.669V2.00261H195.334V9.03752ZM227.14 10.9609L234.346 2.00261H239.58L229.473 14.8341V20.4462H224.808V14.8341L214.699 2.00261H219.909L227.14 10.9609Z" fill="#2174F5"/>
<path fill-rule="evenodd" clip-rule="evenodd" d="M22.5945 5.74625C27.4665 7.53868 31.25 12.1751 31.242 18.1739C31.242 18.2006 31.2515 18.2171 31.271 18.2238C31.2781 18.2265 31.2865 18.2277 31.2962 18.2277L35.8123 18.2245C35.8498 18.2245 35.8681 18.206 35.8692 18.1679C35.9422 12.7801 33.4167 7.55732 29.2682 4.20888C27.6664 2.91604 25.9485 1.94139 24.1143 1.28503C22.2294 0.610291 20.2216 0.271749 18.0915 0.269544C8.12707 0.257586 0.0822801 8.66673 0.414212 18.7686C0.663882 26.3738 5.50737 32.7106 12.2284 35.1147C14.0673 35.7726 16.0469 36.1361 18.1114 36.1505C18.1447 36.1505 18.1618 36.1332 18.1618 36.0995L18.1694 31.5509C18.1694 31.5342 18.1632 31.5181 18.1519 31.5062C18.1448 31.4987 18.1363 31.4932 18.1268 31.4899C18.1206 31.4877 18.1142 31.4863 18.1076 31.4861C16.5304 31.4277 15.0684 31.1578 13.7216 30.6763C11.4816 29.875 9.56037 28.4883 7.95788 26.5162C2.99286 20.4031 4.58162 11.1787 11.1644 6.99091C14.798 4.67974 18.9038 4.43583 22.4514 5.69457C22.4992 5.71153 22.5469 5.72875 22.5945 5.74625Z" fill="#2174F5"/>
<path fill-rule="evenodd" clip-rule="evenodd" d="M58.7981 34.0767H61.5086C61.2713 34.8561 60.5686 35.357 58.9806 35.357C56.9455 35.357 56.3615 34.5406 56.3615 33.3717C56.3615 32.2027 56.9455 31.3863 58.9806 31.3863C60.2674 31.3863 60.9793 31.7574 61.2987 32.3233H63.1057C62.7315 30.9317 61.5086 29.9668 58.9806 29.9668C55.8595 29.9668 54.7188 31.4326 54.7188 33.3717C54.7188 35.3107 55.8595 36.7765 58.9806 36.7765C62.1018 36.7765 63.2425 35.3107 63.2425 33.3717C63.2425 33.1676 63.2243 32.9727 63.1878 32.7872H58.7981V34.0767ZM68.6775 30.1246H64.2969V36.6188H65.9397V34.9488H68.7231L69.9734 36.6188H71.753L70.3019 34.6891C71.2602 34.318 71.6618 33.5572 71.6618 32.5366C71.6618 31.0616 70.813 30.1246 68.6775 30.1246ZM68.6775 33.5386H65.9397V31.544H68.6775C69.6723 31.544 70.0191 31.9244 70.0191 32.5366C70.0191 33.1582 69.6723 33.5386 68.6775 33.5386ZM80.8533 33.3624C80.8533 31.4234 79.7125 29.9668 76.5914 29.9668C73.4702 29.9668 72.3294 31.4234 72.3294 33.3624C72.3294 35.3013 73.4702 36.7672 76.5914 36.7672C79.7125 36.7672 80.8533 35.3013 80.8533 33.3624ZM79.2105 33.3624C79.2105 34.42 78.6265 35.1622 76.5914 35.1622C74.5562 35.1622 73.9722 34.42 73.9722 33.3624C73.9722 32.314 74.5562 31.5625 76.5914 31.5625C78.6265 31.5625 79.2105 32.314 79.2105 33.3624ZM89.8422 34.6055L88.0078 30.1246H86.1643L84.33 34.6055L82.6507 30.1246H80.9442L83.3352 36.6188H85.2335L87.086 32.1007L88.9387 36.6188H90.8369L93.228 30.1246H91.5214L89.8422 34.6055ZM93.7324 31.7203H96.7806V36.6188H98.4233V31.7203H101.462V30.1246H93.7324V31.7203ZM108.422 32.6016H103.977V30.1246H102.335V36.6188H103.977V34.1417H108.422V36.6188H110.064V30.1246H108.422V32.6016ZM118.918 30.1246H114.866V36.6188H118.918C121.583 36.6188 122.778 35.3107 122.778 33.3717C122.778 31.4326 121.583 30.1246 118.918 30.1246ZM118.918 35.0138H116.508V31.7203H118.918C120.588 31.7203 121.135 32.3882 121.135 33.3717C121.135 34.3458 120.588 35.0138 118.918 35.0138ZM123.84 36.6188H125.483V30.1246H123.84V36.6188ZM130.631 34.0767H133.341C133.104 34.8561 132.401 35.357 130.814 35.357C128.779 35.357 128.194 34.5406 128.194 33.3717C128.194 32.2027 128.779 31.3863 130.814 31.3863C132.101 31.3863 132.813 31.7574 133.131 32.3233H134.939C134.564 30.9317 133.341 29.9668 130.814 29.9668C127.693 29.9668 126.552 31.4326 126.552 33.3717C126.552 35.3107 127.693 36.7765 130.814 36.7765C133.935 36.7765 135.076 35.3107 135.076 33.3717C135.076 33.1676 135.058 32.9727 135.021 32.7872H130.631V34.0767ZM136.13 36.6188H137.772V30.1246H136.13V36.6188ZM138.659 31.7203H141.707V36.6188H143.35V31.7203H146.389V30.1246H138.659V31.7203ZM146.968 36.6188L147.597 35.4405H151.559L152.189 36.6188H153.959L150.582 30.1246H148.565L145.197 36.6188H146.968ZM149.578 31.7481L150.801 34.0304H148.355L149.578 31.7481ZM156.319 30.1246H154.676V36.6188H161.311V35.0787H156.319V30.1246ZM170.283 33.6778L167.026 30.1246H165.656V36.6188H167.299V32.5274L170.283 35.8116L173.268 32.5274V36.6188H174.911V30.1246H173.541L170.283 33.6778ZM177.412 36.6188L178.042 35.4405H182.003L182.633 36.6188H184.403L181.026 30.1246H179.009L175.642 36.6188H177.412ZM180.023 31.7481L181.246 34.0304H178.799L180.023 31.7481ZM189.502 30.1246H185.121V36.6188H186.763V34.9488H189.547L190.797 36.6188H192.577L191.126 34.6891C192.085 34.318 192.485 33.5572 192.485 32.5366C192.485 31.0616 191.637 30.1246 189.502 30.1246ZM189.502 33.5386H186.763V31.544H189.502C190.496 31.544 190.843 31.9244 190.843 32.5366C190.843 33.1582 190.496 33.5386 189.502 33.5386ZM199.649 30.1246L197.441 32.6016H195.159V30.1246H193.516V36.6188H195.159V34.1417H197.441L199.649 36.6188H201.675L198.809 33.3717L201.675 30.1246H199.649ZM209.308 30.1246H202.491V36.6188H209.308V35.2086H204.133V34.021H209.062V32.7315H204.133V31.544H209.308V30.1246ZM209.914 31.7203H212.961V36.6188H214.604V31.7203H217.643V30.1246H209.914V31.7203ZM218.515 36.6188H220.157V30.1246H218.515V36.6188ZM227.588 34.3087L222.87 30.1246H221.5V36.6188H223.144V32.4253L227.862 36.6188H229.23V30.1246H227.588V34.3087ZM234.37 34.0767H237.08C236.844 34.8561 236.14 35.357 234.553 35.357C232.518 35.357 231.933 34.5406 231.933 33.3717C231.933 32.2027 232.518 31.3863 234.553 31.3863C235.84 31.3863 236.552 31.7574 236.87 32.3233H238.678C238.304 30.9317 237.08 29.9668 234.553 29.9668C231.432 29.9668 230.29 31.4326 230.29 33.3717C230.29 35.3107 231.432 36.7765 234.553 36.7765C237.674 36.7765 238.815 35.3107 238.815 33.3717C238.815 33.1676 238.797 32.9727 238.76 32.7872H234.37V34.0767Z" fill="currentColor"/>
<path fill-rule="evenodd" clip-rule="evenodd" d="M33.1009 36.5612C33.1077 36.5661 33.1155 36.5692 33.1238 36.5704C33.1278 36.5714 33.1319 36.5719 33.136 36.5719H42.6858C42.6941 36.5719 42.7023 36.5699 42.7098 36.566C42.7143 36.5635 42.7186 36.5604 42.7223 36.5567L42.7252 36.5535L42.7283 36.5494C42.733 36.5425 42.7361 36.5345 42.737 36.5261C42.7381 36.5176 42.737 36.5091 42.7341 36.5012L36.7711 20.2711C36.7674 20.2611 36.7608 20.2526 36.7521 20.2466C36.7455 20.2419 36.7379 20.239 36.73 20.2378C36.7259 20.2369 36.7217 20.2363 36.7173 20.2363H27.2943C27.2861 20.2362 27.2778 20.2381 27.2703 20.2419C27.263 20.2457 27.2565 20.2512 27.2517 20.258C27.2468 20.2649 27.2437 20.2728 27.2425 20.2812C27.2413 20.2894 27.2422 20.298 27.2449 20.3059L33.0822 36.5361C33.0857 36.5461 33.0922 36.5549 33.1009 36.5612ZM15.8673 20.2904C15.8617 20.2905 15.8561 20.2918 15.8511 20.2945C15.8461 20.2971 15.8418 20.301 15.8385 20.3056C15.8352 20.3103 15.8331 20.3157 15.8324 20.3214C15.8316 20.3271 15.8322 20.3329 15.8341 20.3382L21.6692 36.5738C21.6717 36.5808 21.6761 36.5868 21.6821 36.5911C21.6841 36.5926 21.6862 36.5938 21.6885 36.5947C21.6917 36.5962 21.6951 36.5971 21.6986 36.5975C21.7017 36.5984 21.7048 36.5988 21.708 36.5988H31.2942C31.2972 36.5987 31.3 36.5983 31.3029 36.5975C31.3055 36.5968 31.3082 36.5957 31.3106 36.5944C31.3155 36.5916 31.3198 36.5877 31.3229 36.5828C31.3261 36.578 31.3281 36.5725 31.3287 36.5669C31.3294 36.5611 31.3285 36.5553 31.3265 36.5499L25.3624 20.3143C25.3599 20.3075 25.3552 20.3018 25.3493 20.2977C25.3446 20.2944 25.3391 20.2923 25.3334 20.2917L25.3301 20.2909C25.328 20.2906 25.3258 20.2904 25.3237 20.2904H15.8673Z" fill="currentColor"/>
</g>
<defs>
<clipPath id="clip0_274_6845">
<rect width="240" height="37" fill="white"/>
</clipPath>
</defs>
</symbol><use xlink:href="#sprite-logo" width="240" height="37" y="364"/><view id="sprite-logo-view" viewBox="0 364 240 37"/><symbol fill="currentColor" id="sprite-map" viewBox="0 0 23 29">
<path fill-rule="evenodd" clip-rule="evenodd" d="M0 12.2241C0 6.00079 5.20054 0.970703 11.4911 0.970703C17.7995 0.970703 23 6.00079 23 12.2241C23 15.3602 21.8595 18.2716 19.9823 20.7393C17.9113 23.4613 15.3588 25.833 12.4857 27.6946C11.8281 28.1248 11.2347 28.1573 10.513 27.6946C7.62347 25.833 5.07094 23.4613 3.01774 20.7393C1.13915 18.2716 0 15.3602 0 12.2241ZM7.70765 12.5752C7.70765 14.6601 9.40888 16.2998 11.4948 16.2998C13.5821 16.2998 15.2997 14.6601 15.2997 12.5752C15.2997 10.5066 13.5821 8.78711 11.4948 8.78711C9.40888 8.78711 7.70765 10.5066 7.70765 12.5752Z"/>
</symbol><use xlink:href="#sprite-map" width="23" height="29" y="401"/><view id="sprite-map-view" viewBox="0 401 23 29"/><symbol fill="none" id="sprite-phone" viewBox="0 0 20 20">
<path d="M1.40388 7.88669C3.56943 12.6015 7.41657 16.3385 12.1923 18.3661L12.9592 18.7078C13.8085 19.086 14.764 19.1523 15.6573 18.895C16.5506 18.6378 17.3245 18.0734 17.8426 17.3015L18.8452 15.8083C19.0021 15.5741 19.0656 15.2897 19.0232 15.011C18.9808 14.7323 18.8356 14.4796 18.6162 14.3027L15.2193 11.5622C15.101 11.4668 14.9647 11.3963 14.8184 11.3549C14.6722 11.3136 14.5191 11.3022 14.3684 11.3215C14.2177 11.3407 14.0724 11.3903 13.9413 11.4671C13.8102 11.5439 13.6959 11.6465 13.6054 11.7685L12.5543 13.1862C9.85623 11.8536 7.67228 9.66929 6.34022 6.97093L7.75672 5.91983C7.8788 5.82933 7.98133 5.7151 8.05816 5.58399C8.13499 5.45288 8.18453 5.3076 8.2038 5.15687C8.22308 5.00613 8.2117 4.85306 8.17033 4.70684C8.12897 4.56061 8.05849 4.42426 7.96311 4.30596L5.22258 0.909052C5.04562 0.689644 4.79292 0.544452 4.51426 0.502078C4.23559 0.459703 3.95115 0.523218 3.71698 0.68011L2.21363 1.68835C1.43704 2.20914 0.870535 2.98871 0.615048 3.88818C0.359561 4.78766 0.431679 5.74862 0.818556 6.59988L1.40388 7.88669Z" fill="currentColor"/>
</symbol><use xlink:href="#sprite-phone" width="20" height="20" y="430"/><view id="sprite-phone-view" viewBox="0 430 20 20"/><symbol fill="none" id="sprite-play" viewBox="0 0 63 63">
<circle opacity="0.38" cx="31.4196" cy="31.4196" r="31.4196" fill="black"/>
<path fill-rule="evenodd" clip-rule="evenodd" d="M26.384 23.337C26.4101 23.1028 26.4873 22.8784 26.6094 22.6815C26.7314 22.4846 26.895 22.3207 27.087 22.2029C27.279 22.085 27.4943 22.0165 27.7156 22.0026C27.9369 21.9888 28.1582 22.03 28.3619 22.1231C29.3916 22.5913 31.6992 23.7041 34.6274 25.5017C37.5565 27.3003 39.6169 28.871 40.5118 29.5836C41.2759 30.1931 41.2778 31.4018 40.5128 32.0133C39.6266 32.7218 37.5914 34.2719 34.6274 36.0932C31.6605 37.9145 29.38 39.0138 28.36 39.4759C27.4815 39.875 26.4984 39.2696 26.384 38.262C26.2502 37.0843 26 34.4101 26 30.7985C26 27.1889 26.2492 24.5157 26.384 23.337Z" fill="white"/>
</symbol><use xlink:href="#sprite-play" width="63" height="63" y="450"/><view id="sprite-play-view" viewBox="0 450 63 63"/><symbol fill="none" id="sprite-quote" viewBox="0 0 41 34">
<path d="M40.9127 0.425024L40.9127 8.59224C40.9127 11.3372 40.4628 14.1946 39.5628 17.1645C38.6178 20.1793 37.2679 23.0593 35.5129 25.8042C33.758 28.5941 31.6431 31.0015 29.1681 33.0264L22.0809 28.0991C24.1508 25.1292 25.7483 22.0693 26.8732 18.9194C27.9982 15.8145 28.5607 12.4396 28.5607 8.79474L28.5607 0.425023L40.9127 0.425024ZM19.651 0.425022L19.651 8.59224C19.651 11.3371 19.201 14.1946 18.301 17.1644C17.3561 20.1793 16.0061 23.0592 14.2512 25.8042C12.4962 28.5941 10.3813 31.0015 7.90637 33.0264L0.819115 28.0991C2.88904 25.1292 4.48649 22.0693 5.61145 18.9194C6.73641 15.8145 7.29889 12.4396 7.2989 8.79473L7.2989 0.425021L19.651 0.425022Z" fill="#060606"/>
</symbol><use xlink:href="#sprite-quote" width="41" height="34" y="513"/><view id="sprite-quote-view" viewBox="0 513 41 34"/><symbol fill="none" id="sprite-quote_white" viewBox="0 0 41 34">
<path d="M40.9127 0.425024L40.9127 8.59224C40.9127 11.3372 40.4628 14.1946 39.5628 17.1645C38.6178 20.1793 37.2679 23.0593 35.5129 25.8042C33.758 28.5941 31.6431 31.0015 29.1681 33.0264L22.0809 28.0991C24.1508 25.1292 25.7483 22.0693 26.8732 18.9194C27.9982 15.8145 28.5607 12.4396 28.5607 8.79474L28.5607 0.425023L40.9127 0.425024ZM19.651 0.425022L19.651 8.59224C19.651 11.3371 19.201 14.1946 18.301 17.1644C17.3561 20.1793 16.0061 23.0592 14.2512 25.8042C12.4962 28.5941 10.3813 31.0015 7.90637 33.0264L0.819115 28.0991C2.88904 25.1292 4.48649 22.0693 5.61145 18.9194C6.73641 15.8145 7.29889 12.4396 7.2989 8.79473L7.2989 0.425021L19.651 0.425022Z" fill="white"/>
</symbol><use xlink:href="#sprite-quote_white" width="41" height="34" y="547"/><view id="sprite-quote_white-view" viewBox="0 547 41 34"/><symbol fill="none" id="sprite-tag" viewBox="0 0 242 100">
<path d="M215.02 21.6219C215.138 11.5478 207.064 3.28684 196.99 3.17483L32.1635 1.34212C15.2253 1.15378 1.33862 14.7264 1.13946 31.6644V31.6644C0.940112 48.6178 14.5277 62.5198 31.4812 62.7083L214.513 64.7434L215.02 21.6219Z" fill="currentColor"/>
<path d="M226.774 88.765C228.008 89.2635 229.297 88.1778 229.015 86.8771L224.796 67.4014C224.532 66.1807 223.063 65.6799 222.108 66.4846L207.85 78.496C206.895 79.3008 207.139 80.8328 208.297 81.3007L226.774 88.765Z" fill="currentColor"/>
</symbol><use xlink:href="#sprite-tag" width="242" height="100" y="581"/><view id="sprite-tag-view" viewBox="0 581 242 100"/><symbol fill="currentColor" id="sprite-telegram" viewBox="0 0 31 31">
<path d="M5.03453 14.1239C5.03453 14.1239 15.5833 9.43926 19.2418 7.78969C20.6442 7.12992 25.4003 5.01846 25.4003 5.01846C25.4003 5.01846 27.5955 4.09478 27.4125 6.3381C27.3515 7.26187 26.8637 10.4949 26.3759 13.9919C25.6442 18.9406 24.8515 24.351 24.8515 24.351C24.8515 24.351 24.7296 25.8686 23.693 26.1325C22.6564 26.3964 20.9491 25.2088 20.6442 24.9448C20.4003 24.7469 16.0711 21.7777 14.4857 20.3261C14.0589 19.9303 13.5711 19.1385 14.5466 18.2148C16.7418 16.0374 19.3637 13.3322 20.9491 11.6167C21.6808 10.8248 22.4125 8.97737 19.3637 11.2207C15.0345 14.4538 10.7662 17.489 10.7662 17.489C10.7662 17.489 9.79059 18.1487 7.96135 17.5549C6.13203 16.9611 3.99789 16.1693 3.99789 16.1693C3.99789 16.1693 2.53456 15.1796 5.03453 14.1239Z"/>
</symbol><use xlink:href="#sprite-telegram" width="31" height="31" y="681"/><view id="sprite-telegram-view" viewBox="0 681 31 31"/><symbol fill="none" id="sprite-tiktok" viewBox="0 0 30 35">
<path d="M15.6726 0.0286233C17.5474 0 19.4079 0.0143117 21.2684 0C21.3829 2.18968 22.1701 4.4223 23.773 5.96796C25.3759 7.55656 27.6371 8.28645 29.8411 8.52975V14.2974C27.7802 14.2258 25.705 13.7964 23.8302 12.9091C23.0144 12.537 22.2559 12.0647 21.5117 11.5781C21.4974 15.7571 21.526 19.9361 21.4831 24.1008C21.3686 26.1045 20.7103 28.0938 19.551 29.7396C17.6762 32.4875 14.4274 34.2764 11.0928 34.3337C9.04626 34.4482 6.99969 33.89 5.25367 32.8596C2.36272 31.1565 0.330459 28.0365 0.0299138 24.6876C0.00129047 23.972 -0.0130212 23.2565 0.0156021 22.5552C0.273212 19.836 1.61851 17.2312 3.70801 15.4566C6.08375 13.3957 9.40405 12.4082 12.5097 12.995C12.5383 15.1131 12.4524 17.2312 12.4524 19.3494C11.0356 18.8914 9.37543 19.0202 8.13032 19.8789C7.22868 20.4657 6.54172 21.3673 6.18393 22.3834C5.88338 23.1133 5.96925 23.9148 5.98357 24.6876C6.32705 27.0347 8.58829 29.0097 10.9926 28.7951C12.5956 28.7808 14.1269 27.8505 14.957 26.4909C15.2289 26.0186 15.5294 25.532 15.5438 24.9739C15.6869 22.4121 15.6296 19.8646 15.6439 17.3028C15.6582 11.5352 15.6296 5.78191 15.6726 0.0286233Z" fill="currentColor"/>
</symbol><use xlink:href="#sprite-tiktok" width="30" height="35" y="712"/><view id="sprite-tiktok-view" viewBox="0 712 30 35"/><symbol fill="none" id="sprite-values_card_1" viewBox="0 0 32 33">
<path d="M8.37804 13.5571V31.1138M20.1829 7.52923L18.7073 13.5571H27.3101C27.7682 13.5571 28.2201 13.6628 28.6299 13.866C29.0397 14.0691 29.3962 14.3641 29.6711 14.7275C29.946 15.0909 30.1317 15.5128 30.2137 15.9597C30.2957 16.4067 30.2715 16.8664 30.1432 17.3025L26.7051 29.007C26.5263 29.6148 26.1535 30.1487 25.6426 30.5286C25.1318 30.9085 24.5105 31.1138 23.8719 31.1138H3.95122C3.1685 31.1138 2.41785 30.8055 1.86439 30.2568C1.31093 29.708 1 28.9638 1 28.1877V16.4832C1 15.7071 1.31093 14.9629 1.86439 14.4141C2.41785 13.8653 3.1685 13.5571 3.95122 13.5571H8.02389C8.57294 13.5568 9.11102 13.4046 9.57764 13.1177C10.0443 12.8308 10.4209 12.4206 10.6652 11.9331L15.7561 1.85254C16.4519 1.86108 17.1369 2.02543 17.7597 2.3333C18.3825 2.64116 18.9271 3.0846 19.3527 3.63046C19.7784 4.17632 20.0742 4.81051 20.2179 5.48562C20.3617 6.16074 20.3497 6.85934 20.1829 7.52923Z" stroke="white" stroke-width="2" stroke-linecap="round" stroke-linejoin="round"/>
</symbol><use xlink:href="#sprite-values_card_1" width="32" height="33" y="747"/><view id="sprite-values_card_1-view" viewBox="0 747 32 33"/><symbol fill="none" id="sprite-values_card_2" viewBox="0 0 32 36">
<path d="M15.5071 0.853293C16.049 0.853293 16.5826 0.89033 17.0789 0.977477C17.568 1.04384 18.0504 1.15612 18.5204 1.31299C18.9892 1.46114 19.4538 1.65214 19.9143 1.88599C20.3631 2.11039 20.8243 2.3849 21.2855 2.68338C22.0652 3.20626 22.8325 3.62893 23.6142 3.96662C25.1528 4.61683 26.7804 5.003 28.4351 5.11043C29.272 5.17579 30.1385 5.20919 31.0347 5.21065V13.9254C31.0347 15.5797 30.8341 17.1527 30.4329 18.6444C30.0474 20.1176 29.4998 21.5383 28.8011 22.8775C28.1055 24.215 27.2823 25.4742 26.3442 26.6358C25.3923 27.8242 24.3611 28.9397 23.2585 29.9735C22.1404 31.0091 20.9642 31.973 19.7365 32.8602C18.5066 33.7608 17.2699 34.5908 16.0262 35.3505L15.5299 35.662L15.0335 35.3505C13.7578 34.5726 12.5118 33.7419 11.2985 32.8602C10.0642 31.9826 8.88747 31.0181 7.77646 29.9735C6.67455 28.9396 5.64407 27.8242 4.69287 26.6358C3.75797 25.4688 2.93109 24.2103 2.22351 22.8775C1.53743 21.532 0.990382 20.1128 0.591755 18.6444C0.190666 17.1073 -0.00835207 15.5195 0.000268475 13.9254V5.21065C0.896461 5.20919 1.7637 5.17579 2.60198 5.11043C3.42866 5.05123 4.24996 4.92669 5.05893 4.73787C5.85102 4.55051 6.64312 4.30214 7.42281 3.96662C8.23167 3.62219 9.00732 3.19685 9.73912 2.69645C10.6491 2.07335 11.5715 1.61365 12.4815 1.31081C13.4616 0.994666 14.4822 0.840329 15.5071 0.853293ZM28.9542 7.35229C27.3887 7.27157 25.8378 6.99586 24.334 6.53092C22.8386 6.05978 21.414 5.3681 20.1025 4.47643C19.4221 4.00716 18.6838 3.63843 17.9083 3.38056C17.1331 3.13428 16.3271 3.01236 15.5175 3.0189C14.7018 3.01366 13.8899 3.13553 13.1081 3.38056C12.3316 3.63075 11.5944 4 10.92 4.47643C9.60587 5.37207 8.17772 6.06673 6.67828 6.53964C5.21266 6.98845 3.67603 7.26296 2.0684 7.36318V13.9362C2.0684 15.3785 2.24626 16.7642 2.60198 18.0932C2.96469 19.4126 3.46405 20.6861 4.09104 21.8906C4.72581 23.1075 5.47403 24.2548 6.32463 25.3155C7.18704 26.3852 8.10736 27.3809 9.10006 28.3264C10.0928 29.272 11.133 30.1478 12.2209 30.9539C13.3197 31.7615 14.4186 32.5 15.5175 33.1696C16.6425 32.4809 17.7389 31.7416 18.8038 30.9539C19.9001 30.15 20.946 29.2723 21.9349 28.3264C22.9276 27.3809 23.85 26.3852 24.7124 25.3155C25.563 24.2548 26.3112 23.1075 26.946 21.8906C27.5698 20.6874 28.0618 19.4134 28.4123 18.0932C28.7792 16.7416 28.9617 15.3419 28.9542 13.9362V7.35229Z" fill="white"/>
<path fill-rule="evenodd" clip-rule="evenodd" d="M23.2107 11.1119L22.3007 10.2883L21.4611 10.3646L12.444 21.5804L9.37281 16.9616L8.54556 16.8135L7.58801 17.5346L7.44531 18.4061L11.3934 24.3452L11.8422 24.6066L12.7873 24.6676L13.2713 24.4454L23.2707 11.9942L23.2107 11.1119Z" fill="white"/>
</symbol><use xlink:href="#sprite-values_card_2" width="32" height="36" y="780"/><view id="sprite-values_card_2-view" viewBox="0 780 32 36"/><symbol fill="none" id="sprite-values_card_3" viewBox="0 0 35 34">
<path d="M17.4041 28.6584L10.8916 32.4864C10.3814 32.787 9.79731 32.9458 9.20203 32.9458C8.60675 32.9458 8.02268 32.787 7.51241 32.4864L2.59119 29.5913C2.10688 29.306 1.70591 28.9029 1.42714 28.4211C1.14837 27.9392 1.00124 27.3949 1 26.8409V21.6297C1.00124 21.0758 1.14837 20.5315 1.42714 20.0496C1.70591 19.5678 2.10688 19.1647 2.59119 18.8794L9.20203 14.9871L17.4041 19.8123M17.4041 28.6584V19.8123M17.4041 28.6584L23.9165 32.4864C24.4267 32.787 25.0108 32.9458 25.6061 32.9458C26.2014 32.9458 26.7854 32.787 27.2957 32.4864L32.2169 29.5913C32.7012 29.306 33.1022 28.9029 33.381 28.4211C33.6598 27.9392 33.8069 27.3949 33.8081 26.8409V21.6297C33.8069 21.0758 33.6598 20.5315 33.381 20.0496C33.1022 19.5678 32.7012 19.1647 32.2169 18.8794L25.6061 14.9871L17.4041 19.8123M17.4041 19.8123L9.20203 24.6374M17.4041 19.8123L25.6061 24.6374M9.20203 24.6374L1.42651 20.0535M9.20203 24.6374V32.9529M25.6061 24.6374L33.3816 20.0535M25.6061 24.6374V32.9529" stroke="white" stroke-width="2" stroke-linecap="round" stroke-linejoin="round"/>
<path d="M17.4032 19.8113L9.20117 14.9861V7.9574C9.20241 7.40342 9.34954 6.85915 9.62831 6.37729C9.90708 5.89544 10.308 5.49234 10.7924 5.20704L15.7136 2.31193C16.2239 2.01134 16.8079 1.85254 17.4032 1.85254C17.9985 1.85254 18.5825 2.01134 19.0928 2.31193L24.014 5.20704C24.4984 5.49234 24.8993 5.89544 25.1781 6.37729C25.4569 6.85915 25.604 7.40342 25.6052 7.9574V14.9861L17.4032 19.8113ZM17.4032 19.8113V10.9651M17.4032 10.9651L9.62768 6.38117M17.4032 10.9651L25.1787 6.38117" stroke="white" stroke-width="2" stroke-linecap="round" stroke-linejoin="round"/>
</symbol><use xlink:href="#sprite-values_card_3" width="35" height="34" y="816"/><view id="sprite-values_card_3-view" viewBox="0 816 35 34"/><symbol fill="none" id="sprite-values_card_4" viewBox="0 0 31 31">
<path d="M12.13 20.7875C12.0048 20.3022 11.7518 19.8592 11.3973 19.5047C11.0429 19.1503 10.5999 18.8973 10.1145 18.772L1.5098 16.5532C1.36299 16.5115 1.23379 16.4231 1.14178 16.3014C1.04978 16.1796 1 16.0312 1 15.8786C1 15.726 1.04978 15.5775 1.14178 15.4558C1.23379 15.334 1.36299 15.2456 1.5098 15.2039L10.1145 12.9837C10.5997 12.8586 11.0426 12.6058 11.397 12.2516C11.7515 11.8974 12.0046 11.4547 12.13 10.9696L14.3489 2.36483C14.3901 2.21744 14.4785 2.0876 14.6004 1.9951C14.7223 1.90261 14.8712 1.85254 15.0242 1.85254C15.1773 1.85254 15.3261 1.90261 15.448 1.9951C15.57 2.0876 15.6583 2.21744 15.6995 2.36483L17.917 10.9696C18.0422 11.455 18.2952 11.8979 18.6497 12.2524C19.0041 12.6068 19.4471 12.8598 19.9325 12.9851L28.5372 15.2025C28.6852 15.2433 28.8157 15.3316 28.9087 15.4537C29.0017 15.5758 29.052 15.7251 29.052 15.8786C29.052 16.0321 29.0017 16.1813 28.9087 16.3034C28.8157 16.4255 28.6852 16.5138 28.5372 16.5546L19.9325 18.772C19.4471 18.8973 19.0041 19.1503 18.6497 19.5047C18.2952 19.8592 18.0422 20.3022 17.917 20.7875L15.6981 29.3923C15.6569 29.5397 15.5686 29.6695 15.4466 29.762C15.3247 29.8545 15.1759 29.9046 15.0228 29.9046C14.8698 29.9046 14.7209 29.8545 14.599 29.762C14.477 29.6695 14.3887 29.5397 14.3475 29.3923L12.13 20.7875Z" stroke="white" stroke-width="2" stroke-linecap="round" stroke-linejoin="round"/>
</symbol><use xlink:href="#sprite-values_card_4" width="31" height="31" y="850"/><view id="sprite-values_card_4-view" viewBox="0 850 31 31"/><symbol fill="none" id="sprite-values_card_5" viewBox="0 0 29 30">
<path d="M14.3017 5.85447C14.3032 5.32249 14.1984 4.79556 13.9933 4.30469C13.7883 3.81381 13.4871 3.36889 13.1076 2.9961C12.7281 2.62331 12.2779 2.33018 11.7834 2.13394C11.2889 1.9377 10.7602 1.84232 10.2284 1.85341C9.69648 1.86449 9.1722 1.98182 8.68634 2.19849C8.20048 2.41517 7.76285 2.72681 7.39919 3.11509C7.03553 3.50337 6.75319 3.96045 6.56877 4.45944C6.38434 4.95844 6.30157 5.48927 6.3253 6.02073C5.54349 6.22175 4.81768 6.59804 4.20283 7.1211C3.58798 7.64417 3.10022 8.30028 2.77649 9.03976C2.45276 9.77924 2.30155 10.5827 2.33431 11.3893C2.36707 12.1958 2.58294 12.9844 2.96557 13.6952C2.2928 14.2417 1.76376 14.9444 1.42448 15.742C1.0852 16.5397 0.945952 17.4082 1.01885 18.2719C1.09174 19.1356 1.37458 19.9685 1.84274 20.698C2.31091 21.4275 2.95023 22.0315 3.70508 22.4576C3.61187 23.1788 3.6675 23.9115 3.86853 24.6103C4.06956 25.3092 4.41174 25.9594 4.87392 26.5209C5.3361 27.0823 5.90847 27.543 6.55569 27.8746C7.20291 28.2062 7.91123 28.4015 8.63691 28.4486C9.36259 28.4957 10.0902 28.3935 10.7749 28.1484C11.4595 27.9033 12.0866 27.5204 12.6175 27.0234C13.1484 26.5264 13.5717 25.9258 13.8614 25.2588C14.151 24.5918 14.3009 23.8724 14.3017 23.1452V5.85447Z" stroke="white" stroke-width="2" stroke-linecap="round" stroke-linejoin="round"/>
<path d="M14.3028 5.85447C14.3012 5.32249 14.406 4.79556 14.6111 4.30469C14.8161 3.81381 15.1173 3.36889 15.4968 2.9961C15.8763 2.62331 16.3265 2.33018 16.821 2.13394C17.3155 1.9377 17.8442 1.84232 18.3761 1.85341C18.9079 1.86449 19.4322 1.98182 19.9181 2.19849C20.4039 2.41517 20.8416 2.72681 21.2052 3.11509C21.5689 3.50337 21.8512 3.96045 22.0356 4.45944C22.2201 4.95844 22.3028 5.48927 22.2791 6.02073C23.0609 6.22175 23.7867 6.59804 24.4016 7.1211C25.0164 7.64417 25.5042 8.30028 25.8279 9.03976C26.1517 9.77924 26.3029 10.5827 26.2701 11.3893C26.2373 12.1958 26.0215 12.9844 25.6388 13.6952C26.3116 14.2417 26.8407 14.9444 27.1799 15.742C27.5192 16.5397 27.6585 17.4082 27.5856 18.2719C27.5127 19.1356 27.2298 19.9685 26.7617 20.698C26.2935 21.4275 25.6542 22.0315 24.8993 22.4576C24.9925 23.1788 24.9369 23.9115 24.7359 24.6103C24.5348 25.3092 24.1927 25.9594 23.7305 26.5209C23.2683 27.0823 22.6959 27.543 22.0487 27.8746C21.4015 28.2062 20.6932 28.4015 19.9675 28.4486C19.2418 28.4957 18.5142 28.3935 17.8296 28.1484C17.1449 27.9033 16.5178 27.5204 15.9869 27.0234C15.4561 26.5264 15.0327 25.9258 14.743 25.2588C14.4534 24.5918 14.3035 23.8724 14.3028 23.1452V5.85447Z" stroke="white" stroke-width="2" stroke-linecap="round" stroke-linejoin="round"/>
<path d="M18.2931 16.495C17.1764 16.1021 16.2013 15.387 15.4911 14.44C14.7808 13.493 14.3673 12.3567 14.3029 11.1747C14.2384 12.3567 13.825 13.493 13.1147 14.44C12.4045 15.387 11.4294 16.1021 10.3127 16.495M21.7499 7.84958C22.0718 7.29174 22.2539 6.66426 22.2806 6.02075M6.32653 6.02075C6.35283 6.66415 6.53445 7.29162 6.85589 7.84958M2.9668 13.6965C3.21012 13.4983 3.47049 13.3221 3.74488 13.1698M24.8609 13.1698C25.1353 13.3221 25.3957 13.4983 25.639 13.6965M6.32254 23.1453C5.4059 23.1457 4.5047 22.9093 3.70631 22.4589M24.8995 22.4589C24.1011 22.9093 23.1999 23.1457 22.2832 23.1453" stroke="white" stroke-width="2" stroke-linecap="round" stroke-linejoin="round"/>
</symbol><use xlink:href="#sprite-values_card_5" width="29" height="30" y="881"/><view id="sprite-values_card_5-view" viewBox="0 881 29 30"/></svg>